<?xml version="1.0" encoding="UTF-8" standalone="no"?>
<!-- Created with Inkscape (http://www.inkscape.org/) -->

<svg
   width="210mm"
   height="297mm"
   viewBox="0 0 210 297"
   version="1.1"
   id="svg1"
   xmlns="http://www.w3.org/2000/svg"
   xmlns:svg="http://www.w3.org/2000/svg">
  <defs
     id="defs1" />
  <g
     id="layer1">
    <text
       xml:space="preserve"
       style="font-size:8.46667px;fill:none;stroke:#000000;stroke-width:0.577;stroke-dasharray:none"
       x="99.713516"
       y="19.668875"
       id="text1"><tspan
         id="tspan1"
         style="font-size:8.46667px;text-align:center;text-anchor:middle;fill:#000000;fill-opacity:1;stroke-width:0.577;stroke-dasharray:none"
         x="99.713516"
         y="19.668875">Ein Atom aus einem Nichts in einem Nichts</tspan><tspan
         style="font-size:8.46667px;text-align:center;text-anchor:middle;fill:#000000;fill-opacity:1;stroke-width:0.577;stroke-dasharray:none"
         x="99.713516"
         y="30.252211"
         id="tspan2">gespalten in der Zeit zum Unterschied in</tspan><tspan
         style="font-size:8.46667px;text-align:center;text-anchor:middle;fill:#000000;fill-opacity:1;stroke-width:0.577;stroke-dasharray:none"
         x="99.713516"
         y="40.835552"
         id="tspan3">Raum Frequenz Skalierung</tspan></text>
    <g
       id="g18">
      <ellipse
         style="fill:#000000;fill-opacity:1;stroke:none;stroke-width:0.648634;stroke-dasharray:none"
         id="path3"
         cx="74.08609"
         cy="121.31509"
         rx="47.169483"
         ry="42.931595" />
      <ellipse
         style="fill:#6eacb1;fill-opacity:1;stroke:none;stroke-width:0.559229;stroke-dasharray:none"
         id="ellipse3"
         cx="91.001137"
         cy="117.72324"
         rx="40.667866"
         ry="37.014107" />
      <ellipse
         style="fill:#b1796e;fill-opacity:1;stroke:none;stroke-width:0.471314;stroke-dasharray:none"
         id="ellipse4"
         cx="119.21757"
         cy="98.157829"
         rx="34.274586"
         ry="31.195225" />
      <ellipse
         style="fill:#6eb187;fill-opacity:1;stroke:none;stroke-width:0.311555;stroke-dasharray:none"
         id="ellipse5"
         cx="146.17778"
         cy="140.42053"
         rx="22.656696"
         ry="20.62113" />
      <ellipse
         style="opacity:0.248322;fill:#b1796e;fill-opacity:1;stroke:none;stroke-width:0.471314;stroke-dasharray:none"
         id="ellipse6"
         cx="124.50924"
         cy="98.157829"
         rx="34.274586"
         ry="31.195225" />
      <ellipse
         style="opacity:0.503356;fill:#b1796e;fill-opacity:1;stroke:none;stroke-width:0.471314;stroke-dasharray:none"
         id="ellipse7"
         cx="129.8009"
         cy="98.157829"
         rx="34.274586"
         ry="31.195225" />
      <ellipse
         style="opacity:0.412752;fill:#b1796e;fill-opacity:1;stroke:none;stroke-width:0.471314;stroke-dasharray:none"
         id="ellipse8"
         cx="135.09258"
         cy="98.157829"
         rx="34.274586"
         ry="31.195225" />
      <ellipse
         style="opacity:0.174497;fill:#b1796e;fill-opacity:1;stroke:none;stroke-width:0.471314;stroke-dasharray:none"
         id="ellipse9"
         cx="140.38425"
         cy="98.157829"
         rx="34.274586"
         ry="31.195225" />
      <ellipse
         style="opacity:0.392617;fill:#6eb187;fill-opacity:1;stroke:none;stroke-width:0.311555;stroke-dasharray:none"
         id="ellipse10"
         cx="146.17778"
         cy="145.7122"
         rx="22.656696"
         ry="20.62113" />
      <ellipse
         style="opacity:0.395973;fill:#6eb187;fill-opacity:1;stroke:none;stroke-width:0.311555;stroke-dasharray:none"
         id="ellipse11"
         cx="151.46945"
         cy="145.7122"
         rx="22.656696"
         ry="20.62113" />
      <ellipse
         style="opacity:0.516779;fill:#6eb187;fill-opacity:1;stroke:none;stroke-width:0.311555;stroke-dasharray:none"
         id="ellipse12"
         cx="156.76112"
         cy="145.7122"
         rx="22.656696"
         ry="20.62113" />
      <ellipse
         style="opacity:0.251678;fill:#6eb187;fill-opacity:1;stroke:none;stroke-width:0.311555;stroke-dasharray:none"
         id="ellipse13"
         cx="156.76112"
         cy="151.00388"
         rx="22.656696"
         ry="20.62113" />
      <ellipse
         style="fill:#6eacb1;fill-opacity:1;stroke:none;stroke-width:0.559229;stroke-dasharray:none"
         id="ellipse14"
         cx="91.001137"
         cy="123.01491"
         rx="40.667866"
         ry="37.014107" />
      <ellipse
         style="opacity:0.281879;fill:#6eacb1;fill-opacity:1;stroke:none;stroke-width:0.559229;stroke-dasharray:none"
         id="ellipse15"
         cx="96.292809"
         cy="123.01491"
         rx="40.667866"
         ry="37.014107" />
      <ellipse
         style="opacity:0.45302;fill:#6eacb1;fill-opacity:1;stroke:none;stroke-width:0.559229;stroke-dasharray:none"
         id="ellipse16"
         cx="96.292809"
         cy="128.30656"
         rx="40.667866"
         ry="37.014107" />
      <ellipse
         style="opacity:0.449664;fill:#6eacb1;fill-opacity:1;stroke:none;stroke-width:0.559229;stroke-dasharray:none"
         id="ellipse17"
         cx="101.58447"
         cy="128.30656"
         rx="40.667866"
         ry="37.014107" />
      <ellipse
         style="opacity:0.251678;fill:#6eacb1;fill-opacity:1;stroke:none;stroke-width:0.559229;stroke-dasharray:none"
         id="ellipse18"
         cx="106.87614"
         cy="128.30656"
         rx="40.667866"
         ry="37.014107" />
    </g>
    <rect
       style="opacity:0.281879;fill:#b1796e;fill-opacity:1;stroke:none;stroke-width:0.577001;stroke-dasharray:none"
       id="rect18"
       width="188.49336"
       height="130.4702"
       x="9.8344364"
       y="56.056293" />
    <text
       xml:space="preserve"
       style="font-size:8.46667px;text-align:center;text-anchor:middle;opacity:0.281879;fill:#b1796e;fill-opacity:1;stroke:none;stroke-width:0.577001;stroke-dasharray:none"
       x="54.089401"
       y="196.03311"
       id="text18"><tspan
         id="tspan18"
         style="stroke-width:0.577"
         x="54.089401"
         y="196.03311">#Mummelkuhinspired</tspan></text>
    <path
       style="opacity:0.281879;fill:#333333;fill-opacity:1;stroke:none;stroke-width:0.260822;stroke-dasharray:none"
       id="path18"
       d="m 142.77823,191.63288 c -0.0609,-0.15544 -0.13078,-0.30704 -0.18296,-0.4663 -0.23422,-0.71489 -0.59797,-2.12202 -0.75568,-2.70975 -0.32986,-1.22924 -1.30668,-4.90364 -1.62423,-5.985 -0.39061,-1.33019 -0.81881,-2.64669 -1.22822,-3.97004 -2.95114,-9.11742 -6.16082,-18.13035 -9.48029,-27.0923 -0.38649,-1.17958 -0.89607,-2.30345 -1.3181,-3.46685 -0.0123,-0.0341 0.0196,-0.1085 -0.0137,-0.10906 -0.38686,-0.006 -1.03306,-0.31288 -1.15783,0.0897 -0.15658,0.50527 0.46156,0.93927 0.69369,1.40812 0.34691,0.70069 0.6956,1.40031 1.04341,2.10049 3.12553,6.41197 6.23748,12.83179 9.35405,19.24898 0.39955,0.78751 1.32896,2.72543 1.92477,3.59196 0.11057,0.16079 0.24039,0.33672 0.41561,0.39605 0.51734,0.1752 1.18064,0.66002 1.6028,0.28749 0.34697,-0.30619 -0.18554,-0.95779 -0.31158,-1.4269 -0.18817,-0.70025 -0.42013,-1.38536 -0.6302,-2.07804 -1.60552,-5.03287 -3.76836,-9.80968 -5.79621,-14.64412 -0.19431,-0.50491 -0.94347,-2.37162 -1.09106,-3.023 -0.0543,-0.23969 -0.12938,-0.52002 -0.0279,-0.74042 0.0511,-0.11095 0.44272,0.0989 0.33064,0.0828 -1.2788,-0.18415 -1.01223,-0.58857 0.82141,1.65282 2.60732,3.44867 4.97838,7.10055 7.40714,10.70001 1.80085,2.66886 1.76994,2.60395 3.54981,5.15385 1.11008,1.62798 2.30509,3.18375 3.42675,4.80176 0.0488,0.0706 0.70903,0.98674 0.76745,1.28844 0.0101,0.0504 -0.0782,0.0568 -0.11728,0.0851 -0.76104,-0.13515 -0.25951,-0.0391 -1.35225,-0.2844 -1.42522,-0.31999 -2.30923,-0.52638 -3.82848,-0.8005 -3.03705,-0.54801 -4.02002,-0.64976 -7.20218,-1.09394 -7.47378,-0.9352 -15.01687,-0.95278 -22.5167,-0.42439 -1.17542,0.0828 -2.34821,0.20592 -3.52232,0.30889 -2.2335,0.23851 -4.46622,0.49956 -6.68337,0.88446 -0.25616,0.0445 -1.46472,0.26594 -1.84415,0.38051 -0.0943,0.0285 -0.17894,0.0875 -0.2684,0.13121 0.56158,0.38779 1.0641,0.90641 1.68471,1.16334 0.33008,0.13667 0.7057,-0.006 1.05782,-0.0279 0.77567,-0.0491 1.55124,-0.10539 2.32471,-0.18631 1.27745,-0.1336 2.55373,-0.28317 3.82718,-0.45711 4.45315,-0.60822 7.82556,-1.20342 12.35442,-1.95144 12.95909,-2.28682 25.91019,-4.62874 38.9219,-6.53263 8.34994,-1.22176 10.3189,-1.41892 18.40984,-2.41184 5.47344,-0.62427 10.95162,-1.20648 16.4413,-1.62973 1.8835,-0.14522 3.75894,-0.2575 5.64617,-0.27643 0.19964,0.008 0.3993,0.0161 0.59895,0.0242 0,0 -1.33248,-1.06445 -1.33248,-1.06445 v 0 c -0.18301,0.008 -0.36602,0.0158 -0.54903,0.0236 -1.78494,0.12923 -3.56025,0.32045 -5.33942,0.52852 -5.31538,0.62157 -10.62232,1.32555 -15.92865,2.03337 -7.91085,1.08897 -10.01131,1.35532 -18.19129,2.58301 -6.93661,1.04106 -14.07365,2.17717 -20.99979,3.2957 -3.26468,0.52723 -6.52656,1.07524 -9.79162,1.59956 -2.83681,0.45552 -5.67596,0.89328 -8.51393,1.33993 -4.86923,0.69319 -7.94895,1.18788 -12.6999,1.67564 -2.10145,0.21574 -4.3243,0.39044 -6.45309,0.38398 -0.37296,-9.5e-4 -1.09174,-0.48366 -1.11681,-0.0745 -0.031,0.50686 0.70753,0.65366 1.06129,0.98049 0.0653,-0.0438 0.12355,-0.10416 0.19591,-0.13158 0.37619,-0.14245 1.46467,-0.38901 1.73761,-0.44716 2.14055,-0.45604 4.30463,-0.76213 6.46969,-1.03671 1.15265,-0.11815 2.30355,-0.25893 3.45793,-0.35444 7.4962,-0.62026 15.04412,-0.55966 22.51099,0.44989 3.45405,0.52594 4.09103,0.57561 7.36867,1.24195 0.80815,0.16429 1.61173,0.35492 2.41559,0.54295 0.52378,0.1225 1.044,0.26283 1.56715,0.38862 0.32654,0.0786 0.64952,0.18429 0.9818,0.22426 0.18332,0.022 0.36804,-0.0265 0.55206,-0.0397 0.0587,-0.1 0.18947,-0.18195 0.17607,-0.30005 -0.0225,-0.19785 -0.16562,-0.35614 -0.26912,-0.51987 -0.18563,-0.29366 -0.39312,-0.56999 -0.59638,-0.84919 -1.19093,-1.63595 -2.44204,-3.21882 -3.60291,-4.88154 -1.75113,-2.47229 -1.85206,-2.58831 -3.60443,-5.17598 -2.40931,-3.55776 -4.73785,-7.18389 -7.2632,-10.64513 -0.43713,-0.58045 -0.79248,-1.24896 -1.31139,-1.74133 -0.66476,-0.63077 -1.41225,-1.16716 -2.20103,-1.59146 -0.13553,-0.0729 -0.36916,0.0251 -0.42182,0.18054 -0.0877,0.25886 0.0131,0.55807 0.0816,0.82379 0.12169,0.4714 0.31316,0.91778 0.48472,1.37003 0.21745,0.57319 0.45467,1.13705 0.68201,1.70556 2.08356,4.80037 4.28689,9.55656 5.80187,14.62372 0.18414,0.67387 0.38864,1.34139 0.55239,2.02158 0.10295,0.42758 0.015,0.93746 0.24696,1.29885 0.34475,0.53712 0.94992,0.80185 1.38829,1.24892 0.16042,0.16359 -0.40465,-0.21414 -0.54996,-0.39398 -0.67363,-0.83371 -1.69093,-2.87596 -2.11539,-3.66831 -1.00765,-2.01232 -2.15954,-4.30165 -3.14155,-6.31211 -2.08364,-4.26594 -4.08222,-8.58099 -6.10482,-12.88199 -0.31864,-0.68541 -0.63917,-1.36975 -0.95591,-2.05622 -0.20969,-0.45448 -0.30613,-0.99508 -0.6234,-1.36664 -0.53709,-0.62899 -1.25096,-1.04203 -1.87723,-1.56187 -0.0542,-0.045 0.12614,0.0733 0.16095,0.13731 0.21769,0.40087 0.40369,0.8219 0.58827,1.24236 0.34065,0.77607 0.65803,1.56423 0.98704,2.34636 3.50185,8.89655 6.74608,17.91643 9.54333,27.11262 0.38059,1.30666 0.77856,2.60735 1.14177,3.91998 0.63825,2.30675 0.93117,3.61491 1.45129,5.89116 0.10306,0.45106 0.44247,2.01508 0.60638,2.65143 0.0403,0.15686 0.0926,0.30971 0.13897,0.46456 z" />
    <path
       style="opacity:0.281879;fill:#333333;fill-opacity:1;stroke:none;stroke-width:0.260822;stroke-dasharray:none"
       id="path19"
       d="m 142.18697,191.1403 c 0.0699,-0.23426 0.14667,-0.46621 0.20988,-0.70277 0.23067,-0.86318 0.55818,-2.27649 0.75163,-3.096 0.32506,-1.37721 0.60245,-2.47889 0.8486,-3.88557 0.14345,-0.81965 0.25012,-1.64656 0.37519,-2.46984 0.7841,-6.96482 1.07926,-13.98073 1.5133,-20.9788 0.0504,-0.75875 0.10552,-1.51714 0.15129,-2.27625 0.0112,-0.17801 0.13346,-2.06357 0.0855,-2.54059 -0.008,-0.0721 -0.045,-0.17231 -0.11068,-0.18075 -0.6013,-0.0773 -1.29732,-0.41153 -1.81515,-0.0668 -0.42187,0.2809 -0.28322,1.03882 -0.42484,1.55822 -0.18775,0.74501 -0.39017,1.48575 -0.56327,2.23503 -0.89762,3.88524 -1.63595,7.8304 -2.25054,11.78054 -0.63669,4.09214 -0.9732,7.02132 -1.49321,11.15625 -0.63502,5.52512 -1.18944,11.06082 -1.74111,16.59657 -0.24754,2.48396 -0.46304,4.48649 -0.64283,6.93265 -0.0491,0.66759 -0.0771,1.33684 -0.11569,2.00525 0.11012,1.07309 -0.0338,2.20056 1.92789,1.77376 0.47055,-0.1025 0.51107,-0.89483 0.72297,-1.36796 0.395,-0.8819 0.75072,-1.78495 1.09542,-2.69199 1.29643,-3.41142 1.72775,-4.87271 2.90741,-8.46038 0.52807,-1.82258 1.0811,-3.63664 1.58422,-5.46773 1.16483,-4.23935 2.3989,-9.25884 3.43047,-13.51213 1.70342,-7.02347 3.3174,-14.07193 4.93388,-21.11997 1.04122,-4.58919 2.11378,-9.16963 3.18814,-13.74953 0.34554,-1.47306 0.76163,-2.96838 0.95767,-4.4811 -0.54874,-0.16799 -1.11128,-0.7192 -1.64618,-0.50394 -0.3803,0.15302 -0.2127,0.85923 -0.31044,1.29129 -0.15546,0.68719 -0.30624,1.3757 -0.44906,2.06618 -0.77066,3.72562 -1.41078,7.48247 -2.0797,11.23113 -1.57409,8.81105 -3.45619,17.5499 -5.15017,26.33283 -0.77865,3.991 -1.45252,8.0196 -2.49215,11.94233 -0.0651,0.17543 -0.20275,0.80544 -0.49592,0.88895 -0.12673,0.0361 -0.2614,-0.0343 -0.38646,-0.077 -0.23644,-0.0805 -0.46271,-0.19356 -0.69382,-0.29105 -1.72288,-0.72673 -0.5513,-0.2447 -2.63921,-1.08442 -4.25322,-1.61779 -8.69932,-2.56314 -13.17924,-2.98932 -1.03431,-0.0984 -2.07242,-0.14033 -3.10862,-0.21049 -2.7211,-0.17183 -5.44854,-0.0959 -8.15831,0.22 -1.95909,0.22843 -3.89628,0.61394 -5.83212,1.0059 -0.56098,0.12464 -1.4512,0.31308 -2.04227,0.47364 -0.16365,0.0445 -0.32951,0.0849 -0.48596,0.15386 -0.0448,0.0198 -0.14868,0.0814 -0.10665,0.1075 1.95108,1.21634 1.3448,1.06853 3.00517,0.88394 7.91623,-0.81412 15.77459,-2.15654 23.63977,-3.40992 2.7533,-0.43876 5.5075,-0.87061 8.26123,-1.30592 9.07853,-1.39337 18.19202,-2.56546 27.34623,-3.15591 2.8703,-0.18513 5.74448,-0.30185 8.61892,-0.37561 5.96375,-0.15303 7.98964,-0.0258 13.69664,0.13724 3.56499,0.20595 7.14781,0.36242 10.68562,0.93066 0.53698,0.0862 1.07136,0.19476 1.60101,0.32477 0.32939,0.0809 0.93518,0.67587 0.9732,0.30717 0.0404,-0.39249 -0.63092,-0.37815 -0.94639,-0.56723 0.22415,0.32617 0.10978,0.37479 -0.11709,0.63557 0,0 1.43925,0.96127 1.43925,0.96127 v 0 c 0.29792,-0.36322 0.4473,-0.45327 0.22117,-0.94522 -0.62031,-0.38326 -1.21332,-0.8257 -1.86095,-1.14978 -0.40751,-0.20393 -2.24556,-0.46204 -2.43553,-0.48543 -3.41546,-0.42045 -6.85999,-0.47862 -10.29076,-0.59736 -5.61926,-0.05 -7.54105,-0.12228 -13.4255,0.0846 -2.85516,0.1005 -5.71011,0.22822 -8.56121,0.42366 -9.17692,0.62906 -18.31517,1.79162 -27.43004,3.09489 -4.55212,0.67059 -11.2406,1.66823 -15.87275,2.30505 -5.5894,0.76842 -11.19198,1.46099 -16.81959,1.78301 -0.39235,0.0197 -1.0773,-0.35867 -1.17705,0.059 -0.11091,0.46447 0.60233,0.69608 0.91729,1.02881 0.0112,0.0118 -0.004,-0.0424 0.0101,-0.0494 0.14181,-0.0703 0.29017,-0.12447 0.43922,-0.17337 0.57467,-0.18861 1.40162,-0.38821 1.95492,-0.53057 1.34141,-0.30406 2.07387,-0.48627 3.47269,-0.72707 3.41645,-0.58813 6.87543,-0.81446 10.33095,-0.59745 1.03511,0.0723 2.07233,0.11457 3.10534,0.21699 4.53206,0.44932 9.02739,1.44573 13.311,3.14708 0.53393,0.22354 1.069,0.44383 1.60179,0.67062 0.37971,0.16165 0.75379,0.33931 1.13566,0.49468 0.29334,0.11935 0.85745,0.42828 1.23041,0.23045 0.29549,-0.15675 0.39843,-0.76412 0.47361,-1.00851 0.30413,-1.38866 0.56129,-2.78478 0.82002,-4.1846 0.48722,-2.63612 0.97917,-5.27138 1.4208,-7.91736 1.56121,-8.82928 3.25748,-17.62952 5.00841,-26.4155 0.74312,-3.69559 1.45632,-7.40372 2.35597,-11.05865 0.16568,-0.67317 0.34179,-1.34344 0.53261,-2.00851 0.11628,-0.40525 0.53151,-0.80645 0.38836,-1.20118 -0.2103,-0.57998 -0.84975,-0.82861 -1.27464,-1.24291 0.0131,0.19924 0.0534,0.39858 0.0392,0.59772 -0.0829,1.15548 -0.4628,3.06089 -0.65076,4.04711 -0.88893,4.66427 -1.87762,9.30509 -2.85075,13.94863 -0.47773,2.19855 -0.94302,4.40043 -1.43317,6.59567 -1.13912,5.10156 -2.16516,9.48874 -3.43689,14.55909 -1.11456,4.4438 -2.31396,9.01084 -3.6032,13.40277 -0.53195,1.81219 -1.11547,3.60561 -1.67322,5.40842 -1.24037,3.55027 -1.66536,4.99421 -3.1094,8.32057 -0.38096,0.87753 -0.79111,1.74097 -1.23781,2.58019 -0.22085,0.41489 -0.80875,0.69688 -0.7609,1.17469 0.0488,0.48794 0.53271,0.99686 0.97915,1.00498 0.30993,0.006 -0.15165,-0.66088 -0.22748,-0.99131 0.003,-0.68654 -0.0112,-1.37343 0.009,-2.05965 0.0686,-2.40241 0.23732,-4.6431 0.42498,-7.05276 0.43313,-5.56074 0.96329,-11.11287 1.65133,-16.64299 0.25283,-1.90841 0.4836,-3.82052 0.75847,-5.72523 0.93381,-6.4708 2.13093,-12.92332 3.98956,-19.15632 0.78701,-2.32884 0.72224,-0.80413 -0.68124,-2.97082 -0.0501,-0.0775 0.22448,-0.0357 0.25482,0.0534 0.1006,0.29504 0.0753,0.62577 0.084,0.9407 0.029,1.05443 -0.0584,3.04053 -0.0902,3.98596 -0.28613,6.99287 -0.58391,14.00693 -1.5577,20.93267 -0.13876,0.81227 -0.26269,1.62779 -0.41625,2.43683 -0.22173,1.16821 -0.58,2.70212 -0.87458,3.86165 -0.25984,1.02272 -0.52549,2.01834 -0.86041,3.0126 -0.0767,0.22787 -0.17343,0.44701 -0.26014,0.67052 z" />
    <path
       style="opacity:0.281879;fill:#333333;fill-opacity:1;stroke:none;stroke-width:0.260822;stroke-dasharray:none"
       id="path20"
       d="m 160.74951,174.89878 c -1.84309,0.7734 1.60879,2.34667 1.69425,2.40216 0.27739,0.0944 0.5503,0.20658 0.83219,0.28323 0.73767,0.2006 1.55234,0.32657 2.30557,0.40286 0.63739,0.0645 1.60063,0.11669 2.25398,0.0665 0.29022,-0.0222 0.57607,-0.09 0.86411,-0.13519 0.21153,-0.0866 0.44096,-0.13229 0.6346,-0.25983 0.44139,-0.2907 0.60639,-0.8445 0.38152,-1.35371 -0.19102,-0.43262 -0.44106,-0.57591 -0.775,-0.86404 -1.279,-0.87012 -2.35516,-1.58825 -3.84594,-1.6641 -0.57174,-0.0291 -1.46958,0.0395 -2.0168,0.0704 -1.93769,0.16005 -3.89074,0.47497 -5.70183,1.27663 -0.2769,0.17922 -0.6225,0.36367 -0.78375,0.69488 -0.0314,0.0645 -0.0366,0.14068 -0.0549,0.21101 0,0 1.50095,0.88292 1.50095,0.88292 v 0 c 0.003,-0.0477 -0.008,-0.0993 0.0112,-0.143 0.12375,-0.30804 0.46288,-0.47237 0.6983,-0.63884 1.76952,-0.83495 3.69507,-1.15123 5.60757,-1.27241 0.9044,-0.0301 1.81214,-0.0964 2.70688,0.0968 0.21436,0.0462 0.42697,0.10439 0.63551,0.17602 0.19399,0.0665 0.70462,0.40514 0.57006,0.23772 -0.2238,-0.27847 -0.57157,-0.3968 -0.85736,-0.59521 0.36203,0.27192 0.8863,0.59283 0.94199,1.14453 0.0631,0.62523 -0.55448,0.84259 -0.96744,0.98104 -0.27709,0.0442 -0.55197,0.11072 -0.83122,0.1328 -1.40978,0.11174 -3.18871,-0.10483 -4.54504,-0.53106 -0.28604,-0.0899 -0.55941,-0.22281 -0.83912,-0.33422 2.07466,1.39293 0.47556,0.49155 0.52407,0.10283 0.0259,-0.20762 0.33447,-0.25376 0.46542,-0.30971 z" />
    <path
       style="opacity:0.281879;fill:#333333;fill-opacity:1;stroke:none;stroke-width:0.260822;stroke-dasharray:none"
       id="path21"
       d="m 173.30888,173.90929 c -0.54734,0.0798 -1.40042,0.15783 -1.83543,0.56145 -0.10934,0.1015 -0.1809,0.24381 -0.27135,0.36572 -0.0222,0.18741 -0.0967,0.37619 -0.0666,0.56224 0.17247,1.06344 1.17462,1.82362 1.95339,2.30057 2.57196,1.57515 1.95589,1.26649 4.15802,1.93206 0.56877,0.0945 1.13412,0.21869 1.70629,0.28374 1.01668,0.11563 2.29666,0.13879 3.32313,0.0765 0.84082,-0.051 1.64621,-0.15286 2.45343,-0.41934 0.27668,-0.0914 0.53613,-0.23683 0.8042,-0.35525 0.40955,-0.2885 0.95943,-0.71503 0.76298,-1.35884 -0.12203,-0.39997 -0.48319,-0.63774 -0.79139,-0.82287 -0.71308,-0.42834 -1.44437,-0.81893 -2.16656,-1.22838 -1.14593,-0.43005 -2.33971,-0.66801 -3.53513,-0.85716 -0.71529,-0.11316 -1.86159,-0.26392 -2.59245,-0.30053 -0.40838,-0.0205 -0.8176,-0.004 -1.22638,-0.008 -1.72202,0.0685 -3.46858,0.26277 -5.10137,0.89835 -0.10821,0.0546 -0.2165,0.10917 -0.32474,0.16382 0,0 1.39978,1.01713 1.39978,1.01713 v 0 c 0.0998,-0.0538 0.19963,-0.10772 0.29944,-0.16163 1.58997,-0.65325 3.30121,-0.84984 4.98813,-0.90844 0.40507,0.004 0.81057,-0.007 1.21519,0.0149 0.75503,0.0399 1.83603,0.18106 2.57564,0.30424 0.86921,0.14475 1.6948,0.31205 2.54186,0.56996 0.34636,0.1055 0.68383,0.24339 1.02574,0.3651 -0.20997,-0.17366 -0.49787,-0.2712 -0.62991,-0.52094 -0.10071,-0.19043 0.36244,0.19297 0.52477,0.32204 0.37292,0.29646 0.50757,0.71579 0.16773,1.12854 -0.13314,0.16172 -0.31471,0.26572 -0.47207,0.3986 -0.25393,0.1175 -0.49901,0.26152 -0.7618,0.35251 -1.67311,0.57924 -3.95354,0.56051 -5.67297,0.34496 -0.57352,-0.0719 -1.139,-0.20703 -1.7085,-0.31056 -0.51611,-0.16735 -1.01861,-0.3982 -1.54833,-0.50205 -0.0629,-0.0123 0.0971,0.23633 0.0394,0.20618 -0.70527,-0.36826 -1.7183,-1.17337 -1.9348,-2.08005 -0.0355,-0.14916 0.0175,-0.30783 0.0262,-0.46176 0.0794,-0.1015 0.14256,-0.22191 0.2384,-0.3046 0.43876,-0.3786 1.27587,-0.43771 1.81449,-0.46729 z" />
  </g>
</svg>
