<?xml version="1.0" encoding="UTF-8" standalone="no"?>
<!-- Created with Inkscape (http://www.inkscape.org/) -->

<svg
   width="297mm"
   height="210mm"
   viewBox="0 0 1122.5197 793.70081"
   version="1.1"
   id="svg1"
   inkscape:version="1.3.2 (091e20e, 2023-11-25, custom)"
   sodipodi:docname="culturalMultiband.svg"
   xmlns:inkscape="http://www.inkscape.org/namespaces/inkscape"
   xmlns:sodipodi="http://sodipodi.sourceforge.net/DTD/sodipodi-0.dtd"
   xmlns:xlink="http://www.w3.org/1999/xlink"
   xmlns="http://www.w3.org/2000/svg"
   xmlns:svg="http://www.w3.org/2000/svg">
  <sodipodi:namedview
     id="namedview1"
     pagecolor="#ffffff"
     bordercolor="#000000"
     borderopacity="0.25"
     inkscape:showpageshadow="2"
     inkscape:pageopacity="0.0"
     inkscape:pagecheckerboard="0"
     inkscape:deskcolor="#d1d1d1"
     inkscape:document-units="mm"
     inkscape:zoom="0.80715397"
     inkscape:cx="708.04335"
     inkscape:cy="434.86127"
     inkscape:window-width="1904"
     inkscape:window-height="1113"
     inkscape:window-x="-2"
     inkscape:window-y="28"
     inkscape:window-maximized="0"
     inkscape:current-layer="g37" />
  <defs
     id="defs1">
    <marker
       style="overflow:visible"
       id="ArrowWideHeavy"
       refX="0"
       refY="0"
       orient="auto-start-reverse"
       inkscape:stockid="Wide, heavy arrow"
       markerWidth="1"
       markerHeight="1"
       viewBox="0 0 1 1"
       inkscape:isstock="true"
       inkscape:collect="always"
       preserveAspectRatio="xMidYMid">
      <path
         style="fill:context-stroke;fill-rule:evenodd;stroke:none"
         d="m 1,0 -3,3 h -2 l 3,-3 -3,-3 h 2 z"
         id="path20" />
    </marker>
    <marker
       style="overflow:visible"
       id="Triangle"
       refX="0"
       refY="0"
       orient="auto-start-reverse"
       inkscape:stockid="Triangle arrow"
       markerWidth="1"
       markerHeight="1"
       viewBox="0 0 1 1"
       inkscape:isstock="true"
       inkscape:collect="always"
       preserveAspectRatio="xMidYMid">
      <path
         transform="scale(0.5)"
         style="fill:context-stroke;fill-rule:evenodd;stroke:context-stroke;stroke-width:1pt"
         d="M 5.77,0 -2.88,5 V -5 Z"
         id="path135" />
    </marker>
    <linearGradient
       id="linearGradient32"
       inkscape:collect="always">
      <stop
         style="stop-color:#4e4e4e;stop-opacity:1;"
         offset="0"
         id="stop32" />
      <stop
         style="stop-color:#4e4e4e;stop-opacity:0;"
         offset="1"
         id="stop33" />
    </linearGradient>
    <linearGradient
       inkscape:collect="always"
       xlink:href="#linearGradient32"
       id="linearGradient37"
       gradientUnits="userSpaceOnUse"
       x1="600.38818"
       y1="496.28201"
       x2="573.52539"
       y2="17.959009" />
  </defs>
  <g
     inkscape:label="Ebene 1"
     inkscape:groupmode="layer"
     id="layer1">
    <g
       id="g37"
       transform="translate(-32.211946,-1.238921)">
      <path
         style="opacity:0.355705;fill:none;fill-opacity:1;stroke:#a1a1a1;stroke-width:21.9213;stroke-dasharray:none;stroke-opacity:1"
         d="M 170.82964,345.68334 V 129.65532 h 846.26376 v 227.56029 l -43.99311,-7.68254 H 776.17982 V 294.00605 H 371.44497 v 52.52446 z"
         id="path35"
         sodipodi:nodetypes="cccccccccc" />
      <path
         id="path31"
         style="opacity:0.355705;fill:url(#linearGradient37);fill-opacity:1;stroke:none;stroke-width:22.2917;stroke-dasharray:none;stroke-opacity:1"
         d="m 152.43164,414.88868 v -8.40234 h -4.99609 c 1.64472,2.81913 3.25596,5.6658 4.99609,8.40234 z" />
      <rect
         style="fill:#cbcbcb;fill-opacity:1;stroke:#000000;stroke-width:0.370394;stroke-dasharray:none"
         id="rect16"
         width="200.61533"
         height="301.36099"
         x="177.83803"
         y="359.18027" />
      <rect
         style="fill:none;stroke:#000000;stroke-width:40.732"
         id="rect1"
         width="843.63562"
         height="308.36942"
         x="172.58174"
         y="352.17188" />
      <path
         style="fill:none;stroke:#000000;stroke-width:40.732"
         d="M 375.82522,363.56053 V 653.5329"
         id="path1" />
      <path
         style="fill:none;stroke:#000000;stroke-width:40.732"
         d="m 791.94871,360.05634 v 297.8568"
         id="path2" />
      <text
         xml:space="preserve"
         style="font-size:22.9752px;fill:#000000;fill-opacity:1;stroke:#000000;stroke-width:1.28082;stroke-dasharray:none"
         x="95.563148"
         y="634.13251"
         id="text2"
         transform="scale(0.87590808,1.1416723)"><tspan
           sodipodi:role="line"
           x="95.563148"
           y="634.13251"
           style="fill:#000000;fill-opacity:1;stroke-width:1.28082"
           id="tspan37">ü0 = Rt 2000</tspan></text>
      <path
         style="fill:#000000;fill-opacity:1;stroke:#000000;stroke-width:3.31465;stroke-dasharray:none"
         d="M 432.76843,366.18868 V 657.91314"
         id="path3" />
      <text
         xml:space="preserve"
         style="font-size:19.5302px;fill:#000000;fill-opacity:1;stroke:#000000;stroke-width:1.08877;stroke-dasharray:none"
         x="294.75839"
         y="717.28326"
         id="text3"><tspan
           sodipodi:role="line"
           id="tspan3"
           x="294.75839"
           y="717.28326"
           style="stroke-width:1.08877">500 n Chr</tspan><tspan
           sodipodi:role="line"
           x="294.75839"
           y="741.69598"
           id="tspan4"
           style="stroke-width:1.08877">his death</tspan></text>
      <text
         xml:space="preserve"
         style="font-size:19.5302px;fill:#000000;fill-opacity:1;stroke:#000000;stroke-width:1.08877;stroke-dasharray:none"
         x="403.38852"
         y="717.28326"
         id="text6"><tspan
           sodipodi:role="line"
           x="403.38852"
           y="717.28326"
           id="tspan6"
           style="stroke-width:1.08877">Rt = 0</tspan><tspan
           sodipodi:role="line"
           x="403.38852"
           y="741.69598"
           style="stroke-width:1.08877"
           id="tspan7">Chr. Geburt</tspan></text>
      <path
         style="fill:#000000;fill-opacity:1;stroke:none;stroke-width:0.528246;stroke-dasharray:none"
         d="M 883.9339,232.52871 274.12615,242.16525 294.8789,221.4125"
         id="path7"
         sodipodi:nodetypes="ccc" />
      <path
         style="fill:#000000;fill-opacity:1;stroke:none;stroke-width:0.528246;stroke-dasharray:none"
         d="m 260.68249,233.6684 39.08435,-21.09862 30.78325,-6.57171 -26.97858,24.21154 24.21155,26.97858 -13.83517,6.91759 z"
         id="path8"
         sodipodi:nodetypes="ccccccc" />
      <text
         xml:space="preserve"
         style="font-size:29.5292px;fill:#000000;fill-opacity:1;stroke:none;stroke-width:1.64619;stroke-dasharray:none"
         x="357.35202"
         y="220.73753"
         id="text8"
         transform="scale(1.0363588,0.96491678)"><tspan
           sodipodi:role="line"
           id="tspan8"
           x="357.35202"
           y="220.73753"
           style="fill:#000000;fill-opacity:1;stroke:none;stroke-width:1.64619">Ct = infinite in Time and Space</tspan></text>
      <path
         style="fill:#000000;fill-opacity:1;stroke:#000000;stroke-width:2.02047;stroke-dasharray:none;stroke-opacity:1"
         d="m 380.16095,193.74217 v 17.29396"
         id="path9" />
      <text
         xml:space="preserve"
         style="font-size:23.251px;fill:#000000;fill-opacity:1;stroke:#000000;stroke-width:1.51685;stroke-dasharray:none"
         x="970.7901"
         y="612.8996"
         id="text9"
         transform="scale(0.84350767,1.1855257)"><tspan
           sodipodi:role="line"
           id="tspan9"
           x="970.7901"
           y="612.8996"
           style="stroke-width:1.51685;stroke-dasharray:none">Jäger und Sammler</tspan></text>
      <text
         xml:space="preserve"
         style="font-size:49.1238px;fill:#000000;fill-opacity:1;stroke:#000000;stroke-width:5.28378;stroke-dasharray:none"
         x="381.66489"
         y="79.146408"
         id="text10"
         transform="scale(0.90334668,1.1069947)"><tspan
           sodipodi:role="line"
           id="tspan10"
           x="381.66489"
           y="79.146408"
           style="stroke-width:5.28378;stroke-dasharray:none">Kulturelles Multiband</tspan></text>
      <path
         style="fill:#000000;fill-opacity:1;stroke:#000000;stroke-width:2.26016;stroke-dasharray:none"
         d="M 1011.8371,495.84399 H 393.34621 l 25.40543,-25.40543 v 47.30667 l -25.40543,-21.90124"
         id="path15"
         sodipodi:nodetypes="ccccc" />
      <rect
         style="opacity:1;fill:#ffffff;fill-opacity:1;stroke:none;stroke-width:5.28378;stroke-dasharray:none;stroke-opacity:1"
         id="rect36"
         width="193.60692"
         height="29.785681"
         x="494.96793"
         y="481.82718" />
      <path
         d="m 501.42153,502.03922 h -1.7454 v -14.44604 h 1.7454 z m 12.1343,-5.00413 h -7.6408 q 0,0.95627 0.28781,1.67114 0.2878,0.70559 0.78914,1.16051 0.48277,0.44564 1.14194,0.66845 0.66846,0.22282 1.46689,0.22282 1.05838,0 2.12605,-0.41778 1.07696,-0.42707 1.53188,-0.83557 h 0.0928 v 1.90324 q -0.88199,0.37136 -1.80111,0.62203 -0.91913,0.25067 -1.93109,0.25067 -2.58098,0 -4.02929,-1.39261 -1.44832,-1.4019 -1.44832,-3.97359 0,-2.54384 1.38333,-4.03857 1.39261,-1.49474 3.65793,-1.49474 2.0982,0 3.23086,1.2255 1.14194,1.2255 1.14194,3.48153 z m -1.69899,-1.3369 q -0.009,-1.37405 -0.6963,-2.12606 -0.67774,-0.75201 -2.07036,-0.75201 -1.40189,0 -2.23746,0.82629 -0.82628,0.82628 -0.93769,2.05178 z m 12.75633,5.16195 q 0,2.63668 -1.19765,3.87146 -1.19764,1.23478 -3.68578,1.23478 -0.82628,0 -1.61543,-0.12069 -0.77986,-0.11141 -1.54115,-0.32494 v -1.78255 h 0.0928 q 0.42706,0.16712 1.35547,0.4085 0.92841,0.25067 1.85682,0.25067 0.89127,0 1.47617,-0.21353 0.5849,-0.21354 0.90984,-0.59418 0.32494,-0.36208 0.4642,-0.87271 0.13926,-0.51062 0.13926,-1.14194 v -0.94698 q -0.78914,0.63132 -1.5133,0.94698 -0.71488,0.30638 -1.82897,0.30638 -1.85681,0 -2.95233,-1.33691 -1.08624,-1.34619 -1.08624,-3.78791 0,-1.33691 0.37136,-2.30245 0.38065,-0.97483 1.03053,-1.68042 0.60347,-0.65917 1.46689,-1.02125 0.86342,-0.37136 1.71755,-0.37136 0.90056,0 1.50403,0.18568 0.61275,0.1764 1.29048,0.54776 l 0.11141,-0.44563 h 1.634 z m -1.74541,-1.67114 v -5.654 q -0.6963,-0.31566 -1.29977,-0.44564 -0.59418,-0.13926 -1.18836,-0.13926 -1.43903,0 -2.26532,0.96554 -0.82628,0.96555 -0.82628,2.8038 0,1.7454 0.61275,2.64596 0.61275,0.90056 2.03321,0.90056 0.7613,0 1.52259,-0.28781 0.77058,-0.29709 1.41118,-0.78915 z m 13.2391,2.85022 h -1.73612 v -1.10481 q -0.2321,0.15783 -0.63132,0.44564 -0.38993,0.27852 -0.76129,0.44563 -0.43635,0.21354 -1.00268,0.3528 -0.56633,0.14854 -1.32763,0.14854 -1.40189,0 -2.37672,-0.92841 -0.97483,-0.9284 -0.97483,-2.36744 0,-1.17908 0.50134,-1.90323 0.51062,-0.73345 1.44832,-1.15123 0.94697,-0.41778 2.2746,-0.56633 1.32762,-0.14854 2.85021,-0.22282 v -0.26924 q 0,-0.59418 -0.21353,-0.98411 -0.20425,-0.38993 -0.59419,-0.61275 -0.37136,-0.21353 -0.89127,-0.2878 -0.51991,-0.0743 -1.08623,-0.0743 -0.68703,0 -1.53188,0.18568 -0.84485,0.1764 -1.74541,0.51991 h -0.0928 v -1.77326 q 0.51063,-0.13926 1.47617,-0.30637 0.96555,-0.16711 1.90324,-0.16711 1.09552,0 1.90324,0.18568 0.817,0.17639 1.41118,0.61275 0.58489,0.42706 0.89127,1.1048 0.30637,0.67774 0.30637,1.68042 z m -1.73612,-2.55313 v -2.88735 q -0.79843,0.0464 -1.88467,0.13926 -1.07695,0.0928 -1.70827,0.26924 -0.75201,0.21354 -1.21621,0.66846 -0.46421,0.44563 -0.46421,1.23478 0,0.89127 0.53848,1.34619 0.53847,0.44564 1.64328,0.44564 0.91912,0 1.68042,-0.3528 0.76129,-0.36208 1.41118,-0.86342 z m 6.86094,2.55313 h -1.74541 v -14.44604 h 1.74541 z m 12.13429,-5.00413 h -7.6408 q 0,0.95627 0.28781,1.67114 0.28781,0.70559 0.78915,1.16051 0.48277,0.44564 1.14194,0.66845 0.66845,0.22282 1.46688,0.22282 1.05839,0 2.12606,-0.41778 1.07695,-0.42707 1.53187,-0.83557 h 0.0928 v 1.90324 q -0.88199,0.37136 -1.80111,0.62203 -0.91912,0.25067 -1.93109,0.25067 -2.58097,0 -4.02929,-1.39261 -1.44832,-1.4019 -1.44832,-3.97359 0,-2.54384 1.38333,-4.03857 1.39261,-1.49474 3.65793,-1.49474 2.0982,0 3.23086,1.2255 1.14194,1.2255 1.14194,3.48153 z m -1.69899,-1.3369 q -0.009,-1.37405 -0.6963,-2.12606 -0.67774,-0.75201 -2.07035,-0.75201 -1.4019,0 -2.23747,0.82629 -0.82628,0.82628 -0.93769,2.05178 z m 16.60923,-6.4153 h -0.0928 q -0.28781,-0.0836 -0.75201,-0.16712 -0.46421,-0.0928 -0.817,-0.0928 -1.12338,0 -1.634,0.50134 -0.50134,0.49206 -0.50134,1.79183 v 0.3528 h 3.1473 v 1.46688 h -3.0916 v 8.90344 h -1.7454 v -8.90344 h -1.17908 v -1.46688 h 1.17908 v -0.34352 q 0,-1.84753 0.91912,-2.83164 0.91912,-0.9934 2.65525,-0.9934 0.58489,0 1.0491,0.0557 0.47349,0.0557 0.86342,0.12997 z m 2.98019,0.64988 h -1.96823 v -1.81039 h 1.96823 z m -0.11141,12.10645 h -1.74541 V 491.6689 h 1.74541 z m 12.12501,0 h -1.74541 v -5.90468 q 0,-0.71488 -0.0836,-1.33691 -0.0835,-0.63132 -0.30637,-0.98411 -0.2321,-0.38993 -0.66845,-0.57561 -0.43636,-0.19497 -1.13266,-0.19497 -0.71488,0 -1.49474,0.35279 -0.77986,0.3528 -1.49474,0.90056 v 7.74293 h -1.7454 V 491.6689 h 1.7454 v 1.15122 q 0.817,-0.67774 1.68971,-1.05838 0.8727,-0.38065 1.79182,-0.38065 1.68042,0 2.56241,1.01196 0.88199,1.01197 0.88199,2.91521 z m 11.41942,0 h -1.73612 v -1.10481 q -0.2321,0.15783 -0.63132,0.44564 -0.38993,0.27852 -0.76129,0.44563 -0.43635,0.21354 -1.00268,0.3528 -0.56633,0.14854 -1.32763,0.14854 -1.40189,0 -2.37672,-0.92841 -0.97483,-0.9284 -0.97483,-2.36744 0,-1.17908 0.50134,-1.90323 0.51062,-0.73345 1.44832,-1.15123 0.94697,-0.41778 2.2746,-0.56633 1.32762,-0.14854 2.85021,-0.22282 v -0.26924 q 0,-0.59418 -0.21353,-0.98411 -0.20425,-0.38993 -0.59419,-0.61275 -0.37136,-0.21353 -0.89127,-0.2878 -0.51991,-0.0743 -1.08624,-0.0743 -0.68702,0 -1.53187,0.18568 -0.84485,0.1764 -1.74541,0.51991 h -0.0928 v -1.77326 q 0.51063,-0.13926 1.47617,-0.30637 0.96555,-0.16711 1.90324,-0.16711 1.09552,0 1.90324,0.18568 0.81699,0.17639 1.41118,0.61275 0.58489,0.42706 0.89127,1.1048 0.30637,0.67774 0.30637,1.68042 z m -1.73612,-2.55313 v -2.88735 q -0.79843,0.0464 -1.88467,0.13926 -1.07695,0.0928 -1.70827,0.26924 -0.75201,0.21354 -1.21622,0.66846 -0.4642,0.44563 -0.4642,1.23478 0,0.89127 0.53848,1.34619 0.53847,0.44564 1.64328,0.44564 0.91912,0 1.68042,-0.3528 0.76129,-0.36208 1.41118,-0.86342 z m 13.76829,2.55313 h -1.74541 v -5.90468 q 0,-0.71488 -0.0835,-1.33691 -0.0836,-0.63132 -0.30638,-0.98411 -0.2321,-0.38993 -0.66845,-0.57561 -0.43635,-0.19497 -1.13266,-0.19497 -0.71487,0 -1.49474,0.35279 -0.77986,0.3528 -1.49473,0.90056 v 7.74293 h -1.74541 V 491.6689 h 1.74541 v 1.15122 q 0.81699,-0.67774 1.6897,-1.05838 0.8727,-0.38065 1.79183,-0.38065 1.68041,0 2.5624,1.01196 0.88199,1.01197 0.88199,2.91521 z m 10.88094,0 h -8.37424 v -1.29049 l 6.04394,-7.62223 h -5.91397 v -1.4576 h 8.08644 v 1.24406 l -6.07179,7.65009 h 6.22962 z m 4.34496,-12.10645 h -1.96823 v -1.81039 h 1.96823 z m -0.11141,12.10645 h -1.74541 V 491.6689 h 1.74541 z m 12.13429,-5.00413 h -7.6408 q 0,0.95627 0.28781,1.67114 0.2878,0.70559 0.78914,1.16051 0.48278,0.44564 1.14194,0.66845 0.66846,0.22282 1.46689,0.22282 1.05839,0 2.12605,-0.41778 1.07696,-0.42707 1.53188,-0.83557 h 0.0928 v 1.90324 q -0.88199,0.37136 -1.80111,0.62203 -0.91913,0.25067 -1.93109,0.25067 -2.58098,0 -4.02929,-1.39261 -1.44832,-1.4019 -1.44832,-3.97359 0,-2.54384 1.38333,-4.03857 1.39261,-1.49474 3.65793,-1.49474 2.0982,0 3.23086,1.2255 1.14194,1.2255 1.14194,3.48153 z m -1.69899,-1.3369 q -0.009,-1.37405 -0.6963,-2.12606 -0.67774,-0.75201 -2.07035,-0.75201 -1.4019,0 -2.23747,0.82629 -0.82628,0.82628 -0.93769,2.05178 z m 10.81595,-2.12606 h -0.0928 q -0.38993,-0.0928 -0.76129,-0.12997 -0.36208,-0.0464 -0.86342,-0.0464 -0.80772,0 -1.55973,0.36208 -0.75201,0.3528 -1.44831,0.91913 v 7.36228 h -1.74541 V 491.6689 h 1.74541 v 1.53187 q 1.03981,-0.83557 1.82896,-1.17908 0.79843,-0.35279 1.62471,-0.35279 0.45492,0 0.65917,0.0279 0.20425,0.0186 0.61275,0.0836 z m 10.24035,8.46709 h -1.74541 v -1.15123 q -0.88199,0.69631 -1.6897,1.06767 -0.80772,0.37136 -1.78255,0.37136 -1.634,0 -2.54384,-0.9934 -0.90984,-1.00268 -0.90984,-2.93377 v -6.73095 h 1.74541 v 5.90467 q 0,0.78915 0.0743,1.35548 0.0743,0.55704 0.31566,0.95626 0.25067,0.4085 0.64989,0.59418 0.39921,0.18568 1.16051,0.18568 0.67774,0 1.47617,-0.35279 0.80771,-0.3528 1.50402,-0.90056 v -7.74292 h 1.74541 z m 12.10645,0 h -1.74541 v -5.90468 q 0,-0.71488 -0.0835,-1.33691 -0.0836,-0.63132 -0.30638,-0.98411 -0.2321,-0.38993 -0.66845,-0.57561 -0.43635,-0.19497 -1.13266,-0.19497 -0.71488,0 -1.49474,0.35279 -0.77986,0.3528 -1.49474,0.90056 v 7.74293 h -1.7454 V 491.6689 h 1.7454 v 1.15122 q 0.817,-0.67774 1.68971,-1.05838 0.8727,-0.38065 1.79183,-0.38065 1.68041,0 2.5624,1.01196 0.88199,1.01197 0.88199,2.91521 z m 11.77221,-1.17908 q 0,2.63668 -1.19765,3.87146 -1.19764,1.23478 -3.68578,1.23478 -0.82628,0 -1.61543,-0.12069 -0.77986,-0.11141 -1.54115,-0.32494 v -1.78255 h 0.0928 q 0.42706,0.16712 1.35547,0.4085 0.92841,0.25067 1.85682,0.25067 0.89127,0 1.47617,-0.21353 0.5849,-0.21354 0.90984,-0.59418 0.32494,-0.36208 0.4642,-0.87271 0.13926,-0.51062 0.13926,-1.14194 v -0.94698 q -0.78914,0.63132 -1.5133,0.94698 -0.71488,0.30638 -1.82897,0.30638 -1.85681,0 -2.95233,-1.33691 -1.08624,-1.34619 -1.08624,-3.78791 0,-1.33691 0.37136,-2.30245 0.38065,-0.97483 1.03054,-1.68042 0.60346,-0.65917 1.46688,-1.02125 0.86342,-0.37136 1.71756,-0.37136 0.90055,0 1.50402,0.18568 0.61275,0.1764 1.29048,0.54776 l 0.11141,-0.44563 h 1.634 z m -1.74541,-1.67114 v -5.654 q -0.6963,-0.31566 -1.29977,-0.44564 -0.59418,-0.13926 -1.18836,-0.13926 -1.43903,0 -2.26532,0.96554 -0.82628,0.96555 -0.82628,2.8038 0,1.7454 0.61275,2.64596 0.61275,0.90056 2.03321,0.90056 0.7613,0 1.52259,-0.28781 0.77058,-0.29709 1.41118,-0.78915 z"
         id="text15"
         style="font-size:19.0138px;stroke:#000000;stroke-width:0.586883"
         aria-label="legale finanzierung" />
      <rect
         style="opacity:1;fill:#ffffff;fill-opacity:1;stroke:none;stroke-width:5.379;stroke-dasharray:none;stroke-opacity:1"
         id="rect37"
         width="149.80444"
         height="28.909632"
         x="826.11456"
         y="482.70325" />
      <text
         xml:space="preserve"
         style="font-size:13.7683px;fill:#000000;fill-opacity:1;stroke:#000000;stroke-width:0.424974;stroke-dasharray:none"
         x="832.11285"
         y="499.00604"
         id="text16"><tspan
           sodipodi:role="line"
           id="tspan16"
           x="832.11285"
           y="499.00604"
           style="stroke-width:0.424974">illegale finanzierung</tspan></text>
      <path
         style="fill:none;fill-opacity:1;stroke:#000000;stroke-width:0.370394;stroke-dasharray:none"
         d="m 169.07754,741.13784 v 20.14914 H 958.3981 v -28.90963"
         id="path16" />
      <path
         style="fill:#cbcbcb;fill-opacity:1;stroke:#000000;stroke-width:0.370394;stroke-dasharray:none"
         d="M 394.22226,761.28698 V 744.64204"
         id="path17" />
      <text
         xml:space="preserve"
         style="fill:none;fill-opacity:1;stroke:#000000;stroke-width:0.370394;stroke-dasharray:none"
         x="486.20743"
         y="780.56006"
         id="text17"><tspan
           sodipodi:role="line"
           id="tspan17"
           x="486.20743"
           y="780.56006">Zeitgeist Deutung</tspan><tspan
           sodipodi:role="line"
           x="486.20743"
           y="795.56006"
           id="tspan18" /></text>
      <text
         xml:space="preserve"
         style="font-size:20.5035px;fill:#4e4e4e;fill-opacity:1;stroke:none;stroke-width:0.632865;stroke-dasharray:none"
         x="213.30246"
         y="406.53781"
         id="text19"><tspan
           sodipodi:role="line"
           x="213.30246"
           y="406.53781"
           style="fill:#4e4e4e;fill-opacity:1;stroke:none;stroke-width:0.632865"
           id="tspan20">Hochkultur</tspan><tspan
           sodipodi:role="line"
           x="213.30246"
           y="432.16718"
           style="fill:#4e4e4e;fill-opacity:1;stroke:none;stroke-width:0.632865"
           id="tspan21">Erzeuger</tspan></text>
      <text
         xml:space="preserve"
         style="fill:#4e4e4e;fill-opacity:1;stroke:none;stroke-width:0.370394;stroke-dasharray:none"
         x="231.27705"
         y="485.33139"
         id="text22"><tspan
           sodipodi:role="line"
           id="tspan22"
           x="231.27705"
           y="485.33139">Tugenden</tspan></text>
      <path
         style="fill:#4e4e4e;fill-opacity:1;stroke:#000000;stroke-width:0.370394;stroke-dasharray:none;stroke-opacity:1"
         d="m 293.47657,482.70325 h 59.57136 l -16.64494,-11.38864 v 20.14913 l 16.64494,-8.76049"
         id="path22" />
      <text
         xml:space="preserve"
         style="fill:#4e4e4e;fill-opacity:1;stroke:none;stroke-width:0.370394;stroke-dasharray:none"
         x="231.27705"
         y="525.33142"
         id="text23"><tspan
           sodipodi:role="line"
           id="tspan23"
           x="231.27705"
           y="525.33142">Sitte</tspan></text>
      <path
         style="fill:#4e4e4e;fill-opacity:1;stroke:#000000;stroke-width:0.370394;stroke-dasharray:none;stroke-opacity:1"
         d="m 293.47657,522.70325 h 59.57136 l -16.64494,-11.38864 v 20.14913 l 16.64494,-8.76049"
         id="path23" />
      <text
         xml:space="preserve"
         style="fill:#4e4e4e;fill-opacity:1;stroke:none;stroke-width:0.370394;stroke-dasharray:none"
         x="231.27705"
         y="565.33142"
         id="text24"><tspan
           sodipodi:role="line"
           id="tspan24"
           x="231.27705"
           y="565.33142">Ästhetik</tspan></text>
      <path
         style="fill:#4e4e4e;fill-opacity:1;stroke:#000000;stroke-width:0.370394;stroke-dasharray:none;stroke-opacity:1"
         d="m 293.47657,562.70325 h 59.57136 l -16.64494,-11.38864 v 20.14913 l 16.64494,-8.76049"
         id="path24" />
      <text
         xml:space="preserve"
         style="fill:#4e4e4e;fill-opacity:1;stroke:none;stroke-width:0.370394;stroke-dasharray:none"
         x="877.15668"
         y="543.57935"
         id="text25"><tspan
           sodipodi:role="line"
           id="tspan25"
           x="877.15668"
           y="543.57935">Tugenden</tspan></text>
      <path
         style="fill:#4e4e4e;fill-opacity:1;stroke:#000000;stroke-width:0.370394;stroke-dasharray:none;stroke-opacity:1"
         d="m 872.17401,540.95115 h -59.57136 l 16.64494,-11.38864 v 20.14913 l -16.64494,-8.76049"
         id="path25" />
      <text
         xml:space="preserve"
         style="fill:#4e4e4e;fill-opacity:1;stroke:none;stroke-width:0.370394;stroke-dasharray:none"
         x="877.15668"
         y="583.57935"
         id="text26"><tspan
           sodipodi:role="line"
           id="tspan26"
           x="877.15668"
           y="583.57935">Ästhetik</tspan></text>
      <path
         style="fill:#4e4e4e;fill-opacity:1;stroke:#000000;stroke-width:0.370394;stroke-dasharray:none;stroke-opacity:1"
         d="m 872.17401,580.95115 h -59.57136 l 16.64494,-11.38864 v 20.14913 l -16.64494,-8.76049"
         id="path26" />
      <text
         xml:space="preserve"
         style="fill:#4e4e4e;fill-opacity:1;stroke:none;stroke-width:0.370394;stroke-dasharray:none"
         x="877.15668"
         y="623.57935"
         id="text27"><tspan
           sodipodi:role="line"
           id="tspan27"
           x="877.15668"
           y="623.57935">Sitten</tspan></text>
      <path
         style="fill:#4e4e4e;fill-opacity:1;stroke:#000000;stroke-width:0.370394;stroke-dasharray:none;stroke-opacity:1"
         d="m 872.17401,620.95115 h -59.57136 l 16.64494,-11.38864 v 20.14913 l -16.64494,-8.76049"
         id="path27" />
      <text
         xml:space="preserve"
         style="fill:#4e4e4e;fill-opacity:1;stroke:#000000;stroke-width:0.370394;stroke-dasharray:none;stroke-opacity:1"
         x="204.11952"
         y="592.20941"
         id="text28"><tspan
           sodipodi:role="line"
           id="tspan28"
           x="204.11952"
           y="592.20941">Form Ausdruck &amp; </tspan><tspan
           sodipodi:role="line"
           x="204.11952"
           y="607.20941"
           id="tspan29">künstlerische Höhe </tspan><tspan
           sodipodi:role="line"
           x="204.11952"
           y="622.20941"
           id="tspan30">gebunden</tspan></text>
      <text
         xml:space="preserve"
         style="fill:#4e4e4e;fill-opacity:1;stroke:#000000;stroke-width:0.370394;stroke-dasharray:none;stroke-opacity:1"
         x="848.89191"
         y="400.35458"
         id="text31"><tspan
           sodipodi:role="line"
           id="tspan31"
           x="848.89191"
           y="400.35458">Wildlife gebunden</tspan></text>
      <text
         xml:space="preserve"
         style="font-size:16px;white-space:pre;inline-size:0;fill:#afdde9;fill-opacity:1;stroke-width:8.60598"
         x="210.61656"
         y="349.37573"
         id="text1"
         transform="translate(-2,6)"><tspan
           id="tspan1"
           x="210.61656"
           y="349.37573"
           style="font-size:16px;fill:#afdde9;fill-opacity:1">Metamoderne</tspan></text>
      <text
         xml:space="preserve"
         style="font-size:16px;white-space:pre;inline-size:5.01331;display:inline;fill:#afdde9;fill-opacity:1;stroke-width:8.60598"
         x="210.61656"
         y="349.37573"
         id="text4"
         transform="translate(318,6)"><tspan
           x="210.61656"
           y="349.37573"
           id="tspan15"><tspan
             dx="0 13.484375 9.7109375 9.96875 9.53125 6.828125 10.125"
             id="tspan12">Moderne</tspan></tspan></text>
      <text
         xml:space="preserve"
         style="font-size:16px;white-space:pre;inline-size:0;fill:#afdde9;fill-opacity:1;stroke-width:8.60598"
         x="210.61656"
         y="349.37573"
         id="text5"
         transform="translate(348,6)"><tspan
           id="tspan5"
           x="210.61656"
           y="349.37573"
           style="font-size:16px;fill:#afdde9;fill-opacity:1">Moderne</tspan></text>
      <text
         xml:space="preserve"
         style="font-size:16px;white-space:pre;inline-size:0;fill:#afdde9;fill-opacity:1;stroke-width:8.60598"
         x="210.61656"
         y="349.37573"
         id="text11"
         transform="translate(642,6)"><tspan
           sodipodi:role="line"
           id="tspan13"
           x="210.61656"
           y="349.37573"><tspan
             id="tspan11"
             x="210.61656"
             y="349.37573"
             style="font-size:16px;fill:#afdde9;fill-opacity:1">Postmoderne</tspan></tspan></text>
      <path
         style="fill:#afdde9;fill-opacity:1;stroke-width:1.80283469;stroke-dasharray:none;stroke:#a1a1a1;stroke-opacity:1;marker-end:url(#Triangle)"
         d="M 381.58767,778.04238 H 184.59923"
         id="path14" />
      <rect
         style="fill:#ffffff;fill-opacity:1;stroke:none;stroke-width:1.65195;stroke-dasharray:none;stroke-opacity:1"
         id="rect14"
         width="110.26396"
         height="17.344894"
         x="218.05009"
         y="769.36993" />
      <text
         xml:space="preserve"
         style="font-size:16px;white-space:pre;inline-size:0;fill:#787878;fill-opacity:1;stroke:none;stroke-width:1.80283;stroke-dasharray:none;stroke-opacity:1"
         x="236.63391"
         y="776.80341"
         id="text14"
         transform="translate(16,6)"><tspan
           id="tspan14"
           x="236.63391"
           y="776.80341"
           style="fill:#787878;fill-opacity:1">Years</tspan></text>
      <path
         style="fill:none;fill-opacity:1;stroke:#a1a1a1;stroke-width:1.80283;stroke-dasharray:none;stroke-opacity:1;marker-end:url(#ArrowWideHeavy)"
         d="M 249.02312,744.59152 116.45857,634.32755"
         id="path18"
         sodipodi:nodetypes="cc" />
      <text
         xml:space="preserve"
         style="font-size:12px;line-height:0;word-spacing:-0.04px;fill:none;fill-opacity:1;stroke:#a1a1a1;stroke-width:0.668976;stroke-dasharray:none;stroke-opacity:1"
         x="48.034683"
         y="576.80341"
         id="text32"><tspan
           style="font-size:12px;line-height:1.4;word-spacing:-0.04px"
           sodipodi:role="line"
           id="tspan81"
           x="48.034683"
           y="576.80341">#These:</tspan><tspan
           style="font-size:12px;line-height:1.4;word-spacing:-0.04px"
           sodipodi:role="line"
           id="tspan82"
           x="48.034683"
           y="593.60339"> in 4 Kasten</tspan><tspan
           sodipodi:role="line"
           x="48.034683"
           y="608.00342"
           id="tspan33"
           style="font-size:12px;line-height:1;word-spacing:-0.04px"> unterteilt</tspan></text>
    </g>
  </g>
</svg>
