<?xml version="1.0" encoding="UTF-8" standalone="no"?>
<!-- Created with Inkscape (http://www.inkscape.org/) -->

<svg
   width="210mm"
   height="297mm"
   viewBox="0 0 210 297"
   version="1.1"
   id="svg1"
   sodipodi:docname="margottWinterstein.svg"
   inkscape:version="1.3.2 (091e20e, 2023-11-25, custom)"
   xmlns:inkscape="http://www.inkscape.org/namespaces/inkscape"
   xmlns:sodipodi="http://sodipodi.sourceforge.net/DTD/sodipodi-0.dtd"
   xmlns="http://www.w3.org/2000/svg"
   xmlns:svg="http://www.w3.org/2000/svg">
  <sodipodi:namedview
     id="namedview1"
     pagecolor="#ffffff"
     bordercolor="#000000"
     borderopacity="0.25"
     inkscape:showpageshadow="2"
     inkscape:pageopacity="0.0"
     inkscape:pagecheckerboard="0"
     inkscape:deskcolor="#d1d1d1"
     inkscape:document-units="mm"
     inkscape:zoom="0.57071493"
     inkscape:cx="530.91304"
     inkscape:cy="578.22213"
     inkscape:window-width="1235"
     inkscape:window-height="905"
     inkscape:window-x="678"
     inkscape:window-y="187"
     inkscape:window-maximized="0"
     inkscape:current-layer="g31" />
  <defs
     id="defs1" />
  <g
     inkscape:label="Ebene 1"
     inkscape:groupmode="layer"
     id="layer1">
    <g
       id="g7"
       transform="matrix(0.43740393,0,0,0.43740393,4.7430541,-1.2693284)">
      <path
         style="fill:#000000;fill-opacity:1;stroke:none;stroke-width:10.777"
         d="M 62.238134,189.149 V 87.822483 H 80.970199 L 93.754966,223.24172 104.24503,87.822483 h 14.42384 v 122.690977 2.2947 C 69.502708,142.00163 49.920045,153.89957 28.023896,149.48344 70.530518,132.92558 134.20381,147.92466 176.71043,147.84437 l -10.49006,-13.76821 c -21.53657,11.1039 -101.37197,2.40397 -141.474619,3.60596 l 0.983443,22.6192 c 30.999084,-17.45651 61.205432,18.74569 92.939676,58.07969 l 10.81788,-10.16225 V 77.692053 H 99.655629 L 93.42715,156.95816 84.248343,77.692053 H 55.40066 V 214.71854 Z"
         id="path1"
         sodipodi:nodetypes="cccccccccccccccccccccc" />
      <path
         style="fill:#000000;fill-opacity:1;stroke:#000000;stroke-width:2.277;stroke-dasharray:none;stroke-opacity:1"
         d="M 64.907284,86.543046 V 186.30182"
         id="path2"
         sodipodi:nodetypes="cc" />
      <ellipse
         style="fill:#000000;fill-opacity:1;stroke:#000000;stroke-width:2.277;stroke-dasharray:none;stroke-opacity:1"
         id="path3"
         cx="138.82948"
         cy="153.41722"
         rx="4.4254966"
         ry="3.2781456" />
      <ellipse
         style="fill:#000000;fill-opacity:1;stroke:#000000;stroke-width:2.277;stroke-dasharray:none;stroke-opacity:1"
         id="path4"
         cx="156.69536"
         cy="154.56456"
         rx="5.5728474"
         ry="4.4254966" />
      <ellipse
         style="fill:#000000;fill-opacity:1;stroke:#000000;stroke-width:2.277;stroke-dasharray:none;stroke-opacity:1"
         id="path5"
         cx="51.794701"
         cy="71.299667"
         rx="3.9337747"
         ry="3.4420531" />
      <ellipse
         style="fill:#000000;fill-opacity:1;stroke:#000000;stroke-width:2.36277;stroke-dasharray:none;stroke-opacity:1"
         id="path6"
         cx="123.58609"
         cy="69.496689"
         rx="4.5465164"
         ry="3.5630722" />
      <ellipse
         style="fill:#000000;fill-opacity:1;stroke:#000000;stroke-width:2.277;stroke-dasharray:none;stroke-opacity:1"
         id="path7"
         cx="138.00992"
         cy="73.922188"
         rx="4.2615891"
         ry="3.7698677" />
    </g>
    <g
       id="g14"
       transform="matrix(0.65382053,0,0,0.65382053,83.963825,-6.7596081)"
       style="fill:#ffffff" />
    <g
       id="g18">
      <path
         id="path8"
         style="stroke:#2d2d2d;stroke-width:2.12499;fill:#2d2d2d;fill-opacity:1"
         d="m 185.61905,87.034775 c 0,32.177815 -18.60012,58.263085 -41.54454,58.263085 -22.94442,0 -41.54455,-26.08527 -41.54455,-58.263085 0,-32.177818 18.60013,-53.500593 41.54455,-53.500588 22.94442,3e-6 41.54454,21.322775 41.54454,53.500588 z"
         sodipodi:nodetypes="sssss" />
      <path
         style="fill:#ffffff;fill-opacity:1;stroke:none;stroke-width:10.777"
         d="M 61.883603,244.10137 62.238134,87.822483 H 80.970199 L 93.754966,223.24172 104.24503,87.822483 h 14.42384 v 122.690977 2.2947 C 69.502708,142.00163 49.920045,153.89957 28.023896,149.48344 70.530518,132.92558 134.20381,147.92466 176.71043,147.84437 l -10.49006,-13.76821 c -21.53657,11.1039 -101.37197,2.40397 -141.474619,3.60596 l 0.983443,22.6192 c 30.999084,-17.45651 61.205432,18.74569 92.939676,58.07969 l 7.5805,-10.16225 V 77.692053 H 99.655629 L 93.42715,156.95816 84.248343,77.692053 H 57.019351 l 0.354531,159.361967 z"
         id="path9"
         sodipodi:nodetypes="cccccccccccccccccccccc"
         transform="matrix(0.65382053,0,0,0.65382053,83.963825,-6.7596081)" />
      <path
         style="fill:#ffffff;fill-opacity:1;stroke:#ffffff;stroke-width:2.277;stroke-dasharray:none;stroke-opacity:1"
         d="M 64.907284,86.543046 65.261815,244.09044"
         id="path10"
         sodipodi:nodetypes="cc"
         transform="matrix(0.65382053,0,0,0.65382053,83.963825,-6.7596081)" />
      <ellipse
         style="fill:#ffffff;fill-opacity:1;stroke:none;stroke-width:2.277;stroke-dasharray:none;stroke-opacity:1"
         id="ellipse10"
         cx="138.82948"
         cy="153.41722"
         rx="4.4254966"
         ry="3.2781456"
         transform="matrix(0.65382053,0,0,0.65382053,83.963825,-6.7596081)" />
      <ellipse
         style="fill:#ffffff;fill-opacity:1;stroke:none;stroke-width:2.277;stroke-dasharray:none;stroke-opacity:1"
         id="ellipse11"
         cx="156.69536"
         cy="154.56456"
         rx="5.5728474"
         ry="4.4254966"
         transform="matrix(0.65382053,0,0,0.65382053,83.963825,-6.7596081)" />
      <ellipse
         style="fill:#ffffff;fill-opacity:1;stroke:none;stroke-width:2.277;stroke-dasharray:none;stroke-opacity:1"
         id="ellipse12"
         cx="55.612343"
         cy="73.419746"
         rx="3.9337747"
         ry="3.4420531"
         transform="matrix(0.65382053,0,0,0.65382053,83.963825,-6.7596081)" />
      <ellipse
         style="fill:#ffffff;fill-opacity:1;stroke:none;stroke-width:2.24129;stroke-dasharray:none;stroke-opacity:1"
         id="ellipse13"
         cx="122.34923"
         cy="69.694855"
         rx="3.8754714"
         ry="3.7612383"
         transform="matrix(0.65382053,0,0,0.65382053,83.963825,-6.7596081)" />
      <circle
         style="fill:#000000;fill-opacity:1;stroke:none;stroke-width:3.48261;stroke-dasharray:none;stroke-opacity:1"
         id="path15"
         cx="94.934502"
         cy="66.354584"
         r="3.5453141"
         transform="matrix(0.65382053,0,0,0.65382053,83.963825,-6.7596081)" />
      <ellipse
         style="fill:#ffffff;fill-opacity:1;stroke:none;stroke-width:3.85478;stroke-dasharray:none;stroke-opacity:1"
         id="path14"
         cx="144.88431"
         cy="35.697186"
         rx="5.3651614"
         ry="5.5969615" />
    </g>
    <g
       id="g24"
       transform="translate(-51.459579,128.88075)">
      <path
         id="path18"
         style="fill:#2d2d2d;fill-opacity:1;stroke:none;stroke-width:2.12499"
         d="m 203.76155,39.83584 a 5.3651614,5.5969615 0 0 0 -5.02605,3.678845 c 1.38648,-0.161607 2.79296,-0.244947 4.21628,-0.244946 2.01416,0 3.99231,0.173511 5.92987,0.49506 a 5.3651614,5.5969615 0 0 0 -5.1201,-3.928959 z m 5.1201,3.928959 a 5.3651614,5.5969615 0 0 1 0.24494,1.668115 5.3651614,5.5969615 0 0 1 -5.36504,5.597074 5.3651614,5.5969615 0 0 1 -5.36505,-5.597074 5.3651614,5.5969615 0 0 1 0.339,-1.918229 c -6.20646,0.723419 -12.00695,3.045385 -17.1018,6.732922 a 2.5719827,2.250485 0 0 1 0.13953,0.731739 2.5719827,2.250485 0 0 1 -2.57194,2.250508 2.5719827,2.250485 0 0 1 -1.01286,-0.185518 c -9.49701,8.629199 -15.8657,22.534574 -16.68167,39.914359 5.45675,-0.08203 11.86939,0.06576 18.70274,0.292489 l -0.0879,-39.478727 h 17.80253 l 4.66018,40.247155 c 0.75045,0.02403 1.49698,0.04754 2.24534,0.06976 l 3.16828,-40.316919 h 17.38757 v 40.545845 c 7.33514,-0.126981 13.93102,-0.543622 19.00349,-1.494999 C 243.45392,73.6095 235.72602,58.653355 224.49362,50.402637 a 2.5338628,2.4591748 0 0 1 -1.6583,0.60048 2.5338628,2.4591748 0 0 1 -2.5337,-2.459282 2.5338628,2.4591748 0 0 1 0.12041,-0.738973 c -3.59808,-1.995239 -7.47306,-3.365067 -11.54038,-4.040063 z m 11.54038,4.040063 c 1.39954,0.776088 2.76178,1.635703 4.07159,2.597775 a 2.5338628,2.4591748 0 0 0 0.87591,-1.858802 2.5338628,2.4591748 0 0 0 -2.53421,-2.459281 2.5338628,2.4591748 0 0 0 -2.41329,1.720308 z m 23.96701,45.018441 c 0.0632,1.298942 0.10697,2.609861 0.10697,3.947046 0,0.763439 -0.0201,1.520034 -0.0408,2.276347 4.8978,0.355219 9.59217,0.600908 13.92266,0.592728 l -6.85849,-9.001517 c -1.79766,0.926843 -4.22353,1.640208 -7.13032,2.185396 z m 0.0661,6.223393 c -6.06488,-0.439864 -12.49426,-1.054549 -19.06964,-1.655713 V 139.1135 l -4.95629,6.64456 c -4.94423,-6.12828 -9.83099,-12.12333 -14.6823,-17.57205 l -1.60714,20.75015 -2.36833,-25.08839 c -6.15095,-6.49952 -12.25299,-11.88962 -18.3472,-15.24662 l -0.0899,39.53351 c 5.84318,4.39842 12.52154,6.8988 19.61741,6.8988 20.53015,0 37.57018,-20.89039 40.93135,-48.3371 a 3.643642,2.8934805 0 0 1 -2.23501,-2.66289 3.643642,2.8934805 0 0 1 2.71405,-2.79311 c 0.0394,-0.7281 0.0728,-1.458329 0.093,-2.193664 z m -0.093,2.193664 c -0.0999,1.84422 -0.25956,3.66375 -0.47904,5.456 a 3.643642,2.8934805 0 0 0 1.4087,0.23048 3.643642,2.8934805 0 0 0 3.6437,-2.89337 3.643642,2.8934805 0 0 0 -3.6437,-2.89336 3.643642,2.8934805 0 0 0 -0.92966,0.10025 z m -61.0278,46.8943 c -1.03116,-0.7762 -2.0319,-1.61893 -3.0086,-2.51044 l 0.0274,12.3424 2.94865,4.60799 z m -3.0086,-2.51044 -0.0858,-38.5961 c -6.06179,-2.6077 -12.12404,-3.03419 -18.22783,-0.39429 1.9846,16.31301 8.79975,30.30633 18.31361,38.99039 z m -18.31361,-38.99039 c -0.2342,-1.92505 -0.40061,-3.88127 -0.49661,-5.86579 -0.11766,-0.0224 -0.23407,-0.0331 -0.35192,-0.0568 0.11231,-0.0437 0.22934,-0.0804 0.3421,-0.1235 -0.0583,-1.263237 -0.0987,-2.533438 -0.0987,-3.817341 0,-1.290545 0.0408,-2.556706 0.0997,-3.811654 -0.82746,0.01244 -1.70382,0.01323 -2.48667,0.03669 l 0.64337,14.788764 c 0.78375,-0.44135 1.56641,-0.81198 2.3487,-1.15032 z m -0.50643,-6.04614 c 0.003,0.0603 0.007,0.1201 0.01,0.18035 5.96506,1.13358 11.70271,0.52627 18.71668,2.836 l -0.016,-7.253304 c -6.65655,0.722723 -12.97385,2.04543 -18.71048,4.236954 z m 16.6827,-47.543354 c 1.10685,-1.005709 2.25755,-1.937086 3.44527,-2.796729 a 2.5719827,2.250485 0 0 0 -2.43241,-1.51877 2.5719827,2.250485 0 0 0 -2.57194,2.250509 2.5719827,2.250485 0 0 0 1.55908,2.06499 z m 26.72292,-9.002552 a 2.3179991,2.3179991 0 0 0 -2.31821,2.318205 2.3179991,2.3179991 0 0 0 2.31821,2.318205 2.3179991,2.3179991 0 0 0 2.31769,-2.318205 2.3179991,2.3179991 0 0 0 -2.31769,-2.318205 z m -21.37803,16.354558 -0.0744,32.953544 c 5.04254,0.180077 10.24614,0.373561 15.48588,0.556555 l -3.16363,-33.510099 z m 27.46499,0 -2.61844,33.803104 c 4.12177,0.103752 8.15592,0.165241 12.04939,0.163815 V 60.396342 Z m -14.19034,35.232475 c -4.53504,-0.04771 -9.00543,0.07266 -13.35526,0.417545 l -0.0202,8.792748 c 5.06976,2.24059 10.84456,6.18492 17.80098,13.31288 l -2.1208,-22.463229 c -0.76737,-0.01685 -1.54054,-0.0519 -2.30477,-0.05994 z m 5.98103,0.155546 1.13636,9.813867 0.7643,-9.727568 c -0.63399,-0.029 -1.26776,-0.06209 -1.90066,-0.0863 z m 5.44721,0.270784 -2.12338,27.408663 c 4.31744,4.96461 9.05364,11.07135 14.31643,18.65055 v -1.50017 -43.661423 c -4.04302,-0.348706 -8.11644,-0.660557 -12.19305,-0.89762 z m 25.37416,5.084963 a 2.8934805,2.1433189 0 0 1 2.89388,2.14302 2.8934805,2.1433189 0 0 1 -2.89388,2.14354 2.8934805,2.1433189 0 0 1 -2.89336,-2.14354 2.8934805,2.1433189 0 0 1 2.89336,-2.14302 z" />
    </g>
    <g
       id="g31"
       transform="translate(-86.693164,85.765965)">
      <path
         id="path25"
         style="fill:#154455;fill-opacity:1;stroke:none;stroke-width:2.12499"
         d="m 185.61905,87.034775 c 0,32.177815 -18.60012,58.263085 -41.54454,58.263085 -22.94442,0 -41.54455,-26.08527 -41.54455,-58.263085 0,-32.177818 18.60013,-53.500593 41.54455,-53.500588 22.94442,3e-6 41.54454,21.322775 41.54454,53.500588 z"
         sodipodi:nodetypes="sssss" />
      <path
         id="path31"
         style="fill:#db4e07;fill-opacity:1;stroke:none;stroke-width:2.12499;stroke-opacity:1"
         d="M 102.56971 84.838609 C 102.55022 85.566893 102.52992 86.294966 102.52992 87.034857 C 102.52992 119.21264 121.13028 145.29797 144.07467 145.29797 C 167.01907 145.29797 185.61891 119.21264 185.61891 87.034857 C 185.61891 86.294964 185.59861 85.566895 185.57912 84.838609 L 102.56971 84.838609 z " />
      <path
         style="fill:#ffffff;fill-opacity:1;stroke:none;stroke-width:10.777"
         d="M 61.883603,244.10137 62.238134,87.822483 H 80.970199 L 93.754966,223.24172 104.24503,87.822483 h 14.42384 v 122.690977 2.2947 C 69.502708,142.00163 49.920045,153.89957 28.023896,149.48344 70.530518,132.92558 134.20381,147.92466 176.71043,147.84437 l -10.49006,-13.76821 c -21.53657,11.1039 -101.37197,2.40397 -141.474619,3.60596 l 0.983443,22.6192 c 30.999084,-17.45651 61.205432,18.74569 92.939676,58.07969 l 7.5805,-10.16225 V 77.692053 H 99.655629 L 93.42715,156.95816 84.248343,77.692053 H 57.019351 l 0.354531,159.361967 z"
         id="path26"
         sodipodi:nodetypes="cccccccccccccccccccccc"
         transform="matrix(0.65382053,0,0,0.65382053,83.963825,-6.7596081)" />
      <path
         style="fill:#ffffff;fill-opacity:1;stroke:#ffffff;stroke-width:2.277;stroke-dasharray:none;stroke-opacity:1"
         d="M 64.907284,86.543046 65.261815,244.09044"
         id="path27"
         sodipodi:nodetypes="cc"
         transform="matrix(0.65382053,0,0,0.65382053,83.963825,-6.7596081)" />
      <path
         id="ellipse27"
         style="fill:#ffffff;stroke-width:2.277"
         transform="matrix(0.65382053,0,0,0.65382053,83.963825,-6.7596081)"
         d="m 143.25498,153.41722 a 4.4254966,3.2781456 0 0 1 -4.4255,3.27815 4.4254966,3.2781456 0 0 1 -4.42549,-3.27815 4.4254966,3.2781456 0 0 1 4.42549,-3.27814 4.4254966,3.2781456 0 0 1 4.4255,3.27814 z" />
      <path
         id="ellipse28"
         style="fill:#ffffff;stroke-width:2.277"
         transform="matrix(0.65382053,0,0,0.65382053,83.963825,-6.7596081)"
         d="m 162.26821,154.56456 a 5.5728474,4.4254966 0 0 1 -5.57285,4.4255 5.5728474,4.4254966 0 0 1 -5.57285,-4.4255 5.5728474,4.4254966 0 0 1 5.57285,-4.4255 5.5728474,4.4254966 0 0 1 5.57285,4.4255 z" />
      <path
         id="ellipse29"
         style="fill:#ffffff;stroke-width:2.277"
         transform="matrix(0.65382053,0,0,0.65382053,83.963825,-6.7596081)"
         d="m 59.546118,73.419746 a 3.9337747,3.4420531 0 0 1 -3.933775,3.442053 3.9337747,3.4420531 0 0 1 -3.933775,-3.442053 3.9337747,3.4420531 0 0 1 3.933775,-3.442053 3.9337747,3.4420531 0 0 1 3.933775,3.442053 z" />
      <path
         id="ellipse30"
         style="fill:#ffffff;stroke-width:2.24129"
         transform="matrix(0.65382053,0,0,0.65382053,83.963825,-6.7596081)"
         d="m 126.2247,69.694855 a 3.8754714,3.7612383 0 0 1 -3.87547,3.761238 3.8754714,3.7612383 0 0 1 -3.87547,-3.761238 3.8754714,3.7612383 0 0 1 3.87547,-3.761239 3.8754714,3.7612383 0 0 1 3.87547,3.761239 z" />
      <path
         id="circle30"
         style="stroke-width:3.48261"
         transform="matrix(0.65382053,0,0,0.65382053,83.963825,-6.7596081)"
         d="m 98.479816,66.354584 a 3.5453141,3.5453141 0 0 1 -3.545314,3.545314 3.5453141,3.5453141 0 0 1 -3.545314,-3.545314 3.5453141,3.5453141 0 0 1 3.545314,-3.545314 3.5453141,3.5453141 0 0 1 3.545314,3.545314 z" />
      <path
         id="ellipse31"
         style="fill:#ffffff;stroke-width:3.85478"
         d="m 150.24947,35.697186 a 5.3651614,5.5969615 0 0 1 -5.36516,5.596961 5.3651614,5.5969615 0 0 1 -5.36516,-5.596961 5.3651614,5.5969615 0 0 1 5.36516,-5.596962 5.3651614,5.5969615 0 0 1 5.36516,5.596962 z" />
    </g>
  </g>
</svg>
