<?xml version="1.0" encoding="UTF-8" standalone="no"?>
<!-- Created with Inkscape (http://www.inkscape.org/) -->

<svg
   width="148.64413mm"
   height="166.45663mm"
   viewBox="0 0 561.80462 629.12744"
   version="1.1"
   id="svg1"
   sodipodi:docname="mod.svg"
   inkscape:version="1.3.2 (091e20e, 2023-11-25, custom)"
   xmlns:inkscape="http://www.inkscape.org/namespaces/inkscape"
   xmlns:sodipodi="http://sodipodi.sourceforge.net/DTD/sodipodi-0.dtd"
   xmlns="http://www.w3.org/2000/svg"
   xmlns:svg="http://www.w3.org/2000/svg"
   xmlns:rdf="http://www.w3.org/1999/02/22-rdf-syntax-ns#"
   xmlns:cc="http://creativecommons.org/ns#"
   xmlns:dc="http://purl.org/dc/elements/1.1/">
  <sodipodi:namedview
     id="namedview1"
     pagecolor="#ffffff"
     bordercolor="#000000"
     borderopacity="0.25"
     inkscape:showpageshadow="2"
     inkscape:pageopacity="0.0"
     inkscape:pagecheckerboard="0"
     inkscape:deskcolor="#d1d1d1"
     inkscape:document-units="mm"
     inkscape:zoom="1.4400898"
     inkscape:cx="280.88526"
     inkscape:cy="314.56372"
     inkscape:window-width="1920"
     inkscape:window-height="1129"
     inkscape:window-x="-8"
     inkscape:window-y="-8"
     inkscape:window-maximized="1"
     inkscape:current-layer="layer1" />
  <title
     id="title26">special Character For Typing</title>
  <defs
     id="defs1" />
  <g
     id="layer1"
     transform="translate(3.5125595,-181.32099)">
    <path
       id="path33"
       style="fill:none;fill-opacity:1;stroke:#000000;stroke-width:41.8545;stroke-dasharray:none;stroke-opacity:1"
       d="M 275.25892 281.67841 C 252.4701 307.55325 231.08883 334.61973 210.88783 362.68427 C 153.05003 363.553 95.211963 367.20933 37.374159 374.60224 C 60.120228 427.61847 83.490995 480.26006 109.57728 531.27216 C 85.76533 578.76544 64.251606 628.20388 44.807753 679.39325 C 100.95729 688.14462 156.9637 694.61562 212.76283 697.76044 C 231.25974 721.86574 251.12442 745.15019 272.78041 767.36005 C 295.11343 746.42033 315.80561 723.34709 335.36634 698.80341 C 387.43426 696.62801 439.28181 690.91595 490.84291 680.63153 C 478.58849 630.77118 461.77111 582.96377 441.09486 536.89325 C 469.64947 485.92917 496.72436 433.04199 524.29408 380.79755 C 463.23309 373.7647 402.17343 368.21385 341.11244 365.12567 C 320.60493 336.66017 298.65198 308.84541 275.25892 281.67841 z " />
    <text
       xml:space="preserve"
       style="font-size:152.825px;fill:#000000;fill-opacity:1;stroke:#000000;stroke-width:13.86330775;stroke-dasharray:none;stroke-opacity:1"
       x="186.37296"
       y="449.24554"
       id="text34"
       transform="scale(0.79020755,1.2654903)"><tspan
         id="tspan34"
         x="186.37296"
         y="449.24554"
         style="fill:#000000;fill-opacity:1;stroke-width:13.86330775;stroke-dasharray:none">Mod</tspan></text>
    <path
       style="fill:none;fill-opacity:1;stroke:#000000;stroke-width:40.73196822;stroke-dasharray:none;stroke-opacity:1"
       d="m 198.44186,629.83327 136.28827,2.47797"
       id="path34" />
  </g>
  <metadata
     id="metadata26">
    <rdf:RDF>
      <cc:Work
         rdf:about="">
        <dc:title>special Character For Typing</dc:title>
      </cc:Work>
    </rdf:RDF>
  </metadata>
</svg>
