<?xml version="1.0" encoding="UTF-8" standalone="no"?>
<!-- Created with Inkscape (http://www.inkscape.org/) -->

<svg
   width="148.64413mm"
   height="166.45663mm"
   viewBox="0 0 561.80462 629.12744"
   version="1.1"
   id="svg1"
   xmlns="http://www.w3.org/2000/svg"
   xmlns:svg="http://www.w3.org/2000/svg"
   xmlns:rdf="http://www.w3.org/1999/02/22-rdf-syntax-ns#"
   xmlns:cc="http://creativecommons.org/ns#"
   xmlns:dc="http://purl.org/dc/elements/1.1/">
  <title
     id="title26">special Character For Typing</title>
  <defs
     id="defs1" />
  <g
     id="layer1"
     transform="translate(3.5125595,-181.32099)">
    <path
       style="fill:none;stroke:#000000;stroke-width:40.732"
       d="M 191.5537,385.54583 H 67.655277 l 97.879753,97.87975 H 88.718006 V 603.60704 H 207.66049"
       id="path1" />
    <path
       style="fill:none;stroke:#000000;stroke-width:40.732"
       d="M 252.26392,368.20006 V 625.90878"
       id="path2" />
    <path
       style="fill:none;stroke:#000000;stroke-width:14.3788;stroke-dasharray:none"
       d="M 288.19447,368.20006 V 627.14775"
       id="path3" />
    <path
       style="fill:none;stroke:#000000;stroke-width:38.0598;stroke-dasharray:none"
       d="M 316.69112,383.35091 H 208.89944"
       id="path4" />
    <path
       id="path33"
       style="fill:none;fill-opacity:1;stroke:#000000;stroke-width:38.9178;stroke-dasharray:none;stroke-opacity:1"
       d="m 425.405,431.14374 c -7.4025,8.40493 -14.34773,17.19686 -20.90955,26.31305 -18.78743,0.28233 -37.57489,1.46985 -56.36225,3.87129 7.38856,17.22119 14.98009,34.32068 23.45367,50.89085 -7.7348,15.4272 -14.72307,31.48622 -21.03904,48.11395 18.23902,2.8427 36.43147,4.94468 54.55665,5.96621 6.00832,7.83013 12.46091,15.39353 19.49541,22.60793 7.25439,-6.80183 13.97582,-14.29663 20.3297,-22.26913 16.91312,-0.70662 33.7547,-2.5621 50.50326,-5.90275 -3.9806,-16.19607 -9.44338,-31.72525 -16.15964,-46.69032 9.27538,-16.5546 18.07007,-33.73384 27.02551,-50.70433 -19.83439,-2.28446 -39.66829,-4.08756 -59.50261,-5.09068 -6.66142,-9.24643 -13.7924,-18.28147 -21.39111,-27.10607 z" />
  </g>
  <metadata
     id="metadata26">
    <rdf:RDF>
      <cc:Work
         rdf:about="">
        <dc:title>special Character For Typing</dc:title>
      </cc:Work>
    </rdf:RDF>
  </metadata>
</svg>
