<?xml version="1.0" encoding="UTF-8" standalone="no"?>
<!-- Created with Inkscape (http://www.inkscape.org/) -->

<svg
   width="163.09363mm"
   height="237.75912mm"
   viewBox="0 0 163.09363 237.75912"
   version="1.1"
   id="svg1"
   inkscape:version="1.3.2 (091e20e, 2023-11-25, custom)"
   sodipodi:docname="theSignOfMe.svg"
   xmlns:inkscape="http://www.inkscape.org/namespaces/inkscape"
   xmlns:sodipodi="http://sodipodi.sourceforge.net/DTD/sodipodi-0.dtd"
   xmlns="http://www.w3.org/2000/svg"
   xmlns:svg="http://www.w3.org/2000/svg">
  <sodipodi:namedview
     id="namedview1"
     pagecolor="#ffffff"
     bordercolor="#000000"
     borderopacity="0.25"
     inkscape:showpageshadow="2"
     inkscape:pageopacity="0.0"
     inkscape:pagecheckerboard="0"
     inkscape:deskcolor="#d1d1d1"
     inkscape:document-units="mm"
     inkscape:zoom="0.80711279"
     inkscape:cx="343.81812"
     inkscape:cy="458.42415"
     inkscape:window-width="1920"
     inkscape:window-height="1129"
     inkscape:window-x="-8"
     inkscape:window-y="-8"
     inkscape:window-maximized="1"
     inkscape:current-layer="layer1" />
  <defs
     id="defs1" />
  <g
     inkscape:label="Ebene 1"
     inkscape:groupmode="layer"
     id="layer1"
     transform="translate(-14.09192,-27.047378)">
    <path
       id="path8"
       style="fill:#2b99b1;stroke:none;stroke-width:0.477;stroke-dasharray:none;stroke-opacity:0.60305345;fill-opacity:0.39949113"
       d="M 124.47588 27.28974 C 123.47974 27.169906 122.11652 30.555349 122.09876 30.603233 C 120.76824 34.191356 120.27984 38.178993 119.75782 41.902285 C 119.25738 45.471622 118.87555 49.056783 118.43439 52.63393 C 116.39095 72.735391 115.19213 92.927341 115.01909 113.1336 C 115.00983 114.2163 115.0128 115.29918 115.00721 116.38198 C 113.48364 116.32355 111.9628 116.60775 110.44056 116.71787 C 110.23214 116.78793 110.01944 116.8468 109.80959 116.91321 C 110.67681 109.47277 111.42879 102.01882 112.06113 94.553335 C 112.79515 85.88743 113.28922 78.858842 113.56957 70.261795 C 113.66437 67.35664 113.65421 64.449333 113.69669 61.542947 C 113.57806 58.283402 113.60592 54.201981 112.95565 50.883132 C 112.8107 50.143361 112.75177 49.273072 112.21151 48.747345 C 110.00111 46.596428 109.23683 47.01782 108.29599 49.144737 C 107.79649 50.273941 107.52842 51.491863 107.14464 52.665453 C 105.76059 58.322371 105.76517 57.964555 104.63213 64.26061 C 104.16273 66.869003 103.66584 69.47498 103.32317 72.103026 C 102.81587 75.993656 102.44071 79.900989 102.08345 83.808254 C 100.94113 96.301658 100.84162 100.23726 100.12698 113.04988 C 100.02179 115.78613 99.927307 118.52371 99.827255 121.26075 C 96.673909 123.11246 93.539998 125.2514 90.956996 127.21232 C 84.666424 131.98791 78.922287 137.38882 73.442302 143.05322 C 68.058935 125.32102 65.282228 106.98783 61.740174 88.838438 C 60.459728 82.861777 60.354273 82.230544 59.051966 76.628331 C 58.746577 75.314618 58.444741 73.999687 58.109905 72.693171 C 57.88847 71.829149 57.893514 70.849764 57.383334 70.118134 C 56.175275 68.385703 55.733476 68.395058 54.41504 68.13996 C 54.230959 68.284422 54.018416 68.398933 53.862619 68.573525 C 52.369733 70.246508 52.289987 73.473535 52.154713 75.550877 C 52.180513 77.761601 52.125 78.198186 52.414129 80.456521 C 53.027245 85.245546 54.54831 89.857485 55.943112 94.458767 C 60.771586 109.79908 65.693061 125.12144 71.597971 140.08906 C 71.935809 141.22344 72.254579 142.36244 72.612379 143.49195 C 72.644311 143.59275 72.682517 143.69147 72.714698 143.79219 C 70.350004 146.2584 68.020365 148.75874 65.741997 151.30336 C 61.434369 156.35098 60.350997 157.61232 59.046282 159.14836 C 57.684632 148.25189 56.097768 137.36972 53.418719 126.7121 C 51.622231 119.56543 51.076188 118.5538 48.669654 111.93522 C 46.655343 108.24196 44.675861 103.1975 40.440183 101.37204 C 39.966022 101.16769 39.468535 100.97629 38.971022 100.79792 C 40.038781 101.14626 40.979554 101.86244 41.799273 102.63036 C 44.652421 105.30322 45.809169 108.08644 47.721392 111.4939 C 50.289282 118.19161 50.847728 119.14248 52.757777 126.39377 C 55.628175 137.29093 57.276596 148.45389 58.633904 159.63205 C 57.971477 160.41383 55.900945 162.90017 55.156597 163.80027 C 53.300763 160.79846 51.508594 157.76649 49.876816 154.8556 C 48.081221 151.65247 46.439276 148.36529 44.720541 145.12027 C 41.231543 137.65756 39.675637 134.8548 37.021787 127.2857 C 35.029201 121.60261 33.138966 115.34572 33.719663 109.22531 C 33.839418 107.96311 34.270169 106.74997 34.545452 105.51236 C 36.240495 102.32937 35.259419 103.20976 37.943177 101.39013 C 38.266661 101.17081 38.578914 100.67172 38.950868 100.79016 C 38.166532 100.51061 37.367953 100.29803 36.557215 100.3659 C 34.66529 100.52428 33.66674 103.57516 33.10678 104.6907 C 32.847522 105.95361 32.439246 107.19509 32.32905 108.47962 C 31.793141 114.72654 33.719023 120.94693 35.832195 126.72398 C 38.618411 134.34101 40.258468 137.23457 43.873048 144.73477 C 45.615544 147.99203 47.286885 151.28814 49.100636 154.50626 C 50.94027 157.77031 52.869519 160.98804 54.846538 164.17648 C 53.608275 165.67588 52.896553 166.53585 49.389507 170.79519 C 47.0251 173.66679 44.722882 176.5906 42.302084 179.41482 C 38.993463 183.27484 35.314287 187.51201 31.244361 190.69424 C 31.161231 190.75924 31.065991 190.80711 30.981328 190.86994 C 30.229549 190.35753 29.487087 189.83161 28.724619 189.33463 C 26.211087 187.69628 22.541879 185.57297 19.890532 184.35716 C 19.163309 184.02368 18.362941 183.88071 17.599199 183.64247 C 17.06835 183.64847 16.526042 183.55074 16.006532 183.66004 C 14.78292 183.91747 14.25459 185.05039 14.338933 186.1958 C 14.423763 187.34781 14.82159 187.83808 15.348691 188.87316 C 15.712966 189.37506 16.036772 189.90924 16.441647 190.37901 C 18.31183 192.5489 21.314001 194.36399 23.966769 195.21076 C 25.663304 195.7523 27.666668 194.99319 29.243967 194.60614 C 30.307447 193.85986 31.411426 193.16573 32.446355 192.38251 C 36.844303 195.47707 40.237375 198.06742 44.680751 201.39849 C 48.155632 204.05637 51.642103 206.70017 55.117323 209.35821 C 52.093945 214.3884 49.147948 219.46435 46.272901 224.57434 C 46.169917 224.75663 44.083141 228.42689 42.344459 231.50415 C 39.116923 232.92474 36.111685 234.81441 33.500554 237.21956 C 30.962439 239.55747 30.591859 240.43081 28.73237 243.18354 C 27.511961 245.44655 26.418944 247.87012 26.356288 250.49265 C 26.346988 250.88341 26.426166 252.47968 27.0379 252.81603 C 27.759553 253.21281 28.547269 253.46561 29.333884 253.7214 C 29.388971 253.77222 29.433888 253.83394 29.49098 253.88263 C 29.594619 253.971 29.472601 253.85325 29.34887 253.72657 C 29.674106 253.83238 30.001264 253.93399 30.31987 254.05419 C 30.753691 253.72751 31.240553 253.46082 31.621599 253.07389 C 34.260596 250.39412 36.625263 245.79009 38.321966 242.60011 C 38.846123 241.61465 40.953358 237.48784 43.210039 233.08493 C 44.745562 232.3438 46.319533 231.67592 47.960654 231.16257 C 49.804001 230.58595 51.71395 230.25058 53.590801 229.79469 C 59.630299 229.00483 60.858846 228.62595 67.133127 228.74721 C 69.447132 228.79193 71.751143 228.95393 74.048984 229.17664 C 74.077183 229.49799 74.100486 229.82014 74.108412 230.14403 L 74.179725 230.17968 C 74.171731 229.84588 74.148327 229.51397 74.118747 229.18284 C 77.066625 229.47067 80.001387 229.88052 82.920794 230.39621 C 85.420956 232.25283 87.935889 234.08931 90.449533 235.92765 C 90.344108 236.42821 90.247967 236.93055 90.141542 237.43092 C 89.280014 241.92856 88.436246 246.42928 87.55772 250.92364 C 87.024022 253.65392 86.417881 256.36903 85.872552 259.09626 C 85.816772 259.37524 85.780336 259.65737 85.734059 259.93807 L 86.901946 260.58713 C 87.377778 259.6028 87.361813 259.73165 87.697763 258.39915 C 88.261513 256.16311 88.62908 253.9896 89.020163 251.70395 C 89.764908 247.35136 90.545467 242.2776 91.218995 238.00349 C 91.287156 237.54919 91.362686 237.09604 91.431385 236.64182 C 94.086971 238.57967 96.732002 240.5319 99.406092 242.44457 C 108.89083 249.09208 106.67247 247.60127 115.48108 253.55397 C 120.94876 257.24892 126.39479 261.01138 132.17515 264.20965 C 132.48502 264.30615 133.48708 264.91612 133.85825 264.28561 C 134.10949 263.85882 133.50173 262.72694 133.42159 262.55497 C 132.98276 261.61326 131.73497 259.30043 131.34264 258.56141 C 128.22027 252.76553 125.02375 247.01102 121.77889 241.2834 C 121.95011 241.3484 122.15012 241.41344 122.31891 241.47822 C 128.0545 243.67945 124.96927 242.71632 129.98149 244.70903 C 130.82224 245.04328 131.68516 245.31906 132.53689 245.62422 C 133.07115 245.63222 133.6456 245.85269 134.13937 245.64851 C 135.33042 245.15604 134.78609 243.08439 134.6582 242.46524 C 134.39412 241.18683 133.98634 239.94197 133.61227 238.69131 C 132.31998 234.37061 130.80692 230.11688 129.65696 225.75256 C 127.39946 217.4899 126.34751 214.00843 124.44487 205.35742 C 121.44461 191.71564 119.27575 177.90416 117.85923 164.01266 C 119.00599 155.82599 120.24037 147.09862 121.29623 139.72164 C 121.80783 136.03144 122.31178 132.33926 122.81345 128.64686 C 124.18608 127.54149 125.7328 126.34133 127.43901 125.04863 C 128.0968 125.89329 128.75102 126.74078 129.40685 127.58698 C 130.90217 131.06898 130.30371 129.3652 131.26255 132.67762 L 131.33489 132.71173 C 130.39315 129.45596 130.92806 131.12103 129.70967 127.72237 C 129.5121 126.92842 129.48584 126.07088 129.11694 125.3406 C 128.9249 124.96045 128.70189 124.60093 128.46117 124.25385 C 128.50244 124.22293 128.5256 124.20223 128.5671 124.17117 C 131.83976 121.72198 135.20136 119.37787 138.69878 117.26203 C 143.52289 114.34357 149.86538 111.2278 155.49931 109.95498 C 157.64391 109.47047 159.87722 109.54595 162.06635 109.34158 C 163.83064 109.69633 165.64564 109.85748 167.35957 110.40611 C 169.22831 111.0043 171.46602 113.92009 172.18925 115.15518 C 173.97214 118.19989 174.56184 121.56536 174.87952 125.01866 C 175.04499 126.81734 174.96729 128.63016 175.0113 130.4359 C 174.71891 135.02818 174.81679 135.77255 174.00361 140.16295 C 173.76476 141.45254 173.53548 142.75203 173.12717 143.99838 C 172.79697 145.00631 172.24208 145.92625 171.79961 146.89019 L 171.86937 146.92998 C 172.27258 146.05162 174.50415 141.22024 174.74361 140.56035 C 176.14673 136.6937 176.13717 135.51182 176.82979 131.36142 C 176.85689 129.57988 177.01691 127.79516 176.91144 126.01653 C 176.70868 122.59606 176.16871 119.15928 174.45164 116.12049 C 172.4136 112.51368 169.39309 110.53724 165.50438 109.00517 C 163.86874 108.36075 162.04096 108.39764 160.30935 108.09411 C 158.18286 108.36104 156.00371 108.3543 153.9299 108.8951 C 148.46466 110.32028 142.28282 113.62237 137.65647 116.5985 C 134.30383 118.75525 131.08619 121.12351 127.94544 123.57895 C 126.82492 122.21226 125.38517 121.09662 123.94206 120.08563 C 125.6238 107.196 127.1308 94.284276 128.05447 81.314867 C 128.66957 72.678099 128.74427 68.354332 129.03116 59.904804 C 129.13046 52.645957 129.39007 45.378225 129.12004 38.119054 C 129.03554 35.847005 128.93998 32.820617 128.25911 30.535537 C 128.07956 29.932933 127.7013 29.408268 127.42247 28.844684 C 126.4403 28.326292 125.57852 27.422383 124.47588 27.28974 z M 38.950868 100.79016 C 38.957682 100.79259 38.964211 100.79547 38.971022 100.79792 C 38.964485 100.79578 38.958447 100.79227 38.951901 100.79016 C 38.951545 100.79005 38.951224 100.79028 38.950868 100.79016 z M 126.08922 28.910313 C 126.25088 29.160264 126.40677 29.413082 126.50986 29.691144 C 127.36678 32.002299 127.56929 35.062377 127.72323 37.412637 C 128.2032 44.74068 128.05005 52.097782 128.11442 59.434548 C 127.98575 68.473526 128.02578 71.724504 127.50877 81.031163 C 126.78488 94.062765 125.4191 107.04012 123.79892 119.98692 C 123.32299 119.6556 122.84417 119.32496 122.38453 119.01076 C 121.01252 118.07288 119.73857 117.41334 118.34964 116.97057 C 118.00786 115.94831 117.63654 114.93683 117.21431 113.94595 L 116.87634 113.79247 C 117.33112 114.80728 117.72936 115.84522 118.09436 116.89564 C 117.36063 116.68019 116.57845 116.52517 115.72913 116.44502 C 115.77297 109.9985 115.92141 103.54454 116.16993 97.146458 C 116.55519 87.228226 117.23688 76.516896 118.15017 66.62119 C 118.56232 62.155462 119.11345 57.704037 119.59504 53.245262 C 120.54002 46.835145 121.11846 41.525186 122.65894 35.351781 C 123.06763 33.71398 123.94202 30.996867 125.11305 29.515444 C 125.34183 29.226018 125.83243 29.148774 126.08922 28.910313 z M 110.9873 49.08996 C 111.18828 49.43779 111.39132 49.785436 111.49786 50.167931 C 112.43092 53.51765 112.56527 57.779638 112.83938 61.106281 C 113.01653 70.081835 113.16984 71.601313 112.77013 81.176374 C 112.2707 93.139768 111.14058 105.05866 109.71192 116.9437 C 108.08768 117.454 106.43593 117.89393 104.88276 118.58649 C 103.33432 119.27695 101.72082 120.15752 100.10631 121.09538 C 100.22821 118.46983 100.33676 115.84364 100.45202 113.21783 C 100.80042 108.13155 101.07588 103.04011 101.49692 97.959329 C 102.59578 84.699338 104.05676 71.34814 107.29967 58.413939 C 107.71182 56.77009 108.22988 55.154505 108.69493 53.524832 C 109.14082 52.407395 109.48313 51.243039 110.03232 50.172581 C 110.24817 49.751846 110.73279 49.47502 110.9873 49.08996 z M 56.121913 69.228266 C 57.216885 69.889311 56.594293 69.494375 56.027345 69.285627 C 56.06005 69.268066 56.09043 69.247417 56.121913 69.228266 z M 55.459938 69.691803 C 55.544869 70.419774 56.083648 71.110653 56.297096 71.836892 C 56.684627 73.155429 57.031027 74.4859 57.362664 75.819595 C 58.49273 80.364229 59.094524 83.360954 60.104099 88.047789 C 63.352069 104.33609 66.111098 120.75878 70.605266 136.75903 C 65.442676 123.06933 61.186692 109.0638 57.117718 95.014806 C 55.871428 90.457045 54.46289 85.900738 53.910678 81.18981 C 53.649053 78.957901 53.709248 78.523586 53.708623 76.341527 C 53.838651 74.499168 54.061259 71.181326 55.459938 69.691803 z M 157.62734 117.29768 C 157.39807 117.29144 157.16773 117.39685 156.93798 117.43359 C 156.1183 117.80311 155.19455 118.31546 154.68851 119.10067 C 154.6189 119.20869 154.56104 119.32047 154.51074 119.43502 C 154.27709 119.66125 154.06098 119.90306 153.86633 120.15849 C 153.62933 120.4695 153.45495 120.82377 153.24932 121.15636 C 152.80703 122.48025 152.60948 124.11375 153.75885 125.16594 C 154.09896 125.47728 154.66091 125.7201 155.20269 125.91421 C 154.7902 125.68076 154.34427 125.17865 154.195 124.90394 C 153.86373 124.29436 153.79217 123.51309 153.87098 122.8405 C 153.91728 122.44538 154.06017 122.06732 154.15469 121.68088 C 154.16706 121.65963 154.18876 121.62188 154.20275 121.59768 C 154.20174 121.63313 154.20084 121.66997 154.19965 121.70517 L 154.27044 121.74186 C 154.27375 121.65646 154.27136 121.5698 154.26838 121.48347 C 154.55262 120.98924 155.03655 120.14113 155.32774 119.78694 C 155.87544 119.12073 156.68184 118.63959 157.44854 118.27488 L 157.08784 118.03045 C 157.23462 117.96994 157.38356 117.91396 157.52864 117.8501 C 157.78867 117.8171 158.06159 117.83769 158.30896 117.75089 C 158.37696 117.72699 158.31897 117.52411 158.38647 117.54935 C 159.55 117.98417 159.74689 119.7968 159.72954 120.80858 C 159.66874 121.2193 159.64976 121.63876 159.54712 122.04106 C 159.14829 123.60443 158.15399 125.02983 156.54782 125.50959 C 156.21321 125.60958 155.85607 125.60536 155.51016 125.65325 C 155.52594 125.78008 155.68242 126.03995 155.56287 126.03875 C 155.88364 126.14483 156.17804 126.23459 156.38246 126.30799 C 156.69307 126.21959 157.02044 126.17709 157.31419 126.04289 C 158.78901 125.3691 159.70509 123.86537 160.09903 122.34699 C 160.20404 121.94221 160.22967 121.52085 160.29488 121.10779 C 160.33648 119.16497 159.86756 117.69851 157.72553 117.3075 C 157.69283 117.30153 157.6601 117.29857 157.62734 117.29768 z M 155.56287 126.03875 C 155.4452 125.99984 155.32542 125.95818 155.20269 125.91421 C 155.32729 125.98473 155.44883 126.03175 155.55822 126.03927 C 155.56004 126.03939 155.56116 126.03873 155.56287 126.03875 z M 117.1554 117.79481 C 117.5895 117.83298 118.02857 117.92314 118.46643 118.00462 C 118.90402 119.34959 119.30089 120.70891 119.70201 122.06173 C 120.25405 124.32562 121.02102 126.55777 121.43731 128.85512 C 119.4495 130.53851 117.66897 132.13026 115.94203 133.72924 C 115.8985 132.49129 115.83808 131.25371 115.81078 130.01525 C 115.72139 125.96123 115.70641 121.88377 115.72344 117.80256 C 116.20108 117.79011 116.67915 117.75294 117.1554 117.79481 z M 115.00204 117.80618 C 114.98917 121.75332 114.99815 125.70038 115.08627 129.64628 C 115.12156 131.2262 115.19554 132.80486 115.25629 134.38398 C 112.62743 136.83742 109.78322 139.59798 106.24237 142.99017 C 106.3167 142.49061 106.36324 142.19955 106.44029 141.68224 C 107.64386 134.03086 108.6912 126.35814 109.60805 118.66969 C 110.50021 118.4403 111.39769 118.22644 112.28128 117.97206 C 113.18767 117.93909 114.09512 117.85963 115.00204 117.80618 z M 118.69639 118.04131 C 120.507 118.40933 122.27614 119.14971 123.77153 120.2112 C 123.45685 122.72067 123.14738 125.23031 122.81397 127.73736 C 122.41622 128.06791 121.89386 128.47179 121.51585 128.79156 C 121.19024 126.54086 120.56987 124.34877 119.92732 122.16819 C 119.5214 120.79436 119.12787 119.41117 118.69639 118.04131 z M 109.49592 118.69915 C 108.55327 126.36202 107.51816 134.01403 106.36949 141.64503 C 106.2986 142.12096 106.22642 142.59691 106.15555 143.07285 C 105.67401 143.53403 105.45144 143.74601 104.93547 144.23764 C 102.54761 146.80807 101.17119 148.3066 99.325994 150.27913 C 99.399703 143.10997 99.525719 135.75845 99.747157 129.26801 C 99.820086 127.13041 99.932513 124.99425 100.02879 122.85755 C 102.19028 121.61949 104.39024 120.47905 106.48886 119.63966 C 107.46486 119.24929 108.47651 118.96293 109.49592 118.69915 z M 123.91364 120.30835 C 124.07046 120.42329 124.24732 120.51576 124.39682 120.63805 C 124.70255 120.88815 124.59072 121.4207 124.81178 121.74806 C 125.44421 122.68457 126.23129 123.50651 126.93103 124.39389 C 125.4549 125.56061 124.17971 126.60693 122.95401 127.62367 C 123.28393 125.18646 123.59502 122.7471 123.91364 120.30835 z M 116.44019 122.03538 C 117.1255 124.10112 117.76827 126.18077 118.42664 128.25515 C 118.49844 128.55428 118.5698 128.85365 118.64161 129.15277 L 118.71396 129.1874 C 118.64216 128.8882 118.57024 128.58899 118.49847 128.28978 C 118.01646 126.22854 117.38465 124.20905 116.76162 122.18679 L 116.44019 122.03538 z M 99.763693 123.00379 C 99.433478 132.19623 99.176322 141.39216 99.037123 150.58971 C 93.732146 156.26338 89.178293 161.26401 83.427223 168.39534 C 82.733668 166.758 81.988626 165.00065 81.405124 163.60803 C 77.777363 154.94982 76.869162 152.70316 75.292836 148.71954 C 74.778604 147.22184 74.258099 145.72631 73.787501 144.21439 C 79.495663 138.34665 85.519601 132.79015 92.147104 127.95853 C 94.403121 126.31384 97.045875 124.57571 99.763693 123.00379 z M 122.67547 128.75435 C 122.18845 132.39234 121.69991 136.03016 121.18719 139.66376 C 120.41613 145.04881 119.6554 150.43578 118.87415 155.81936 C 118.54474 158.08938 118.1486 160.7628 117.78016 163.25974 C 117.22985 157.75383 116.78689 152.23715 116.47482 146.71139 C 116.31296 142.63932 116.12048 138.56799 115.96891 134.4956 C 117.70297 132.92314 119.55702 131.2974 121.53136 129.67419 C 121.5313 129.69728 121.53141 129.72035 121.53136 129.74344 L 121.60267 129.77961 C 121.60294 129.72396 121.60303 129.66834 121.60319 129.61269 C 121.92958 129.34472 122.33426 129.02969 122.67547 128.75435 z M 165.20776 129.61579 C 163.88517 130.40825 162.75008 131.49313 161.95421 132.82025 C 161.74392 133.1709 161.57849 133.54653 161.39042 133.90959 C 160.74165 135.52271 160.13031 137.55885 161.23694 139.13718 C 161.39617 139.36428 161.62611 139.53194 161.82089 139.72939 C 162.39329 140.00432 162.92702 140.38147 163.5381 140.55414 C 164.679 140.87651 166.1914 138.93524 166.67279 138.16514 C 166.90322 137.79651 167.07778 137.39628 167.2805 137.01173 C 167.77456 135.69028 168.45156 133.34159 167.35957 132.10143 C 167.22092 131.94397 167.01528 131.86094 166.84332 131.74073 C 166.38623 131.57824 165.95109 131.33121 165.47234 131.2529 C 165.24265 131.2153 165.00836 131.32236 164.79073 131.40483 C 163.8927 131.7453 163.32083 132.48021 162.90248 133.30187 C 162.83008 133.43127 162.7578 133.56056 162.68543 133.68996 L 162.75416 133.73027 C 162.85106 133.61595 162.94815 133.50198 163.0451 133.38766 C 163.60716 132.96145 164.16405 132.51835 164.79073 132.18773 C 165.01143 132.0713 165.23507 131.95534 165.47286 131.87974 C 165.69056 131.81054 165.9656 131.89526 166.14724 131.75675 C 166.23594 131.68905 166.08722 131.54184 166.05732 131.43429 C 166.2402 131.54529 166.45573 131.61495 166.60612 131.76708 C 167.77718 132.95158 167.16494 135.34177 166.66762 136.65981 C 166.06464 137.74268 165.47638 138.76507 164.38197 139.43432 C 164.10074 139.6063 163.77565 139.693 163.47247 139.82241 C 163.19622 139.83401 162.88249 139.71786 162.64358 139.85703 C 162.53116 139.92253 162.80202 140.06342 162.88129 140.16657 C 162.67861 139.97906 162.4406 139.8238 162.27306 139.60433 C 161.11628 138.08894 161.72388 136.0264 162.28908 134.42067 C 162.46202 134.05386 162.6126 133.67588 162.80791 133.32048 C 163.52328 132.01873 164.51982 130.84179 165.68525 129.92585 L 165.20776 129.61579 z M 115.28316 135.13535 C 115.43357 138.87418 115.6101 142.6124 115.76117 146.35121 C 116.12296 152.97153 116.67125 159.58113 117.35073 166.17739 C 116.28103 173.42265 115.18415 180.88285 114.31474 187.37558 C 113.66632 192.21797 113.07474 197.06798 112.48901 201.91836 C 111.94057 206.45992 111.38356 211.00089 110.91237 215.55112 C 110.7071 217.53335 110.55232 219.52041 110.38527 221.50631 C 107.27612 216.16 104.17278 210.80892 101.145 205.4153 C 101.03394 204.21575 100.91289 203.01696 100.81014 201.81707 C 100.52501 197.54139 100.17655 193.26939 99.954896 188.98995 C 99.879836 187.54077 99.859753 186.26469 99.798833 184.87237 C 100.24681 182.10664 100.72061 179.34508 101.15586 176.57727 C 103.21126 163.50675 104.30231 156.01854 106.14005 143.66352 C 109.86969 140.17834 112.63475 137.55678 115.28316 135.13535 z M 106.0553 143.7431 C 104.02586 157.37308 101.97547 171.00425 99.789015 184.61244 C 99.435469 176.43504 99.265244 168.91021 99.248479 160.34984 C 99.242633 157.36291 99.290175 153.9853 99.322377 150.70598 C 101.31307 148.62288 103.31851 146.55343 105.29204 144.45468 C 105.61936 144.15004 105.74247 144.03531 106.0553 143.7431 z M 73.09452 144.90737 C 74.438379 148.99326 75.936589 153.02771 77.352658 157.08957 C 79.046353 161.26639 80.6654 165.47459 82.430384 169.62162 C 81.958429 170.21203 81.612227 170.61205 81.110568 171.24633 C 77.457448 175.8652 73.967555 180.60439 70.591314 185.42324 C 67.383753 181.61107 64.09263 177.2435 61.476625 173.47823 C 61.170737 173.03796 60.86353 172.56339 60.556784 172.11346 C 60.377412 170.46857 60.205058 168.82309 60.029168 167.17784 C 59.767687 164.98342 59.493537 162.78738 59.223015 160.59168 C 60.767289 158.74143 62.289562 156.97433 66.63755 151.84234 C 68.747233 149.49403 70.901573 147.18216 73.09452 144.90737 z M 99.031438 151.01552 C 98.91529 158.94121 98.871832 166.86722 99.028854 174.79288 C 99.132333 180.01594 99.262767 183.47511 99.421595 186.94873 C 98.787131 190.86323 98.099637 194.76823 97.433603 198.67721 C 96.710185 197.3409 95.975256 196.0108 95.267327 194.66609 C 93.249503 190.83322 91.311694 186.9586 89.417555 183.06318 C 89.130497 182.31502 88.844078 181.5666 88.554558 180.8199 C 87.17214 177.25452 85.339014 172.91091 83.602406 168.8103 C 86.705235 164.92056 89.870973 161.07904 93.170297 157.34588 C 95.074846 155.19091 97.045724 153.0965 99.031438 151.01552 z M 77.426039 154.89849 C 78.427364 157.43053 79.382394 159.90039 80.748316 163.30521 C 81.413756 164.96395 82.230186 166.96801 83.015878 168.90125 C 82.997791 168.92376 82.98233 168.94276 82.964202 168.96533 C 81.352828 165.19661 79.795949 161.40418 78.360349 157.56138 C 78.055584 156.67156 77.738233 155.78588 77.426039 154.89849 z M 58.806503 161.08364 C 59.038199 163.02749 59.27922 164.9715 59.499484 166.91429 C 59.630645 168.31919 59.756735 169.72455 59.892742 171.12902 C 58.516345 169.08364 57.144274 166.9838 55.798935 164.83173 C 56.543787 163.90242 58.165538 161.85523 58.806503 161.08364 z M 55.494561 165.21414 C 56.947365 167.53046 58.443206 169.81766 59.981625 172.07729 C 60.154277 173.87225 60.336166 175.66641 60.484437 177.46352 C 60.936718 182.94537 61.325886 189.21263 61.526234 194.756 C 61.558145 195.6389 61.592534 197.24912 61.620285 198.85395 C 59.470618 202.22318 57.367981 205.62274 55.306459 209.04712 C 52.225002 206.67296 49.128611 204.31768 46.047592 201.94368 C 41.656677 198.64389 37.307568 195.27326 32.810674 192.11431 C 32.908456 192.03582 33.017831 191.97229 33.113498 191.89106 C 37.390108 188.26015 40.091535 184.70264 43.669443 180.23906 C 45.989129 177.34516 48.221022 174.38184 50.517604 171.46957 C 53.41729 167.79251 54.205453 166.82672 55.494561 165.21414 z M 117.4329 167.02591 C 118.31374 175.40241 119.43233 183.75388 120.85801 192.05488 C 121.59164 196.32646 122.44584 200.57698 123.33486 204.81896 C 125.22152 213.8211 126.01736 216.51626 128.23431 225.07353 C 129.30496 229.3511 130.69004 233.54581 131.77414 237.82004 C 132.03254 238.83878 132.96584 242.02688 132.55394 243.5122 C 132.22783 244.68813 131.10555 244.14231 130.38818 244.03827 C 129.5942 243.74755 128.79218 243.47819 128.00641 243.16597 C 125.2829 242.08381 123.85677 241.37171 121.25747 240.37751 C 118.20622 235.00269 115.1194 229.64772 112.00636 224.30821 C 111.80099 223.95466 111.59741 223.59976 111.39192 223.24625 C 111.49992 220.82752 111.59169 218.40774 111.76399 215.99295 C 112.81299 201.29194 114.73344 186.67767 116.7177 172.07987 C 116.92649 170.54386 117.20333 168.67976 117.4329 167.02591 z M 83.189511 169.32913 C 83.459339 169.99362 83.692636 170.56789 83.964658 171.24219 C 83.693106 170.62181 83.414369 170.00464 83.147136 169.38236 C 83.161236 169.3646 83.175408 169.34689 83.189511 169.32913 z M 82.610218 170.05777 C 82.638619 170.12401 82.663899 170.19155 82.692384 170.25776 C 84.379477 174.17889 86.174761 178.04537 88.025908 181.88341 C 88.608427 183.54372 89.172039 185.21101 89.64183 186.90584 C 90.053273 188.39017 90.254808 189.92471 90.561154 191.43424 C 90.591944 193.37554 91.080786 195.57269 89.709527 197.2773 C 89.071579 198.07033 88.320443 198.36569 87.515862 198.41004 C 87.470185 198.22787 87.425896 198.04543 87.379953 197.86331 L 86.986179 197.67262 C 87.047698 197.91099 87.109912 198.14903 87.171697 198.38731 C 86.505027 198.36875 85.814329 198.23492 85.115492 198.04366 C 83.642198 197.64046 82.366839 196.80362 81.164312 195.86188 C 81.089899 195.50392 81.019529 195.14509 80.943137 194.78753 L 80.622226 194.63198 C 80.6839 194.94558 80.748755 195.25856 80.811362 195.57198 C 79.911298 194.8434 79.032776 194.07576 78.169663 193.39691 C 76.449478 191.67185 74.644485 190.02783 73.009254 188.22204 C 72.771318 187.95928 72.521549 187.65134 72.280616 187.37868 C 72.241341 187.19918 72.205081 187.0191 72.165378 186.83969 L 71.82173 186.67278 C 71.841776 186.75324 71.859659 186.83414 71.879607 186.91462 C 71.568182 186.55774 71.257677 186.20066 70.94323 185.83045 C 74.670196 180.45514 78.556927 175.19388 82.610218 170.05777 z M 60.660137 173.08239 C 62.533273 175.79839 64.449822 178.48348 66.464951 181.09431 C 67.70775 182.70449 68.992535 184.2827 70.305543 185.83665 C 69.325402 187.24003 68.345835 188.64403 67.386341 190.06172 L 67.290223 190.01573 C 67.30165 190.06163 67.31195 190.10778 67.323296 190.1537 C 65.774517 192.4436 64.248519 194.74883 62.749415 197.07214 C 62.708001 196.48022 62.675935 195.93604 62.63211 195.31359 C 62.189751 189.03087 61.796176 184.15848 61.165016 177.80355 C 61.008591 176.22856 60.830573 174.65593 60.660137 173.08239 z M 18.823414 185.13127 C 19.067522 185.13916 19.312799 185.15849 19.555669 185.15504 C 20.272288 185.37233 20.991231 185.58149 21.705409 185.80668 C 22.086237 185.92676 22.489081 186.00051 22.840223 186.19064 C 25.312089 187.52904 28.170482 189.43411 30.612875 191.11643 C 29.527916 191.87076 28.366521 192.51655 27.24874 193.22431 C 17.94352 195.23261 30.304415 192.83381 22.000481 193.66511 C 21.865398 193.67861 22.188703 194.12495 22.06611 194.06664 C 20.223026 193.18992 18.838799 191.56127 17.697901 189.93201 C 17.181525 188.9537 16.808061 188.50237 16.689177 187.4164 C 16.577379 186.39514 16.993155 185.4029 18.098394 185.17571 C 18.336314 185.12681 18.579307 185.12338 18.823414 185.13127 z M 70.654876 186.24645 C 71.089485 186.75539 71.511785 187.27505 71.957122 187.77452 C 72.012267 187.83637 72.073668 187.89235 72.129204 187.95384 C 73.186476 192.31408 74.112517 196.7012 74.960556 201.10755 C 76.158218 207.48426 77.369716 213.86324 78.906568 220.16892 C 79.602118 223.02276 80.302389 225.54329 81.066643 228.36222 L 81.13899 228.39684 C 80.375107 225.57948 79.67358 223.05557 78.978399 220.20355 C 77.441417 213.89797 76.230512 207.51933 75.032903 201.14269 C 74.209482 196.864 73.396849 192.58255 72.482154 188.32229 C 73.940514 189.89768 75.497809 191.38047 77.002292 192.91271 C 78.581832 194.18224 79.733567 195.17808 80.91058 196.06393 C 81.651662 199.74629 82.447101 203.41794 83.224651 207.09272 C 84.815225 214.98774 86.741157 222.80773 88.733359 230.60911 C 88.756948 230.70029 88.779113 230.7918 88.802605 230.883 C 86.607052 230.39058 84.408805 229.90593 82.19629 229.50117 C 79.117602 227.209 76.035243 224.92184 72.975664 222.60392 C 71.782505 216.26069 70.649848 209.90694 69.86526 203.49604 C 69.233702 199.18878 68.625401 194.86614 67.651958 190.61982 C 68.634235 189.14902 69.649422 187.70135 70.654876 186.24645 z M 99.427796 187.14148 C 99.619407 191.29366 99.857954 195.38933 100.19881 201.51011 C 100.2658 202.38765 100.35961 203.26385 100.42877 204.14148 C 99.444551 202.37787 98.477948 200.6048 97.515768 198.82914 C 98.161885 194.93471 98.792869 191.03774 99.427796 187.14148 z M 91.178171 188.25769 C 93.140529 192.13144 95.173386 195.96875 97.241367 199.78826 C 95.892056 207.66612 94.514557 215.53873 92.987363 223.38423 C 91.893067 218.35501 90.917985 213.30074 89.844919 208.26681 C 89.188674 205.29646 88.490245 202.33732 87.758225 199.38518 C 89.029416 199.57997 90.329158 199.37112 91.233465 198.26483 C 91.376539 198.0898 91.485525 197.90582 91.591582 197.7212 C 92.30919 199.44396 92.894475 201.22481 93.481389 202.99271 C 94.053008 204.85624 94.664889 206.70538 95.223919 208.57273 L 95.295749 208.60736 C 94.876164 206.78495 94.472211 204.956 93.878264 203.17978 C 93.252709 201.21031 92.643236 199.21038 91.788986 197.32329 C 92.486842 195.71899 92.095403 193.84709 92.032382 192.1789 C 91.743086 190.87305 91.515122 189.551 91.178171 188.25769 z M 67.492795 190.86477 C 68.481473 195.01998 69.164149 199.23855 69.79343 203.4609 C 70.616341 209.84672 71.664989 216.19744 72.867144 222.52072 C 71.419291 221.42365 69.988015 220.30497 68.543377 219.20361 C 68.002326 218.49052 67.437292 217.7966 66.825652 217.14172 L 66.503708 217.00788 C 67.054167 217.58854 67.566948 218.2012 68.058135 218.83102 C 65.024941 216.51717 62.002022 214.19044 58.978069 211.86452 C 58.447177 210.74172 57.906364 209.62393 57.335275 208.52106 L 57.105832 208.4177 C 57.650206 209.48335 58.171588 210.56034 58.686097 211.64076 C 57.761112 210.92918 56.833009 210.22179 55.908489 209.50963 C 57.771248 206.29984 59.677067 203.11628 61.637338 199.96602 C 61.660427 201.7181 61.67369 203.51568 61.64664 204.67581 C 61.63566 205.14673 61.569313 205.61504 61.530885 206.08451 C 61.580655 206.12671 61.629966 206.16946 61.68023 206.21112 C 61.656552 206.2703 61.639694 206.33153 61.61305 206.38992 C 61.57649 206.47002 61.543341 206.55249 61.495745 206.6266 C 61.478235 206.6539 61.388936 206.68281 61.420814 206.68861 C 61.746222 206.74849 62.075725 206.78379 62.404217 206.82452 C 62.485041 206.89209 62.565838 206.95978 62.645029 207.02916 C 62.630751 206.98389 62.601931 206.94629 62.590252 206.90152 C 62.585714 206.88412 62.591016 206.8672 62.587151 206.84984 C 62.752548 206.87025 62.917202 206.89574 63.082211 206.91857 C 63.103851 206.42985 63.151287 205.94116 63.146807 205.45199 C 63.123178 202.87099 62.982121 200.51615 62.815561 198.05813 C 64.342221 195.63924 65.906523 193.24441 67.492795 190.86477 z M 62.645029 207.02916 C 62.670013 207.10836 62.685607 207.19347 62.741147 207.2524 C 62.794473 207.3086 63.02498 207.35756 62.96904 207.30356 C 62.867212 207.20529 62.751427 207.12237 62.645029 207.02916 z M 81.262497 196.33937 C 82.635497 197.336 84.096469 198.17413 86.335056 199.01879 C 86.68045 199.14912 87.046409 199.24263 87.413543 199.32058 C 88.179895 202.26529 88.953679 205.20696 89.646481 208.17121 C 90.747251 213.29659 91.836364 218.42364 92.956357 223.54494 C 92.442 226.18474 91.904508 228.8204 91.365239 231.45557 C 90.535182 231.25921 89.701835 231.08397 88.869268 230.89695 C 88.84754 230.81263 88.826999 230.72803 88.805189 230.64374 C 86.815451 222.8522 84.864598 215.04546 83.337306 207.1475 C 82.656439 203.54294 82.001067 199.93268 81.262497 196.33937 z M 97.332317 199.9531 C 98.401773 201.92687 99.489672 203.89096 100.57863 205.85455 C 101.24463 214.07268 102.01868 222.28837 103.39758 230.42049 C 103.62172 231.74237 103.93064 233.30268 104.25386 234.85278 C 102.34635 234.31062 100.43809 233.77143 98.530177 233.23066 C 96.433674 232.68674 94.321415 232.17187 92.208082 231.66435 C 93.851063 221.08342 95.578788 210.5162 97.332317 199.9531 z M 101.30934 207.18264 C 104.2609 212.48227 107.24424 217.76481 110.24987 223.03386 C 110.15392 224.18352 110.04664 225.33209 109.94498 226.4812 C 109.78446 229.1035 109.61819 231.72575 109.46388 234.34842 C 109.42405 235.02527 109.384 235.70197 109.35174 236.3793 C 108.52577 236.12155 107.44931 235.76871 106.81288 235.57832 C 106.37478 235.44726 105.9322 235.33167 105.49306 235.20418 C 105.15986 233.7533 104.8319 232.28572 104.58459 231.00185 C 103.06762 223.12678 102.08048 215.16309 101.30934 207.18264 z M 55.728655 209.82434 C 56.822093 210.6605 57.918174 211.49313 59.012176 212.32858 C 59.429841 213.21096 59.845443 214.09428 60.265329 214.97544 C 61.901487 218.48879 63.703067 221.91916 65.456227 225.37429 C 65.642498 225.74353 65.829094 226.11247 66.015366 226.48172 L 66.088229 226.51479 C 65.901963 226.14553 65.715359 225.7761 65.52909 225.40685 C 63.794769 221.98881 62.117665 218.54285 60.484437 215.07518 C 60.086735 214.23338 59.693608 213.38913 59.297946 212.54613 C 62.451978 214.9544 65.601394 217.36843 68.764035 219.76533 C 69.226014 220.39541 69.673651 221.03612 70.118991 221.67684 C 71.252317 223.38718 72.428917 225.07889 73.314145 226.93492 L 73.387009 226.96799 C 72.529242 225.1677 71.520104 223.44136 70.393393 221.79621 C 70.004193 221.23039 69.612627 220.66483 69.211036 220.10639 C 70.456408 221.04979 71.698342 221.99752 72.945692 222.93826 C 73.12829 223.89314 73.31392 224.84748 73.503281 225.80114 C 73.676845 226.62058 73.831802 227.44191 73.944597 228.26817 C 71.210545 227.96036 68.464911 227.75916 65.707891 227.69715 C 59.47964 227.55706 58.038569 227.94531 52.022421 228.6852 C 50.115515 229.12865 48.175202 229.44661 46.30184 230.01535 C 45.669426 230.20734 45.061355 230.46106 44.442005 230.68714 C 45.573261 228.47827 47.238504 225.24336 47.284209 225.15415 C 49.559014 220.77795 51.94505 216.46037 54.385585 212.17406 C 55.121722 214.51056 55.896265 216.83446 56.679501 219.15555 C 57.44848 221.47352 58.367138 223.73561 59.349106 225.97012 L 59.42197 226.00319 C 58.443193 223.77645 57.55464 221.51162 56.782854 219.20412 C 55.987497 216.80025 55.225394 214.38586 54.509608 211.95702 C 54.91526 211.24568 55.318336 210.53297 55.728655 209.82434 z M 50.892258 219.98961 C 51.654315 222.03697 52.338016 224.11461 52.984636 226.20111 C 53.062356 226.46873 53.140493 226.73603 53.218214 227.00365 L 53.290561 227.03827 C 53.212841 226.77063 53.134699 226.50285 53.056983 226.23522 C 52.470572 224.18705 51.888328 222.13751 51.18423 220.12552 L 50.892258 219.98961 z M 73.053696 223.0194 C 75.889268 225.15767 78.737783 227.27831 81.586508 229.39885 C 79.071971 228.95013 76.548177 228.56202 74.01281 228.27489 C 73.901167 227.46002 73.749945 226.65011 73.584929 225.84093 C 73.405991 224.90075 73.231004 223.95986 73.053696 223.0194 z M 111.30666 224.90455 C 114.13539 229.85216 116.94355 234.8122 119.69684 239.80235 C 117.20953 238.90963 114.03572 237.86405 110.95629 236.88522 C 110.96874 236.31137 110.99138 235.46671 110.9997 235.13907 C 111.0675 232.46747 111.12852 229.79574 111.19297 227.12405 C 111.23093 226.38423 111.27283 225.64463 111.30666 224.90455 z M 83.527992 230.49698 C 85.358676 230.82879 87.17454 231.23961 88.993291 231.63592 C 89.259914 232.68646 89.520483 233.73849 89.760686 234.79542 L 89.833033 234.83004 C 89.59136 233.76614 89.328961 232.70729 89.060471 231.64988 C 89.783286 231.80767 90.511559 231.93815 91.232431 232.10411 C 90.991383 233.27716 90.75791 234.45174 90.511545 235.62379 C 88.178229 233.92222 85.846819 232.21822 83.527992 230.49698 z M 92.108863 232.301 C 94.693218 232.90739 97.266461 233.55493 99.824671 234.2275 C 101.3456 234.66711 102.86536 235.11142 104.3877 235.54628 C 104.79452 237.43605 105.24982 239.32895 105.72664 240.94698 C 106.00432 241.88924 106.38916 242.79668 106.72037 243.72149 C 107.43423 244.85725 108.05998 246.48346 110.11552 245.76994 C 110.71176 245.56297 110.52085 244.5668 110.60748 243.94163 C 110.80916 242.48622 110.88877 239.74722 110.94027 237.53634 C 114.03229 238.5255 117.17588 239.59967 120.20792 240.71754 C 123.27452 246.2931 126.27366 251.90548 129.15828 257.57801 C 129.50572 258.28178 130.65382 260.57055 131.04344 261.47648 C 131.18531 261.80635 131.62698 262.74891 131.40001 263.02316 C 131.32171 263.11776 131.14848 263.03802 131.03259 262.99732 C 130.69606 262.87908 130.38339 262.7002 130.059 262.55187 C 129.43688 262.19388 128.80117 261.85919 128.19297 261.47803 C 127.93305 261.31513 127.71489 261.09192 127.45916 260.92251 C 126.0578 259.99418 124.63084 259.10508 123.22324 258.18624 C 119.20812 255.56526 113.55065 251.8273 109.71502 249.21263 C 106.66795 247.1355 103.64851 245.01785 100.61532 242.92051 C 97.547486 240.75292 94.518428 238.53253 91.480995 236.32349 C 91.684303 234.98172 91.901268 233.64208 92.108863 232.301 z M 40.692364 234.4187 C 38.808269 237.74729 37.084952 240.81626 36.614576 241.61258 C 34.845569 244.60739 32.165602 249.25526 29.433619 251.67863 C 29.200139 251.88573 28.91535 252.02459 28.64142 252.17782 C 28.618963 252.00545 28.59428 251.83282 28.589226 251.66054 C 28.512836 249.05638 29.577309 246.61614 30.72553 244.35091 C 32.540573 241.56988 32.849874 240.75721 35.36349 238.389 C 36.993274 236.85349 38.792194 235.55044 40.692364 234.4187 z M 105.6455 235.91008 C 106.49339 236.15604 107.3459 236.38692 108.19005 236.64544 C 108.54493 236.75412 108.9525 236.89668 109.3166 237.01027 C 109.27503 237.85884 109.24184 238.70786 109.17604 239.55482 C 109.08774 240.69089 108.99608 241.83039 108.79518 242.95203 C 108.71782 243.38377 108.3802 243.78519 108.29599 244.20157 C 107.93488 243.36178 107.53704 242.536 107.24437 241.67045 C 106.65201 239.91857 106.12118 237.91415 105.6455 235.91008 z " />
  </g>
</svg>
