<?xml version="1.0" encoding="UTF-8" standalone="no"?>
<!-- Created with Inkscape (http://www.inkscape.org/) -->

<svg
   width="163.09363mm"
   height="237.75912mm"
   viewBox="0 0 163.09363 237.75912"
   version="1.1"
   id="svg1"
   inkscape:version="1.3.2 (091e20e, 2023-11-25, custom)"
   sodipodi:docname="theSignOfMe.svg"
   xmlns:inkscape="http://www.inkscape.org/namespaces/inkscape"
   xmlns:sodipodi="http://sodipodi.sourceforge.net/DTD/sodipodi-0.dtd"
   xmlns="http://www.w3.org/2000/svg"
   xmlns:svg="http://www.w3.org/2000/svg">
  <sodipodi:namedview
     id="namedview1"
     pagecolor="#ffffff"
     bordercolor="#000000"
     borderopacity="0.25"
     inkscape:showpageshadow="2"
     inkscape:pageopacity="0.0"
     inkscape:pagecheckerboard="0"
     inkscape:deskcolor="#d1d1d1"
     inkscape:document-units="mm"
     inkscape:zoom="0.80711279"
     inkscape:cx="343.81812"
     inkscape:cy="458.42415"
     inkscape:window-width="1920"
     inkscape:window-height="1129"
     inkscape:window-x="-8"
     inkscape:window-y="-8"
     inkscape:window-maximized="1"
     inkscape:current-layer="layer1" />
  <defs
     id="defs1" />
  <g
     inkscape:label="Ebene 1"
     inkscape:groupmode="layer"
     id="layer1"
     transform="translate(-14.09192,-27.047378)">
    <path
       id="path8"
       style="fill:#2b99b1;fill-opacity:0.399491;stroke:none;stroke-width:0.477;stroke-dasharray:none;stroke-opacity:0.603053"
       d="m 124.47588,27.28974 c -0.99614,-0.119834 -2.35936,3.265609 -2.37712,3.313493 -1.33052,3.588123 -1.81892,7.57576 -2.34094,11.299052 -0.50044,3.569337 -0.88227,7.154498 -1.32343,10.731645 -2.04344,20.101461 -3.24226,40.293411 -3.4153,60.49967 -0.009,1.0827 -0.006,2.16558 -0.0119,3.24838 -1.52357,-0.0584 -3.04441,0.22577 -4.56665,0.33589 -0.20842,0.0701 -0.42112,0.12893 -0.63097,0.19534 0.86722,-7.44044 1.6192,-14.89439 2.25154,-22.359875 0.73402,-8.665905 1.22809,-15.694493 1.50844,-24.29154 0.0948,-2.905155 0.0846,-5.812462 0.12712,-8.718848 -0.11863,-3.259545 -0.0908,-7.340966 -0.74104,-10.659815 -0.14495,-0.739771 -0.20388,-1.61006 -0.74414,-2.135787 -2.2104,-2.150917 -2.97468,-1.729525 -3.91552,0.397392 -0.4995,1.129204 -0.76757,2.347126 -1.15135,3.520716 -1.38405,5.656918 -1.37947,5.299102 -2.51251,11.595157 -0.4694,2.608393 -0.96629,5.21437 -1.30896,7.842416 -0.5073,3.89063 -0.88246,7.797963 -1.23972,11.705228 -1.14232,12.493404 -1.24183,16.429006 -1.95647,29.241626 -0.10519,2.73625 -0.199673,5.47383 -0.299725,8.21087 -3.153346,1.85171 -6.287257,3.99065 -8.870259,5.95157 -6.290572,4.77559 -12.034709,10.1765 -17.514694,15.8409 -5.383367,-17.7322 -8.160074,-36.06539 -11.702128,-54.214782 -1.280446,-5.976661 -1.385901,-6.607894 -2.688208,-12.210107 -0.305389,-1.313713 -0.607225,-2.628644 -0.942061,-3.93516 -0.221435,-0.864022 -0.216391,-1.843407 -0.726571,-2.575037 -1.208059,-1.732431 -1.649858,-1.723076 -2.968294,-1.978174 -0.184081,0.144462 -0.396624,0.258973 -0.552421,0.433565 -1.492886,1.672983 -1.572632,4.90001 -1.707906,6.977352 0.0258,2.210724 -0.02971,2.647309 0.259416,4.905644 0.613116,4.789025 2.134181,9.400964 3.528983,14.002246 4.828474,15.340313 9.749949,30.662673 15.654859,45.630293 0.337838,1.13438 0.656608,2.27338 1.014408,3.40289 0.03193,0.1008 0.07014,0.19952 0.102319,0.30024 -2.364694,2.46621 -4.694333,4.96655 -6.972701,7.51117 -4.307628,5.04762 -5.391,6.30896 -6.695715,7.845 -1.36165,-10.89647 -2.948514,-21.77864 -5.627563,-32.43626 -1.796488,-7.14667 -2.342531,-8.1583 -4.749065,-14.77688 -2.014311,-3.69326 -3.993793,-8.73772 -8.229471,-10.56318 -0.474161,-0.20435 -0.971648,-0.39575 -1.469161,-0.57412 1.067759,0.34834 2.008532,1.06452 2.828251,1.83244 2.853148,2.67286 4.009896,5.45608 5.922119,8.86354 2.56789,6.69771 3.126336,7.64858 5.036385,14.89987 2.870398,10.89716 4.518819,22.06012 5.876127,33.23828 -0.662427,0.78178 -2.732959,3.26812 -3.477307,4.16822 -1.855834,-3.00181 -3.648003,-6.03378 -5.279781,-8.94467 -1.795595,-3.20313 -3.43754,-6.49031 -5.156275,-9.73533 -3.488998,-7.46271 -5.044904,-10.26547 -7.698754,-17.83457 -1.992586,-5.68309 -3.882821,-11.93998 -3.302124,-18.06039 0.119755,-1.2622 0.550506,-2.47534 0.825789,-3.71295 1.695043,-3.18299 0.713967,-2.3026 3.397725,-4.12223 0.323484,-0.21932 0.635737,-0.71841 1.007691,-0.59997 -0.784336,-0.27955 -1.582915,-0.49213 -2.393653,-0.42426 -1.891925,0.15838 -2.890475,3.20926 -3.450435,4.3248 -0.259258,1.26291 -0.667534,2.50439 -0.77773,3.78892 -0.535909,6.24692 1.389973,12.46731 3.503145,18.24436 2.786216,7.61703 4.426273,10.51059 8.040853,18.01079 1.742496,3.25726 3.413837,6.55337 5.227588,9.77149 1.839634,3.26405 3.768883,6.48178 5.745902,9.67022 -1.238263,1.4994 -1.949985,2.35937 -5.457031,6.61871 -2.364407,2.8716 -4.666625,5.79541 -7.087423,8.61963 -3.308621,3.86002 -6.987797,8.09719 -11.057723,11.27942 -0.08313,0.065 -0.17837,0.11287 -0.263033,0.1757 -0.751779,-0.51241 -1.494241,-1.03833 -2.256709,-1.53531 -2.513532,-1.63835 -6.18274,-3.76166 -8.834087,-4.97747 -0.727223,-0.33348 -1.527591,-0.47645 -2.291333,-0.71469 -0.530849,0.006 -1.073157,-0.0917 -1.592667,0.0176 -1.223612,0.25743 -1.751942,1.39035 -1.667599,2.53576 0.08483,1.15201 0.482657,1.64228 1.009758,2.67736 0.364275,0.5019 0.688081,1.03608 1.092956,1.50585 1.870183,2.16989 4.872354,3.98498 7.525122,4.83175 1.696535,0.54154 3.699899,-0.21757 5.277198,-0.60462 1.06348,-0.74628 2.167459,-1.44041 3.202388,-2.22363 4.397948,3.09456 7.79102,5.68491 12.234396,9.01598 3.474881,2.65788 6.961352,5.30168 10.436572,7.95972 -3.023378,5.03019 -5.969375,10.10614 -8.844422,15.21613 -0.102984,0.18229 -2.18976,3.85255 -3.928442,6.92981 -3.227536,1.42059 -6.232774,3.31026 -8.843905,5.71541 -2.538115,2.33791 -2.908695,3.21125 -4.768184,5.96398 -1.220409,2.26301 -2.313426,4.68658 -2.376082,7.30911 -0.0093,0.39076 0.06988,1.98703 0.681612,2.32338 0.721653,0.39678 1.509369,0.64958 2.295984,0.90537 0.05509,0.0508 0.100004,0.11254 0.157096,0.16123 0.103639,0.0884 -0.01838,-0.0294 -0.14211,-0.15606 0.325236,0.10581 0.652394,0.20742 0.971,0.32762 0.433821,-0.32668 0.920683,-0.59337 1.301729,-0.9803 2.638997,-2.67977 5.003664,-7.2838 6.700367,-10.47378 0.524157,-0.98546 2.631392,-5.11227 4.888073,-9.51518 1.535523,-0.74113 3.109494,-1.40901 4.750615,-1.92236 1.843347,-0.57662 3.753296,-0.91199 5.630147,-1.36788 6.039498,-0.78986 7.268045,-1.16874 13.542326,-1.04748 2.314005,0.0447 4.618016,0.20672 6.915857,0.42943 0.0282,0.32135 0.0515,0.6435 0.05943,0.96739 l 0.07131,0.0357 c -0.008,-0.3338 -0.0314,-0.66571 -0.06098,-0.99684 2.947878,0.28783 5.88264,0.69768 8.802047,1.21337 2.500162,1.85662 5.015095,3.6931 7.528739,5.53144 -0.105425,0.50056 -0.201566,1.0029 -0.307991,1.50327 -0.861528,4.49764 -1.705296,8.99836 -2.583822,13.49272 -0.533698,2.73028 -1.139839,5.44539 -1.685168,8.17262 -0.05578,0.27898 -0.09222,0.56111 -0.138493,0.84181 l 1.167887,0.64906 c 0.475832,-0.98433 0.459867,-0.85548 0.795817,-2.18798 0.56375,-2.23604 0.931317,-4.40955 1.3224,-6.6952 0.744745,-4.35259 1.525304,-9.42635 2.198832,-13.70046 0.06816,-0.4543 0.143691,-0.90745 0.21239,-1.36167 2.655586,1.93785 5.300617,3.89008 7.974707,5.80275 9.484738,6.64751 7.266378,5.1567 16.074988,11.1094 5.46768,3.69495 10.91371,7.45741 16.69407,10.65568 0.30987,0.0965 1.31193,0.70647 1.6831,0.076 0.25124,-0.42679 -0.35652,-1.55867 -0.43666,-1.73064 -0.43883,-0.94171 -1.68662,-3.25454 -2.07895,-3.99356 -3.12237,-5.79588 -6.31889,-11.55039 -9.56375,-17.27801 0.17122,0.065 0.37123,0.13004 0.54002,0.19482 5.73559,2.20123 2.65036,1.2381 7.66258,3.23081 0.84075,0.33425 1.70367,0.61003 2.5554,0.91519 0.53426,0.008 1.10871,0.22847 1.60248,0.0243 1.19105,-0.49247 0.64672,-2.56412 0.51883,-3.18327 -0.26408,-1.27841 -0.67186,-2.52327 -1.04593,-3.77393 -1.29229,-4.3207 -2.80535,-8.57443 -3.95531,-12.93875 -2.2575,-8.26266 -3.30945,-11.74413 -5.21209,-20.39514 -3.00026,-13.64178 -5.16912,-27.45326 -6.58564,-41.34476 1.14676,-8.18667 2.38114,-16.91404 3.437,-24.29102 0.5116,-3.6902 1.01555,-7.38238 1.51722,-11.07478 1.37263,-1.10537 2.91935,-2.30553 4.62556,-3.59823 0.65779,0.84466 1.31201,1.69215 1.96784,2.53835 1.49532,3.482 0.89686,1.77822 1.8557,5.09064 l 0.0723,0.0341 c -0.94174,-3.25577 -0.40683,-1.5907 -1.62522,-4.98936 -0.19757,-0.79395 -0.22383,-1.65149 -0.59273,-2.38177 -0.19204,-0.38015 -0.41505,-0.73967 -0.65577,-1.08675 0.0413,-0.0309 0.0644,-0.0516 0.10593,-0.0827 3.27266,-2.44919 6.63426,-4.7933 10.13168,-6.90914 4.82411,-2.91846 11.1666,-6.03423 16.80053,-7.30705 2.1446,-0.48451 4.37791,-0.40903 6.56704,-0.6134 1.76429,0.35475 3.57929,0.5159 5.29322,1.06453 1.86874,0.59819 4.10645,3.51398 4.82968,4.74907 1.78289,3.04471 2.37259,6.41018 2.69027,9.86348 0.16547,1.79868 0.0878,3.6115 0.13178,5.41724 -0.29239,4.59228 -0.19451,5.33665 -1.00769,9.72705 -0.23885,1.28959 -0.46813,2.58908 -0.87644,3.83543 -0.3302,1.00793 -0.88509,1.92787 -1.32756,2.89181 l 0.0698,0.0398 c 0.40321,-0.87836 2.63478,-5.70974 2.87424,-6.36963 1.40312,-3.86665 1.39356,-5.04853 2.08618,-9.19893 0.0271,-1.78154 0.18712,-3.56626 0.0816,-5.34489 -0.20276,-3.42047 -0.74273,-6.85725 -2.4598,-9.89604 -2.03804,-3.60681 -5.05855,-5.58325 -8.94726,-7.11532 -1.63564,-0.64442 -3.46342,-0.60753 -5.19503,-0.91106 -2.12649,0.26693 -4.30564,0.26019 -6.37945,0.80099 -5.46524,1.42518 -11.64708,4.72727 -16.27343,7.7034 -3.35264,2.15675 -6.57028,4.52501 -9.71103,6.98045 -1.12052,-1.36669 -2.56027,-2.48233 -4.00338,-3.49332 1.68174,-12.88963 3.18874,-25.801354 4.11241,-38.770763 0.6151,-8.636768 0.6898,-12.960535 0.97669,-21.410063 0.0993,-7.258847 0.35891,-14.526579 0.0889,-21.78575 -0.0845,-2.272049 -0.18006,-5.298437 -0.86093,-7.583517 -0.17955,-0.602604 -0.55781,-1.127269 -0.83664,-1.690853 -0.98217,-0.518392 -1.84395,-1.422301 -2.94659,-1.554944 z m -85.525012,73.50042 c 0.0068,0.002 0.01334,0.005 0.02015,0.008 -0.0065,-0.002 -0.01257,-0.006 -0.01912,-0.008 -3.56e-4,-1.1e-4 -6.77e-4,1.2e-4 -0.001,0 z M 126.08922,28.910313 c 0.16166,0.249951 0.31755,0.502769 0.42064,0.780831 0.85692,2.311155 1.05943,5.371233 1.21337,7.721493 0.47997,7.328043 0.32682,14.685145 0.39119,22.021911 -0.12867,9.038978 -0.0886,12.289956 -0.60565,21.596615 -0.72389,13.031602 -2.08967,26.008957 -3.70985,38.955757 -0.47593,-0.33132 -0.95475,-0.66196 -1.41439,-0.97616 -1.37201,-0.93788 -2.64596,-1.59742 -4.03489,-2.04019 -0.34178,-1.02226 -0.7131,-2.03374 -1.13533,-3.02462 l -0.33797,-0.15348 c 0.45478,1.01481 0.85302,2.05275 1.21802,3.10317 -0.73373,-0.21545 -1.51591,-0.37047 -2.36523,-0.45062 0.0438,-6.44652 0.19228,-12.90048 0.4408,-19.298562 0.38526,-9.918232 1.06695,-20.629562 1.98024,-30.525268 0.41215,-4.465728 0.96328,-8.917153 1.44487,-13.375928 0.94498,-6.410117 1.52342,-11.720076 3.0639,-17.893481 0.40869,-1.637801 1.28308,-4.354914 2.45411,-5.836337 0.22878,-0.289426 0.71938,-0.36667 0.97617,-0.605131 z M 110.9873,49.08996 c 0.20098,0.34783 0.40402,0.695476 0.51056,1.077971 0.93306,3.349719 1.06741,7.611707 1.34152,10.93835 0.17715,8.975554 0.33046,10.495032 -0.0693,20.070093 -0.49943,11.963394 -1.62955,23.882286 -3.05821,35.767326 -1.62424,0.5103 -3.27599,0.95023 -4.82916,1.64279 -1.54844,0.69046 -3.16194,1.57103 -4.77645,2.50889 0.1219,-2.62555 0.23045,-5.25174 0.34571,-7.87755 0.3484,-5.08628 0.62386,-10.17772 1.0449,-15.258501 1.09886,-13.259991 2.55984,-26.611189 5.80275,-39.54539 0.41215,-1.643849 0.93021,-3.259434 1.39526,-4.889107 0.44589,-1.117437 0.7882,-2.281793 1.33739,-3.352251 0.21585,-0.420735 0.70047,-0.697561 0.95498,-1.082621 z M 56.121913,69.228266 c 1.094972,0.661045 0.47238,0.266109 -0.09457,0.05736 0.0327,-0.01756 0.06309,-0.03821 0.09457,-0.05736 z m -0.661975,0.463537 c 0.08493,0.727971 0.62371,1.41885 0.837158,2.145089 0.387531,1.318537 0.733931,2.649008 1.065568,3.982703 1.130066,4.544634 1.73186,7.541359 2.741435,12.228194 3.24797,16.288301 6.006999,32.710991 10.501167,48.711241 -5.16259,-13.6897 -9.418574,-27.69523 -13.487548,-41.744224 -1.24629,-4.557761 -2.654828,-9.114068 -3.20704,-13.824996 -0.261625,-2.231909 -0.20143,-2.666224 -0.202055,-4.848283 0.130028,-1.842359 0.352636,-5.160201 1.751315,-6.649724 z M 117.1554,117.79481 c 0.4341,0.0382 0.87317,0.12833 1.31103,0.20981 0.43759,1.34497 0.83446,2.70429 1.23558,4.05711 0.55204,2.26389 1.31901,4.49604 1.7353,6.79339 -1.98781,1.68339 -3.76834,3.27514 -5.49528,4.87412 -0.0435,-1.23795 -0.10395,-2.47553 -0.13125,-3.71399 -0.0894,-4.05402 -0.10437,-8.13148 -0.0873,-12.21269 0.47764,-0.0125 0.95571,-0.0496 1.43196,-0.008 z m -2.15336,0.0114 c -0.0129,3.94714 -0.004,7.8942 0.0842,11.8401 0.0353,1.57992 0.10927,3.15858 0.17002,4.7377 -2.62886,2.45344 -5.47307,5.214 -9.01392,8.60619 0.0743,-0.49956 0.12087,-0.79062 0.19792,-1.30793 1.20357,-7.65138 2.25091,-15.3241 3.16776,-23.01255 0.89216,-0.22939 1.78964,-0.44325 2.67323,-0.69763 0.90639,-0.033 1.81384,-0.11243 2.72076,-0.16588 z m 3.69435,0.23513 c 1.81061,0.36802 3.57975,1.1084 5.07514,2.16989 -0.31468,2.50947 -0.62415,5.01911 -0.95756,7.52616 -0.39775,0.33055 -0.92011,0.73443 -1.29812,1.0542 -0.32561,-2.2507 -0.94598,-4.44279 -1.58853,-6.62337 -0.40592,-1.37383 -0.79945,-2.75702 -1.23093,-4.12688 z m -9.20047,0.65784 c -0.94265,7.66287 -1.97776,15.31488 -3.12643,22.94588 -0.0709,0.47593 -0.14307,0.95188 -0.21394,1.42782 -0.48154,0.46118 -0.70411,0.67316 -1.22008,1.16479 -2.38786,2.57043 -3.76428,4.06896 -5.609476,6.04149 0.07371,-7.16916 0.199725,-14.52068 0.421163,-21.01112 0.07293,-2.1376 0.185356,-4.27376 0.281633,-6.41046 2.16149,-1.23806 4.36145,-2.3785 6.46007,-3.21789 0.976,-0.39037 1.98765,-0.67673 3.00706,-0.94051 z m 14.41772,1.6092 c 0.15682,0.11494 0.33368,0.20741 0.48318,0.3297 0.30573,0.2501 0.1939,0.78265 0.41496,1.11001 0.63243,0.93651 1.41951,1.75845 2.11925,2.64583 -1.47613,1.16672 -2.75132,2.21304 -3.97702,3.22978 0.32992,-2.43721 0.64101,-4.87657 0.95963,-7.31532 z m -7.47345,1.72703 c 0.68531,2.06574 1.32808,4.14539 1.98645,6.21977 0.0718,0.29913 0.14316,0.5985 0.21497,0.89762 l 0.0724,0.0346 c -0.0718,-0.2992 -0.14372,-0.59841 -0.21549,-0.89762 -0.48201,-2.06124 -1.11382,-4.08073 -1.73685,-6.10299 z m -16.676497,0.96841 c -0.330215,9.19244 -0.587371,18.38837 -0.72657,27.58592 -5.304977,5.67367 -9.85883,10.6743 -15.6099,17.80563 -0.693555,-1.63734 -1.438597,-3.39469 -2.022099,-4.78731 -3.627761,-8.65821 -4.535962,-10.90487 -6.112288,-14.88849 -0.514232,-1.4977 -1.034737,-2.99323 -1.505335,-4.50515 5.708162,-5.86774 11.7321,-11.42424 18.359603,-16.25586 2.256017,-1.64469 4.898771,-3.38282 7.616589,-4.95474 z m 22.911777,5.75056 c -0.48702,3.63799 -0.97556,7.27581 -1.48828,10.90941 -0.77106,5.38505 -1.53179,10.77202 -2.31304,16.1556 -0.32941,2.27002 -0.72555,4.94344 -1.09399,7.44038 -0.55031,-5.50591 -0.99327,-11.02259 -1.30534,-16.54835 -0.16186,-4.07207 -0.35434,-8.1434 -0.50591,-12.21579 1.73406,-1.57246 3.58811,-3.1982 5.56245,-4.82141 -6e-5,0.0231 5e-5,0.0462 0,0.0692 l 0.0713,0.0362 c 2.7e-4,-0.0556 3.6e-4,-0.11127 5.2e-4,-0.16692 0.32639,-0.26797 0.73107,-0.583 1.07228,-0.85834 z m -7.39231,6.381 c 0.15041,3.73883 0.32694,7.47705 0.47801,11.21586 0.36179,6.62032 0.91008,13.22992 1.58956,19.82618 -1.0697,7.24526 -2.16658,14.70546 -3.03599,21.19819 -0.64842,4.84239 -1.24,9.6924 -1.82573,14.54278 -0.54844,4.54156 -1.10545,9.08253 -1.57664,13.63276 -0.20527,1.98223 -0.36005,3.96929 -0.5271,5.95519 -3.10915,-5.34631 -6.21249,-10.69739 -9.24027,-16.09101 -0.11106,-1.19955 -0.23211,-2.39834 -0.33486,-3.59823 -0.28513,-4.27568 -0.63359,-8.54768 -0.855244,-12.82712 -0.07506,-1.44918 -0.09514,-2.72526 -0.156063,-4.11758 0.447977,-2.76573 0.921777,-5.52729 1.357027,-8.2951 2.0554,-13.07052 3.14645,-20.55873 4.98419,-32.91375 3.72964,-3.48518 6.4947,-6.10674 9.14311,-8.52817 z m -9.22786,8.60775 c -2.02944,13.62998 -4.07983,27.26115 -6.266285,40.86934 -0.353546,-8.1774 -0.523771,-15.70223 -0.540536,-24.2626 -0.0058,-2.98693 0.0417,-6.36454 0.0739,-9.64386 1.990693,-2.0831 3.996133,-4.15255 5.969663,-6.2513 0.32732,-0.30464 0.45043,-0.41937 0.76326,-0.71158 z m -32.96078,1.16427 c 1.343859,4.08589 2.842069,8.12034 4.258138,12.1822 1.693695,4.17682 3.312742,8.38502 5.077726,12.53205 -0.471955,0.59041 -0.818157,0.99043 -1.319816,1.62471 -3.65312,4.61887 -7.143013,9.35806 -10.519254,14.17691 -3.207561,-3.81217 -6.498684,-8.17974 -9.114689,-11.94501 -0.305888,-0.44027 -0.613095,-0.91484 -0.919841,-1.36477 -0.179372,-1.64489 -0.351726,-3.29037 -0.527616,-4.93562 -0.261481,-2.19442 -0.535631,-4.39046 -0.806153,-6.58616 1.544274,-1.85025 3.066547,-3.61735 7.414535,-8.74934 2.109683,-2.34831 4.264023,-4.66018 6.45697,-6.93497 z m 25.936918,6.10815 c -0.116148,7.92569 -0.159606,15.8517 -0.0026,23.77736 0.103479,5.22306 0.233913,8.68223 0.392741,12.15585 -0.634464,3.9145 -1.321958,7.8195 -1.987992,11.72848 -0.723418,-1.33631 -1.458347,-2.66641 -2.166276,-4.01112 -2.017824,-3.83287 -3.955633,-7.70749 -5.849772,-11.60291 -0.287058,-0.74816 -0.573477,-1.49658 -0.862997,-2.24328 -1.382418,-3.56538 -3.215544,-7.90899 -4.952152,-12.0096 3.102829,-3.88974 6.268567,-7.73126 9.567891,-11.46442 1.904549,-2.15497 3.875427,-4.24938 5.861141,-6.33036 z m -21.605399,3.88297 c 1.001325,2.53204 1.956355,5.0019 3.322277,8.40672 0.66544,1.65874 1.48187,3.6628 2.267562,5.59604 -0.01809,0.0225 -0.03355,0.0415 -0.05168,0.0641 -1.611374,-3.76872 -3.168253,-7.56115 -4.603853,-11.40395 -0.304765,-0.88982 -0.622116,-1.7755 -0.93431,-2.66289 z m -18.619536,6.18515 c 0.231696,1.94385 0.472717,3.88786 0.692981,5.83065 0.131161,1.4049 0.257251,2.81026 0.393258,4.21473 -1.376397,-2.04538 -2.748468,-4.14522 -4.093807,-6.29729 0.744852,-0.92931 2.366603,-2.9765 3.007568,-3.74809 z m -3.311942,4.1305 c 1.452804,2.31632 2.948645,4.60352 4.487064,6.86315 0.172652,1.79496 0.354541,3.58912 0.502812,5.38623 0.452281,5.48185 0.841449,11.74911 1.041797,17.29248 0.03191,0.8829 0.0663,2.49312 0.09405,4.09795 -2.149667,3.36923 -4.252304,6.76879 -6.313826,10.19317 -3.081457,-2.37416 -6.177848,-4.72944 -9.258867,-7.10344 -4.390915,-3.29979 -8.740024,-6.67042 -13.236918,-9.82937 0.09778,-0.0785 0.207157,-0.14202 0.302824,-0.22325 4.27661,-3.63091 6.978037,-7.18842 10.555945,-11.652 2.319686,-2.8939 4.551579,-5.85722 6.848161,-8.76949 2.899686,-3.67706 3.687849,-4.64285 4.976957,-6.25543 z m 61.938339,1.81177 c 0.88084,8.3765 1.99943,16.72797 3.42511,25.02897 0.73363,4.27158 1.58783,8.5221 2.47685,12.76408 1.88666,9.00214 2.6825,11.6973 4.89945,20.25457 1.07065,4.27757 2.45573,8.47228 3.53983,12.74651 0.2584,1.01874 1.1917,4.20684 0.7798,5.69216 -0.32611,1.17593 -1.44839,0.63011 -2.16576,0.52607 -0.79398,-0.29072 -1.596,-0.56008 -2.38177,-0.8723 -2.72351,-1.08216 -4.14964,-1.79426 -6.74894,-2.78846 -3.05125,-5.37482 -6.13807,-10.72979 -9.25111,-16.0693 -0.20537,-0.35355 -0.40895,-0.70845 -0.61444,-1.06196 0.108,-2.41873 0.19977,-4.83851 0.37207,-7.2533 1.049,-14.70101 2.96945,-29.31528 4.95371,-43.91308 0.20879,-1.53601 0.48563,-3.40011 0.7152,-5.05396 z m -34.243389,2.30322 c 0.269828,0.66449 0.503125,1.23876 0.775147,1.91306 -0.271552,-0.62038 -0.550289,-1.23755 -0.817522,-1.85983 0.0141,-0.0178 0.02827,-0.0355 0.04237,-0.0532 z m -0.579293,0.72864 c 0.0284,0.0662 0.05368,0.13378 0.08217,0.19999 1.687093,3.92113 3.482377,7.78761 5.333524,11.62565 0.582519,1.66031 1.146131,3.3276 1.615922,5.02243 0.411443,1.48433 0.612978,3.01887 0.919324,4.5284 0.03079,1.9413 0.519632,4.13845 -0.851627,5.84306 -0.637948,0.79303 -1.389084,1.08839 -2.193665,1.13274 -0.04568,-0.18217 -0.08997,-0.36461 -0.135909,-0.54673 l -0.393774,-0.19069 c 0.06152,0.23837 0.123733,0.47641 0.185518,0.71469 -0.66667,-0.0186 -1.357368,-0.15239 -2.056205,-0.34365 -1.473294,-0.4032 -2.748653,-1.24004 -3.95118,-2.18178 -0.07441,-0.35796 -0.144783,-0.71679 -0.221175,-1.07435 l -0.320911,-0.15555 c 0.06167,0.3136 0.126529,0.62658 0.189136,0.94 -0.900064,-0.72858 -1.778586,-1.49622 -2.641699,-2.17507 -1.720185,-1.72506 -3.525178,-3.36908 -5.160409,-5.17487 -0.237936,-0.26276 -0.487705,-0.5707 -0.728638,-0.84336 -0.03927,-0.1795 -0.07553,-0.35958 -0.115238,-0.53899 l -0.343648,-0.16691 c 0.02005,0.0805 0.03793,0.16136 0.05788,0.24184 -0.311425,-0.35688 -0.62193,-0.71396 -0.936377,-1.08417 3.726966,-5.37531 7.613697,-10.63657 11.666988,-15.77268 z m -21.950081,3.02462 c 1.873136,2.716 3.789685,5.40109 5.804814,8.01192 1.242799,1.61018 2.527584,3.18839 3.840592,4.74234 -0.980141,1.40338 -1.959708,2.80738 -2.919202,4.22507 l -0.09612,-0.046 c 0.01143,0.0459 0.02173,0.0921 0.03307,0.13797 -1.548779,2.2899 -3.074777,4.59513 -4.573881,6.91844 -0.04141,-0.59192 -0.07348,-1.1361 -0.117305,-1.75855 -0.442359,-6.28272 -0.835934,-11.15511 -1.467094,-17.51004 -0.156425,-1.57499 -0.334443,-3.14762 -0.504879,-4.72116 z m -41.836723,12.04888 c 0.244108,0.008 0.489385,0.0272 0.732255,0.0238 0.716619,0.21729 1.435562,0.42645 2.14974,0.65164 0.380828,0.12008 0.783672,0.19383 1.134814,0.38396 2.471866,1.3384 5.330259,3.24347 7.772652,4.92579 -1.084959,0.75433 -2.246354,1.40012 -3.364135,2.10788 -9.30522,2.0083 3.055675,-0.3905 -5.248259,0.4408 -0.135083,0.0135 0.188222,0.45984 0.06563,0.40153 -1.843084,-0.87672 -3.227311,-2.50537 -4.368209,-4.13463 -0.516376,-0.97831 -0.88984,-1.42964 -1.008724,-2.51561 -0.111798,-1.02126 0.303978,-2.0135 1.409217,-2.24069 0.23792,-0.0489 0.480913,-0.0523 0.72502,-0.0444 z m 51.831462,1.11518 c 0.434609,0.50894 0.856909,1.0286 1.302246,1.52807 0.05514,0.0618 0.116546,0.11783 0.172082,0.17932 1.057272,4.36024 1.983313,8.74736 2.831352,13.15371 1.197662,6.37671 2.40916,12.75569 3.946012,19.06137 0.69555,2.85384 1.395821,5.37437 2.160075,8.1933 l 0.07235,0.0346 c -0.763883,-2.81736 -1.46541,-5.34127 -2.160591,-8.19329 -1.536982,-6.30558 -2.747887,-12.68422 -3.945496,-19.06086 -0.823421,-4.27869 -1.636054,-8.56014 -2.550749,-12.8204 1.45836,1.57539 3.015655,3.05818 4.520138,4.59042 1.57954,1.26953 2.731275,2.26537 3.908288,3.15122 0.741082,3.68236 1.536521,7.35401 2.314071,11.02879 1.590574,7.89502 3.516506,15.71501 5.508708,23.51639 0.02359,0.0912 0.04575,0.18269 0.06925,0.27389 -2.195553,-0.49242 -4.3938,-0.97707 -6.606315,-1.38183 -3.078688,-2.29217 -6.161047,-4.57933 -9.220626,-6.89725 -1.193159,-6.34323 -2.325816,-12.69698 -3.110404,-19.10788 -0.631558,-4.30726 -1.239859,-8.6299 -2.213302,-12.87622 0.982277,-1.4708 1.997464,-2.91847 3.002918,-4.37337 z m 28.77292,0.89503 c 0.191611,4.15218 0.430158,8.24785 0.771014,14.36863 0.067,0.87754 0.1608,1.75374 0.22996,2.63137 -0.984219,-1.76361 -1.950822,-3.53668 -2.913002,-5.31234 0.646117,-3.89443 1.277101,-7.7914 1.912028,-11.68766 z m -8.249625,1.11621 c 1.962358,3.87375 3.995215,7.71106 6.063196,11.53057 -1.349311,7.87786 -2.72681,15.75047 -4.254004,23.59597 -1.094296,-5.02922 -2.069378,-10.08349 -3.142444,-15.11742 -0.656245,-2.97035 -1.354674,-5.92949 -2.086694,-8.88163 1.271191,0.19479 2.570933,-0.0141 3.47524,-1.12035 0.143074,-0.17503 0.25206,-0.35901 0.358117,-0.54363 0.717608,1.72276 1.302893,3.50361 1.889807,5.27151 0.571619,1.86353 1.1835,3.71267 1.74253,5.58002 l 0.07183,0.0346 c -0.419585,-1.82241 -0.823538,-3.65136 -1.417485,-5.42758 -0.625555,-1.96947 -1.235028,-3.9694 -2.089278,-5.85649 0.697856,-1.6043 0.306417,-3.4762 0.243396,-5.14439 -0.289296,-1.30585 -0.51726,-2.6279 -0.854211,-3.92121 z m -23.685376,2.60708 c 0.988678,4.15521 1.671354,8.37378 2.300635,12.59613 0.822911,6.38582 1.871559,12.73654 3.073714,19.05982 -1.447853,-1.09707 -2.879129,-2.21575 -4.323767,-3.31711 -0.541051,-0.71309 -1.106085,-1.40701 -1.717725,-2.06189 l -0.321944,-0.13384 c 0.550459,0.58066 1.06324,1.19332 1.554427,1.82314 -3.033194,-2.31385 -6.056113,-4.64058 -9.080066,-6.9665 -0.530892,-1.1228 -1.071705,-2.24059 -1.642794,-3.34346 l -0.229443,-0.10336 c 0.544374,1.06565 1.065756,2.14264 1.580265,3.22306 -0.924985,-0.71158 -1.853088,-1.41897 -2.777608,-2.13113 1.862759,-3.20979 3.768578,-6.39335 5.728849,-9.54361 0.02309,1.75208 0.03635,3.54966 0.0093,4.70979 -0.01098,0.47092 -0.07733,0.93923 -0.115755,1.4087 0.04977,0.0422 0.09908,0.0849 0.149345,0.12661 -0.02368,0.0592 -0.04054,0.12041 -0.06718,0.1788 -0.03656,0.0801 -0.06971,0.16257 -0.117305,0.23668 -0.01751,0.0273 -0.106809,0.0562 -0.07493,0.062 0.325408,0.0599 0.654911,0.0952 0.983403,0.13591 0.08082,0.0676 0.161621,0.13526 0.240812,0.20464 -0.01428,-0.0453 -0.0431,-0.0829 -0.05478,-0.12764 -0.0045,-0.0174 7.64e-4,-0.0343 -0.0031,-0.0517 0.165397,0.0204 0.330051,0.0459 0.49506,0.0687 0.02164,-0.48872 0.06908,-0.97741 0.0646,-1.46658 -0.02363,-2.581 -0.164686,-4.93584 -0.331246,-7.39386 1.52666,-2.41889 3.090962,-4.81372 4.677234,-7.19336 z m -4.847766,16.16439 c 0.02498,0.0792 0.04058,0.16431 0.09612,0.22324 0.05333,0.0562 0.283833,0.10516 0.227893,0.0512 -0.101828,-0.0983 -0.217613,-0.18119 -0.324011,-0.2744 z m 18.617468,-10.68979 c 1.373,0.99663 2.833972,1.83476 5.072559,2.67942 0.345394,0.13033 0.711353,0.22384 1.078487,0.30179 0.766352,2.94471 1.540136,5.88638 2.232938,8.85063 1.10077,5.12538 2.189883,10.25243 3.309876,15.37373 -0.514357,2.6398 -1.051849,5.27546 -1.591118,7.91063 -0.830057,-0.19636 -1.663404,-0.3716 -2.495971,-0.55862 -0.02173,-0.0843 -0.04227,-0.16892 -0.06408,-0.25321 -1.989738,-7.79154 -3.940591,-15.59828 -5.467883,-23.49624 -0.680867,-3.60456 -1.336239,-7.21482 -2.074809,-10.80813 z m 16.06982,3.61373 c 1.069456,1.97377 2.157355,3.93786 3.246313,5.90145 0.666,8.21813 1.44005,16.43382 2.81895,24.56594 0.22414,1.32188 0.53306,2.88219 0.85628,4.43229 -1.90751,-0.54216 -3.81577,-1.08135 -5.723683,-1.62212 -2.096503,-0.54392 -4.208762,-1.05879 -6.322095,-1.56631 1.642981,-10.58093 3.370706,-21.14815 5.124235,-31.71125 z m 3.977023,7.22954 c 2.95156,5.29963 5.9349,10.58217 8.94053,15.85122 -0.096,1.14966 -0.20323,2.29823 -0.30489,3.44734 -0.16052,2.6223 -0.32679,5.24455 -0.4811,7.86722 -0.0398,0.67685 -0.0799,1.35355 -0.11214,2.03088 -0.82597,-0.25775 -1.90243,-0.61059 -2.53886,-0.80098 -0.4381,-0.13106 -0.88068,-0.24665 -1.31982,-0.37414 -0.3332,-1.45088 -0.66116,-2.91846 -0.90847,-4.20233 -1.51697,-7.87507 -2.50411,-15.83876 -3.27525,-23.81921 z m -45.580685,2.6417 c 1.093438,0.83616 2.189519,1.66879 3.283521,2.50424 0.417665,0.88238 0.833267,1.7657 1.253153,2.64686 1.636158,3.51335 3.437738,6.94372 5.190898,10.39885 0.186271,0.36924 0.372867,0.73818 0.559139,1.10743 l 0.07286,0.0331 c -0.186266,-0.36926 -0.37287,-0.73869 -0.559139,-1.10794 -1.734321,-3.41804 -3.411425,-6.864 -5.044653,-10.33167 -0.397702,-0.8418 -0.790829,-1.68605 -1.186491,-2.52905 3.154032,2.40827 6.303448,4.8223 9.466089,7.2192 0.461979,0.63008 0.909616,1.27079 1.354956,1.91151 1.133326,1.71034 2.309926,3.40205 3.195154,5.25808 l 0.07286,0.0331 c -0.857767,-1.80029 -1.866905,-3.52663 -2.993616,-5.17178 -0.3892,-0.56582 -0.780766,-1.13138 -1.182357,-1.68982 1.245372,0.9434 2.487306,1.89113 3.734656,2.83187 0.182598,0.95488 0.368228,1.90922 0.557589,2.86288 0.173564,0.81944 0.328521,1.64077 0.441316,2.46703 -2.734052,-0.30781 -5.479686,-0.50901 -8.236706,-0.57102 -6.228251,-0.14009 -7.669322,0.24816 -13.68547,0.98805 -1.906906,0.44345 -3.847219,0.76141 -5.720581,1.33015 -0.632414,0.19199 -1.240485,0.44571 -1.859835,0.67179 1.131256,-2.20887 2.796499,-5.44378 2.842204,-5.53299 2.274805,-4.3762 4.660841,-8.69378 7.101376,-12.98009 0.736137,2.3365 1.51068,4.6604 2.293916,6.98149 0.768979,2.31797 1.687637,4.58006 2.669605,6.81457 l 0.07286,0.0331 c -0.978777,-2.22674 -1.86733,-4.49157 -2.639116,-6.79907 -0.795357,-2.40387 -1.55746,-4.81826 -2.273246,-7.2471 0.405652,-0.71134 0.808728,-1.42405 1.219047,-2.13268 z m -4.836397,10.16527 c 0.762057,2.04736 1.445758,4.125 2.092378,6.2115 0.07772,0.26762 0.155857,0.53492 0.233578,0.80254 l 0.07235,0.0346 c -0.07772,-0.26764 -0.155862,-0.53542 -0.233578,-0.80305 -0.586411,-2.04817 -1.168655,-4.09771 -1.872753,-6.1097 z m 22.161438,3.02979 c 2.835572,2.13827 5.684087,4.25891 8.532812,6.37945 -2.514537,-0.44872 -5.038331,-0.83683 -7.573698,-1.12396 -0.111643,-0.81487 -0.262865,-1.62478 -0.427881,-2.43396 -0.178938,-0.94018 -0.353925,-1.88107 -0.531233,-2.82153 z m 38.252964,1.88515 c 2.82873,4.94761 5.63689,9.90765 8.39018,14.8978 -2.48731,-0.89272 -5.66112,-1.9383 -8.74055,-2.91713 0.0125,-0.57385 0.0351,-1.41851 0.0434,-1.74615 0.0678,-2.6716 0.12882,-5.34333 0.19327,-8.01502 0.038,-0.73982 0.0799,-1.47942 0.11369,-2.2195 z m -27.778668,5.59243 c 1.830684,0.33181 3.646548,0.74263 5.465299,1.13894 0.266623,1.05054 0.527192,2.10257 0.767395,3.1595 l 0.07235,0.0346 c -0.241673,-1.0639 -0.504072,-2.12275 -0.772562,-3.18016 0.722815,0.15779 1.451088,0.28827 2.17196,0.45423 -0.241048,1.17305 -0.474521,2.34763 -0.720886,3.51968 -2.333316,-1.70157 -4.664726,-3.40557 -6.983553,-5.12681 z m 8.580871,1.80402 c 2.584355,0.60639 5.157598,1.25393 7.715808,1.9265 1.520929,0.43961 3.040689,0.88392 4.563029,1.31878 0.40682,1.88977 0.86212,3.78267 1.33894,5.4007 0.27768,0.94226 0.66252,1.8497 0.99373,2.77451 0.71386,1.13576 1.33961,2.76197 3.39515,2.04845 0.59624,-0.20697 0.40533,-1.20314 0.49196,-1.82831 0.20168,-1.45541 0.28129,-4.19441 0.33279,-6.40529 3.09202,0.98916 6.23561,2.06333 9.26765,3.1812 3.0666,5.57556 6.06574,11.18794 8.95036,16.86047 0.34744,0.70377 1.49554,2.99254 1.88516,3.89847 0.14187,0.32987 0.58354,1.27243 0.35657,1.54668 -0.0783,0.0946 -0.25153,0.0149 -0.36742,-0.0258 -0.33653,-0.11824 -0.6492,-0.29712 -0.97359,-0.44545 -0.62212,-0.35799 -1.25783,-0.69268 -1.86603,-1.07384 -0.25992,-0.1629 -0.47808,-0.38611 -0.73381,-0.55552 -1.40136,-0.92833 -2.82832,-1.81743 -4.23592,-2.73627 -4.01512,-2.62098 -9.67259,-6.35894 -13.50822,-8.97361 -3.04707,-2.07713 -6.06651,-4.19478 -9.0997,-6.29212 -3.067834,-2.16759 -6.096892,-4.38798 -9.134325,-6.59702 0.203308,-1.34177 0.420273,-2.68141 0.627868,-4.02249 z m -51.416499,2.1177 c -1.884095,3.32859 -3.607412,6.39756 -4.077788,7.19388 -1.769007,2.99481 -4.448974,7.64268 -7.180957,10.06605 -0.23348,0.2071 -0.518269,0.34596 -0.792199,0.49919 -0.02246,-0.17237 -0.04714,-0.345 -0.05219,-0.51728 -0.07639,-2.60416 0.988083,-5.0444 2.136304,-7.30963 1.815043,-2.78103 2.124344,-3.5937 4.63796,-5.96191 1.629784,-1.53551 3.428704,-2.83856 5.328874,-3.9703 z m 64.953136,1.49138 c 0.84789,0.24596 1.7004,0.47684 2.54455,0.73536 0.35488,0.10868 0.76245,0.25124 1.12655,0.36483 -0.0416,0.84857 -0.0748,1.69759 -0.14056,2.54455 -0.0883,1.13607 -0.17996,2.27557 -0.38086,3.39721 -0.0774,0.43174 -0.41498,0.83316 -0.49919,1.24954 -0.36111,-0.83979 -0.75895,-1.66557 -1.05162,-2.53112 -0.59236,-1.75188 -1.12319,-3.7563 -1.59887,-5.76037 z"
       sodipodi:nodetypes="scscscccsccssscsssccsccssscscsccscccscscscsccscsscscscsscscssscsscssccsccccccscsscsccsscscscccccccssccsscccscssccsscssscsccccccccsccsscssscssccsccsscssccscsscsccscccscccscccccsscssccccscsccsscscccccsscccsccsccccscscscccccccccccccccccscsccsscccccccccccccsccscccscccccccccccssscccscsccccsccccccscsccccccsccscscsccscccccccccccsscccccssccsscsscsccccsccccccccscsccccscccccscccccccscccccsscscssccsccssscsccsccsccccccccccccccccccccccscccccccccccccccccccccsccsscccsccsccccsccsccccccccccscccccccscscscccccccccccccccccccscsccccccccccccccccccccccccscccccccccccccscsscccssscssssccccsscscsccscsscsc" />
  </g>
</svg>
