<?xml version="1.0" encoding="UTF-8" standalone="no"?>
<!-- Created with Inkscape (http://www.inkscape.org/) -->

<svg
   width="120.25116mm"
   height="40.863052mm"
   viewBox="0 0 120.25116 40.863052"
   version="1.1"
   id="svg1"
   inkscape:version="1.3.2 (091e20e, 2023-11-25, custom)"
   sodipodi:docname="geschwindigkeit_b.svg"
   xmlns:inkscape="http://www.inkscape.org/namespaces/inkscape"
   xmlns:sodipodi="http://sodipodi.sourceforge.net/DTD/sodipodi-0.dtd"
   xmlns="http://www.w3.org/2000/svg"
   xmlns:svg="http://www.w3.org/2000/svg">
  <sodipodi:namedview
     id="namedview1"
     pagecolor="#ffffff"
     bordercolor="#000000"
     borderopacity="0.25"
     inkscape:showpageshadow="2"
     inkscape:pageopacity="0.0"
     inkscape:pagecheckerboard="0"
     inkscape:deskcolor="#d1d1d1"
     inkscape:document-units="mm"
     inkscape:zoom="0.80711279"
     inkscape:cx="339.48167"
     inkscape:cy="-7.4339052"
     inkscape:window-width="1920"
     inkscape:window-height="1129"
     inkscape:window-x="-8"
     inkscape:window-y="-8"
     inkscape:window-maximized="1"
     inkscape:current-layer="layer1" />
  <defs
     id="defs1" />
  <g
     inkscape:label="Ebene 1"
     inkscape:groupmode="layer"
     id="layer1"
     transform="translate(-14.986646,-150.46482)">
    <ellipse
       id="path2"
       style="fill:#ffffff;fill-opacity:1;stroke:#1a1a1a;stroke-width:0.146155;stroke-dasharray:none;stroke-opacity:1"
       cx="134.95943"
       cy="183.25467"
       rx="0.20529859"
       ry="0.20449713" />
    <path
       style="fill:#ffffff;fill-opacity:1;stroke:#1a1a1a;stroke-width:1.25781;stroke-dasharray:none;stroke-opacity:1"
       id="path3"
       d="m 32.082164,156.83718 c -1.016313,0.1469 -2.012671,0.4312 -2.936426,0.88435 -0.393087,0.19283 -0.770197,0.41643 -1.155294,0.62463 -0.483482,0.30901 -0.98014,0.59847 -1.450449,0.92703 -2.832641,1.97891 -5.646711,4.5005 -7.682316,7.29368 -0.601377,0.82519 -1.093615,1.72407 -1.640422,2.5861 -0.402143,0.91136 -0.939786,1.77465 -1.20643,2.73407 -0.789979,2.84246 -0.371915,6.06981 1.101743,8.62763 1.188222,2.06239 1.970883,2.37273 3.802278,3.76002 1.162016,0.51904 2.273523,1.1693 3.486047,1.55711 2.809544,0.89859 6.798685,0.14886 9.310744,-1.3145 0.567205,-0.33042 1.055635,-0.77967 1.583453,-1.1695 0.392264,-0.4296 0.829298,-0.82251 1.176792,-1.28878 0.799527,-1.07282 1.287529,-2.40168 0.882176,-3.73565 -0.293687,-0.96651 -0.66182,-1.1376 -1.368417,-1.80727 -1.563485,-0.88493 -1.882091,-1.26325 -3.392846,-1.61701 -1.609908,-0.37697 -3.228766,-0.29343 -4.852156,-0.10472 -0.196121,0.0481 -0.869061,0.13825 -1.07899,0.38167 -0.02923,0.0339 0.02357,0.11935 0.06827,0.11555 0.04772,-0.004 0.04419,-0.0847 0.06628,-0.12698 0,0 -0.03876,-0.0201 -0.03876,-0.0201 v 0 c 0.01231,0.0657 -0.0128,0.15219 0.03695,0.19701 0.54119,0.48764 1.370964,0.23635 2.001353,0.19913 1.608819,-0.16266 3.227428,-0.25049 4.815661,0.14584 0.409735,0.10224 0.795444,0.28497 1.200966,0.4027 0.02048,0.006 -0.01408,-0.0401 -0.02112,-0.0602 0.710435,0.63027 1.084913,0.79509 1.405469,1.72671 0.444415,1.29159 0.01072,2.61533 -0.759941,3.67859 -0.335985,0.46355 -0.767048,0.85074 -1.150571,1.27611 -0.529021,0.37938 -1.021393,0.81546 -1.587061,1.13814 -2.002143,1.14212 -4.428839,1.7316 -6.734416,1.62403 -1.460326,-0.0681 -2.565042,-0.40113 -3.916453,-0.74886 -1.844911,-1.36173 -2.637116,-1.66628 -3.846916,-3.70885 -1.498684,-2.53029 -1.942635,-5.72765 -1.187271,-8.56622 0.255011,-0.95831 0.777214,-1.82542 1.165821,-2.73812 0.528376,-0.86731 0.999842,-1.77166 1.585129,-2.60193 0.570341,-0.80906 1.215798,-1.56473 1.873828,-2.30481 2.065311,-2.3228 4.476522,-4.34905 7.153334,-5.9359 0.383268,-0.2062 0.760951,-0.42306 1.149803,-0.61861 0.824398,-0.41459 1.699325,-0.72862 2.521001,-1.15031 z" />
    <path
       style="fill:#ffffff;fill-opacity:1;stroke:#1a1a1a;stroke-width:1.25781;stroke-dasharray:none;stroke-opacity:1"
       id="path4"
       d="m 34.598444,171.13391 c 0.153386,-0.012 0.307143,-0.0199 0.460157,-0.0359 0.907944,-0.095 1.807517,-0.22426 2.719791,-0.28272 3.55995,-0.22815 -1.18866,0.13874 2.682816,-0.17342 1.199953,-0.29509 2.421679,-0.45032 3.648334,-0.57541 0,0 -0.03562,-0.0252 -0.03562,-0.0252 v 0 c -0.375576,0.0383 -0.749676,0.0957 -1.126725,0.11483 -1.310449,0.0663 -1.919834,-0.004 -3.267863,-0.0759 -0.529506,-0.003 -1.059055,-0.0169 -1.58852,-0.01 -1.490896,0.0207 -2.972599,0.18111 -4.44935,0.3741 z" />
    <path
       style="fill:#ffffff;fill-opacity:1;stroke:#1a1a1a;stroke-width:1.25781;stroke-dasharray:none;stroke-opacity:1"
       id="path5"
       d="m 33.308881,169.00851 c 2.383715,-0.17893 4.771849,-0.2929 7.153016,-0.50325 1.331146,-0.34263 2.69345,-0.53445 4.04956,-0.74635 0,0 -0.03575,-0.025 -0.03575,-0.025 v 0 c -1.562813,0.24405 -3.125481,0.43789 -4.71285,0.27114 -2.470628,0.0521 -4.937967,0.16812 -7.404549,0.31771 z" />
    <path
       style="fill:#ffffff;fill-opacity:1;stroke:#1a1a1a;stroke-width:1.25781;stroke-dasharray:none;stroke-opacity:1"
       id="path6"
       d="m 45.637945,155.18235 c -0.01578,0.11224 -0.03954,0.22366 -0.04735,0.33673 -0.06302,0.91176 0.0057,1.84832 0.04177,2.75761 0.01601,0.40349 0.167508,3.92494 0.170711,3.99957 0.272891,6.16388 0.548835,12.3276 0.805477,18.49218 0.08749,1.96559 0.184871,3.93237 0.465523,5.88164 0.197932,1.37474 0.164399,0.53894 0.172845,1.47172 0,0 0.03896,0.0197 0.03896,0.0197 v 0 c -0.0098,-1.09831 -0.02082,0.24427 0.108489,-1.33056 0.155191,-1.88999 0.0065,-3.78529 -0.05448,-5.67538 -0.288503,-6.14925 -0.542998,-12.29973 -0.728466,-18.45302 -0.06733,-1.88609 -0.08271,-2.24193 -0.136207,-3.98152 -0.02844,-0.92486 -0.0102,-1.87725 -0.122983,-2.79901 -0.01648,-0.13467 -0.0502,-0.26668 -0.07529,-0.40002 z" />
    <path
       style="fill:#ffffff;fill-opacity:1;stroke:#1a1a1a;stroke-width:1.25781;stroke-dasharray:none;stroke-opacity:1"
       id="path7"
       d="m 47.600537,155.10739 c 0.0069,0.1764 0.0081,0.35311 0.02071,0.5292 0.109019,1.52085 0.297821,3.03685 0.424595,4.55634 0.188286,2.25672 0.233047,3.08678 0.388614,5.42024 0.393684,5.94972 0.599801,11.90951 0.949519,17.86153 0.08144,1.0089 0.173995,2.51643 0.356651,3.5504 0.442136,2.50281 0.197619,0.1878 0.346062,1.79898 0,0 0.03905,0.0195 0.03905,0.0195 v 0 c -0.03281,-1.99966 -0.0083,1.33465 0.121132,-1.56608 0.03315,-0.74257 -0.08235,-2.80811 -0.110816,-3.4264 -0.320098,-5.95168 -0.65422,-11.90261 -0.937874,-17.85619 -0.196995,-3.49196 -0.398219,-6.98581 -0.759026,-10.46556 z" />
    <path
       style="fill:#ffffff;fill-opacity:1;stroke:#1a1a1a;stroke-width:1.25781;stroke-dasharray:none;stroke-opacity:1"
       id="path8"
       d="m 40.409051,161.16835 c 1.319912,-2.22788 3.151732,-4.1619 5.21433,-5.72835 0.628522,-0.47733 1.303851,-0.8902 1.955777,-1.33529 2.754207,-1.53869 5.805725,-2.78031 9.032597,-2.32203 1.727217,0.2453 2.026171,0.56855 3.495276,1.36325 0.09582,0.21368 0.191638,0.42737 0.287455,0.64105 0.310614,0.49177 0.683231,0.94972 0.931843,1.47531 0.264098,0.55832 0.450562,1.1539 0.595652,1.75394 0.303323,1.25444 0.371215,2.60468 0.316298,3.88777 -0.02808,0.65562 -0.129125,1.30611 -0.193691,1.95917 -0.132507,0.65137 -0.218456,1.3139 -0.397531,1.95413 -0.656778,2.34815 -1.738544,4.47525 -3.307401,6.35139 -1.417163,1.69473 -2.057903,2.07759 -3.745779,3.43519 -2.086502,1.42389 -4.408031,2.42865 -6.929212,2.73543 -0.958498,0.11663 -1.297656,0.0708 -2.212329,0.0345 -0.562447,-0.0593 -1.130532,-0.13683 -1.665048,-0.33048 -0.08183,-0.0297 -0.313327,-0.15056 -0.238455,-0.10628 1.444775,0.85458 1.484797,0.88726 1.079838,0.59531 -0.0814,-0.0797 0.0081,-0.006 0.06606,0.0295 0.177939,0.10807 0.364334,0.20182 0.543297,0.30821 -0.298109,-0.16036 -0.560424,-0.42389 -0.894324,-0.48109 -0.239005,-0.0409 0.39488,0.28074 0.586804,0.42841 0.240729,0.18522 0.479055,0.37379 0.710826,0.57003 1.099533,0.93096 2.108275,1.95819 3.127589,2.97362 2.094133,2.02128 4.066157,4.19723 6.388661,5.9701 0.59084,0.45101 1.193317,0.89182 1.8347,1.26814 1.009176,0.59212 2.072196,1.08807 3.108294,1.6321 0.658689,0.14283 1.305176,0.36288 1.976066,0.42849 1.983701,0.19401 4.087945,-0.34124 5.652021,-1.60609 0.433109,-0.35025 2.136237,-2.43634 2.505967,-2.88028 0.313435,-0.44174 0.626871,-0.88348 0.940312,-1.32521 0,0 -0.03764,-0.0221 -0.03764,-0.0221 v 0 c -0.313348,0.44159 -0.626697,0.88318 -0.940045,1.32477 -0.445052,0.44957 -0.829183,0.9684 -1.335152,1.34869 -0.575254,0.43237 -1.233424,0.74585 -1.878177,1.06648 -1.906494,0.94807 -3.828373,1.54603 -5.986572,1.27461 -0.68252,-0.0858 -1.336072,-0.32728 -2.00411,-0.49092 -1.241536,-0.42353 -0.826339,-0.21655 -2.482229,-1.47377 -2.299757,-1.74609 -4.240938,-3.9059 -6.295162,-5.91752 -1.890834,-1.90448 -3.761449,-3.83782 -6.191391,-5.06483 -0.204518,-0.10724 -0.848451,-0.49126 -0.791983,0.0577 0.645936,0.91153 2.302649,1.14837 3.341913,1.23864 0.902285,0.008 1.22817,0.0415 2.171095,-0.0985 2.504559,-0.3718 4.805177,-1.41422 6.878083,-2.84452 1.682069,-1.37187 2.328958,-1.775 3.759178,-3.46387 1.608385,-1.89926 2.726384,-3.97628 3.366914,-6.37968 0.173323,-0.65033 0.24186,-1.32398 0.362791,-1.98596 0.05682,-0.66169 0.146783,-1.32138 0.170455,-1.98507 0.06804,-1.90743 -0.07917,-3.94015 -0.89164,-5.70202 -0.24687,-0.53535 -0.520402,-1.08007 -0.929685,-1.50536 -0.662103,-0.688 -1.493191,-1.19205 -2.239787,-1.78808 -1.45723,-0.75512 -1.762519,-1.0728 -3.46449,-1.27568 -3.211103,-0.38276 -6.245372,0.93399 -8.992569,2.42537 -0.656444,0.44639 -1.337664,0.85862 -1.969331,1.33917 -0.578289,0.43995 -1.121303,0.92527 -1.654914,1.41806 -1.383708,1.27786 -2.646764,2.70431 -3.603956,4.32934 z" />
    <path
       style="fill:#ffffff;fill-opacity:1;stroke:#1a1a1a;stroke-width:1.25781;stroke-dasharray:none;stroke-opacity:1"
       id="path10"
       d="m 63.318649,176.20911 c 2.285643,-0.003 4.554879,-0.39593 6.817444,-0.68108 1.991585,-0.25618 3.992567,-0.42598 5.989791,-0.62921 0.981047,-0.0998 1.92762,-0.19114 2.895195,-0.37218 0.311092,-0.0582 0.616436,-0.14359 0.92466,-0.21538 0.22853,-0.0651 0.457066,-0.13015 0.685597,-0.19523 0,0 -0.03584,-0.0249 -0.03584,-0.0249 v 0 c -0.27357,0.0331 -0.547139,0.0662 -0.820709,0.0993 -0.637864,0.0139 -2.098792,0.0428 -2.673795,0.069 -2.605792,0.11875 -5.200648,0.41169 -7.793443,0.68367 -2.283397,0.25306 -4.568034,0.56224 -6.866892,0.62699 z" />
    <path
       style="fill:#ffffff;fill-opacity:1;stroke:#1a1a1a;stroke-width:1.25781;stroke-dasharray:none;stroke-opacity:1"
       id="path11"
       d="m 73.163173,171.15664 c 1.732728,0.64499 3.583092,0.92463 5.389973,1.29093 2.120651,0.43537 4.242104,0.87303 6.329139,1.45055 0.143903,0.0447 0.288665,0.0866 0.4317,0.13398 0.155529,0.0515 0.596626,0.26806 0.454498,0.18678 -1.271804,-0.72727 -0.665131,-0.73049 -1.036215,-0.48541 -0.687203,0.3511 -1.415561,0.62146 -2.133479,0.90357 -2.057248,0.77429 -4.110023,1.55455 -6.102454,2.48378 -0.917307,0.43781 -1.809564,0.92427 -2.685164,1.43921 -0.499494,0.29374 -0.985959,0.58287 -1.435245,0.94782 -0.213168,0.3267 -0.05704,0.52697 0.298728,0.57952 0,0 -0.0354,-0.0255 -0.0354,-0.0255 v 0 c -0.269199,0.11078 0.60923,0.13486 0.596244,-0.006 1.39892,-0.75876 2.704313,-1.68925 4.164361,-2.33954 2.004965,-0.92615 4.061738,-1.72565 6.151696,-2.4417 0.744546,-0.27614 1.506853,-0.52861 2.21139,-0.89739 0.524713,-0.4714 -0.268784,-0.51972 -0.941711,-0.90692 -0.257027,-0.14789 -0.584864,-0.15778 -0.852823,-0.27084 -2.089548,-0.53384 -4.197496,-0.9929 -6.309771,-1.42787 -1.816863,-0.38552 -3.682732,-0.67934 -5.418443,-1.35589 z" />
    <path
       style="fill:#ffffff;fill-opacity:1;stroke:#1a1a1a;stroke-width:1.25781;stroke-dasharray:none;stroke-opacity:1"
       id="path12"
       d="m 101.32027,171.84346 c 0.0201,0.12478 0.028,0.25214 0.0603,0.37434 0.36165,1.36583 1.68949,2.94384 2.51556,4.06043 0.73414,0.98991 0.8149,1.09476 1.52253,2.0641 0.20665,0.28308 0.39627,0.57913 0.61786,0.85078 0.20876,0.25594 0.44684,0.4867 0.67102,0.72934 0.49086,0.53129 0.27768,0.33342 0.6849,0.67841 0,0 0.0402,0.0172 0.0402,0.0172 v 0 c 0.0243,-0.20404 -0.26189,-0.84882 -0.3329,-0.96631 -0.18108,-0.29956 -0.40923,-0.56825 -0.61596,-0.85084 -0.24965,-0.34124 -1.29802,-1.75625 -1.52767,-2.06645 -0.67816,-0.92241 -1.37565,-1.83318 -1.96373,-2.81693 -0.24369,-0.40766 -0.45571,-0.77363 -0.61321,-1.21795 -0.0431,-0.1216 -0.0625,-0.25029 -0.0937,-0.37544 z" />
    <path
       style="fill:#ffffff;fill-opacity:1;stroke:#1a1a1a;stroke-width:1.25781;stroke-dasharray:none;stroke-opacity:1"
       id="path13"
       d="m 107.27704,171.956 c -1.00108,1.27077 -1.91054,2.6126 -2.8538,3.9265 -0.64604,0.89346 -1.29991,1.78157 -1.97694,2.65207 -0.29208,0.37554 -0.61852,0.72616 -0.88221,1.122 -0.074,0.11109 -0.12165,0.23752 -0.18248,0.35627 -0.0593,0.33991 0.0679,0.36274 0.34934,0.28898 0,0 -0.0375,-0.0223 -0.0375,-0.0223 v 0 c 0.008,0.42842 0.18509,0.29578 0.51113,0.22784 0.118,-0.0861 0.24962,-0.15633 0.35401,-0.25843 0.20225,-0.19781 0.75383,-0.94505 0.88776,-1.12275 0.66381,-0.88072 1.31649,-1.76959 1.95363,-2.66971 0.93172,-1.31628 1.89141,-2.62302 2.71232,-4.01114 z" />
    <path
       style="fill:#ffffff;fill-opacity:1;stroke:#c83737;stroke-width:1.25781;stroke-dasharray:none;stroke-opacity:1"
       id="path14"
       d="m 103.88364,169.31269 c -0.12296,1.55252 -0.0221,3.10907 0.0888,4.65873 0.18773,1.93703 0.30848,3.88235 0.54318,5.81456 0.0152,0.15919 0.0544,0.70787 0.11587,0.89893 0.0297,0.0921 0.0921,0.17024 0.13815,0.25536 0,0 0.44422,0.22993 0.44422,0.22993 v 0 c 0.0557,-0.0353 0.13658,-0.0477 0.16724,-0.10601 0.0918,-0.17447 0.0512,-0.69213 0.0491,-0.82325 -0.0758,-1.93791 -0.39702,-3.86006 -0.50918,-5.79637 -0.10692,-1.55518 -0.17703,-3.11247 -0.14123,-4.67181 z" />
    <path
       style="fill:#ffffff;fill-opacity:1;stroke:#1a1a1a;stroke-width:1.25781;stroke-dasharray:none;stroke-opacity:1"
       id="path15"
       d="m 99.135806,176.19414 c 1.538354,-0.47275 3.131944,-0.62726 4.730164,-0.73191 1.88567,-0.15675 3.7783,-0.10193 5.6666,-0.15127 0.27796,-0.11835 0.57137,-0.0906 0.86458,-0.0885 0,0 -0.0353,-0.0256 -0.0353,-0.0256 v 0 c -0.46512,-0.004 -0.89918,-0.0917 -1.33795,-0.26182 -0.24259,-0.0459 -0.48287,-0.10631 -0.72777,-0.13782 -1.74872,-0.22504 -3.52548,0.0614 -5.27745,0.06 -1.61385,0.0981 -3.228157,0.23602 -4.779444,0.72328 z" />
    <path
       style="fill:#ffffff;fill-opacity:1;stroke:#c83737;stroke-width:1.25781;stroke-dasharray:none;stroke-opacity:1"
       id="path16"
       d="m 91.549308,168.88524 c -0.0335,0.16928 -0.0774,0.33683 -0.100647,0.50782 -0.12525,0.92158 -0.15602,1.61844 -0.20985,2.56788 -0.0886,1.5637 -0.13218,3.12458 -0.15496,4.69039 0.0439,0.72269 0.0595,1.56288 0.22147,2.28271 0.0788,0.35018 0.256567,0.71592 0.360427,1.06808 0,0 0.0395,0.0186 0.0395,0.0186 v 0 c -0.0719,-0.23695 0.15333,-0.59617 0.18641,-0.79193 0.0721,-0.42655 0.10453,-1.78046 0.11663,-2.10688 0.0267,-2.60026 0.148147,-5.19518 0.398297,-7.78433 z" />
    <path
       style="fill:#ffffff;fill-opacity:1;stroke:#c83737;stroke-width:1.25781;stroke-dasharray:none;stroke-opacity:1"
       id="path17"
       d="m 89.6454,176.37055 c 1.130144,-0.43802 2.335168,-0.59078 3.531259,-0.72909 0.575247,-0.13645 1.197994,-0.043 1.771521,-0.18583 0.383017,-0.0954 0.15788,-0.24711 0.613017,-0.16492 0,0 -0.0349,-0.0262 -0.0349,-0.0262 v 0 c -0.446667,-0.0849 -0.860744,-0.26909 -1.313044,-0.33946 -0.686294,-0.10678 -1.390961,-0.0179 -2.079798,-0.0234 -1.226801,0.0936 -2.466875,0.24155 -3.608819,0.728 z" />
    <path
       style="fill:#ffffff;fill-opacity:1;stroke:#1a1a1a;stroke-width:1.25781;stroke-dasharray:none;stroke-opacity:1"
       id="path18"
       d="m 114.20848,160.41316 c -0.25789,2.72769 -0.49697,5.45779 -0.72096,8.1886 -0.20207,3.22302 -0.28315,6.47919 0.0964,9.69398 0.0547,0.46331 0.13945,0.92261 0.20917,1.38392 0.45861,1.82195 0.766,2.54251 2.74674,3.15429 0.40108,0.12388 0.90275,-0.23837 1.20458,-0.40357 0.53636,-0.77989 0.19884,-0.44924 1.02672,-0.97742 0,0 -0.0368,-0.0236 -0.0368,-0.0236 v 0 c -0.9198,0.58653 -0.38434,0.36548 -1.64701,0.55545 -0.2701,0.0408 -0.53803,0.1 -0.81028,0.12246 -0.22507,0.0186 -0.56659,-0.19559 -0.67752,2.9e-4 -0.0992,0.17514 0.56822,0.56774 0.44688,0.40706 -0.13725,-0.18173 -0.36094,-0.28733 -0.4953,-0.47118 -0.44515,-0.6091 -0.53537,-1.1552 -0.7566,-1.87553 -0.0797,-0.46362 -0.17627,-0.92466 -0.23902,-1.39085 -0.43206,-3.21018 -0.34439,-6.4703 -0.13588,-9.69279 0.21933,-2.69883 0.0876,-1.15122 0.32135,-3.74834 0.11581,-1.28672 0.26694,-2.5836 0.2961,-3.87667 0.005,-0.2112 -0.0104,-0.42238 -0.0156,-0.63356 z" />
    <path
       style="fill:#ffffff;fill-opacity:1;stroke:#c83737;stroke-width:1.25781;stroke-dasharray:none;stroke-opacity:1"
       id="path19"
       d="m 112.59911,173.21434 c 1.69808,-0.16488 3.40549,-0.15476 5.10845,-0.23211 0.56672,-0.36359 0.24516,-0.25506 0.97901,-0.27998 0,0 -0.0354,-0.0256 -0.0354,-0.0256 v 0 c -1.04971,-0.0601 -0.44009,0.0149 -1.81366,-0.32511 -1.79571,-0.099 -3.59725,-0.11699 -5.39033,0.0474 z" />
    <path
       style="fill:#ffffff;fill-opacity:1;stroke:#1a1a1a;stroke-width:1.25781;stroke-dasharray:none;stroke-opacity:1"
       id="path20"
       d="m 121.56263,169.69782 c 0.71559,2.06381 2.14833,3.80037 3.4483,5.52607 0.93932,1.22014 1.92036,2.40745 2.94322,3.55894 0.35656,0.40141 1.20026,1.33647 1.6225,1.72991 0.23674,0.22059 0.49678,0.41499 0.74518,0.62248 0.14611,0.11467 0.29223,0.22932 0.43836,0.34399 0,0 0.0404,0.0165 0.0404,0.0165 v 0 c -0.0718,-0.0838 -0.1436,-0.16761 -0.2154,-0.25143 -0.48854,-0.73137 -1.08918,-1.37089 -1.65099,-2.04723 -0.95032,-1.14405 -1.87996,-2.30553 -2.78597,-3.48469 -1.29289,-1.73074 -2.66776,-3.47334 -3.48205,-5.49034 z" />
    <path
       style="fill:#ffffff;fill-opacity:1;stroke:#1a1a1a;stroke-width:1.25781;stroke-dasharray:none;stroke-opacity:1"
       id="path21"
       d="m 123.09897,178.23399 c 1.89968,-1.59372 3.69757,-3.30275 5.42462,-5.07934 2.88813,-3.11872 -0.62898,0.79272 1.63482,-2.04455 0.19709,-0.24702 0.44587,-0.44831 0.6688,-0.67247 0,0 -0.0372,-0.0229 -0.0372,-0.0229 v 0 c -0.24384,0.21133 -0.46856,0.44677 -0.73152,0.63396 -2.95535,2.1039 0.78857,-0.88853 -2.28692,1.64362 -1.90546,1.62101 -3.75216,3.30834 -5.65571,4.93172 z" />
    <path
       style="fill:#ffffff;fill-opacity:1;stroke:#1a1a1a;stroke-width:1.25781;stroke-dasharray:none;stroke-opacity:1"
       id="path22"
       d="m 127.15981,165.84132 c -0.0456,0.13328 -0.0992,0.26414 -0.13692,0.39985 -0.21997,0.79104 -0.30975,1.62328 -0.40362,2.43543 -0.0983,0.85049 -0.18077,1.75844 -0.26224,2.60882 -0.22429,2.87187 -0.63086,5.72755 -0.82129,8.60171 -0.24118,0.76681 0.21622,1.48853 0.16267,2.24233 0,0 0.0387,0.0202 0.0387,0.0202 v 0 c 0.11216,-0.64774 0.74403,-1.11387 0.60109,-1.84489 0.40301,-2.83666 0.6293,-5.69567 0.9338,-8.54388 0.18007,-1.83321 0.35099,-3.67017 0.69,-5.48266 z" />
    <path
       style="fill:#ffffff;fill-opacity:1;stroke:#1a1a1a;stroke-width:1.25781;stroke-dasharray:none;stroke-opacity:1"
       id="path23"
       d="m 122.52004,174.90036 c 2.04479,0.55792 4.08468,1.1349 6.11875,1.73062 1.87775,0.59691 3.78486,1.1238 5.61333,1.86314 -0.14039,-0.16392 -0.10778,-0.11071 0.169,0.0815 0,0 0.0405,0.0162 0.0405,0.0162 v 0 c -0.33142,-0.33098 -0.0755,-0.0917 -0.85558,-0.61131 -0.20998,-0.1124 -0.41464,-0.23525 -0.62993,-0.33719 -0.62688,-0.29686 -1.03586,-0.42232 -1.70533,-0.64885 -1.22513,-0.41453 -2.45646,-0.8113 -3.69602,-1.18095 -2.08227,-0.61445 -4.16977,-1.21197 -6.25252,-1.82444 z" />
  </g>
</svg>
