<?xml version="1.0" encoding="UTF-8" standalone="no"?>
<!-- Created with Inkscape (http://www.inkscape.org/) -->

<svg
   width="148.64412mm"
   height="144.60612mm"
   viewBox="0 0 561.80456 546.54284"
   version="1.1"
   id="svg1"
   inkscape:version="1.3.2 (091e20e, 2023-11-25, custom)"
   sodipodi:docname="catHub.svg"
   xmlns:inkscape="http://www.inkscape.org/namespaces/inkscape"
   xmlns:sodipodi="http://sodipodi.sourceforge.net/DTD/sodipodi-0.dtd"
   xmlns="http://www.w3.org/2000/svg"
   xmlns:svg="http://www.w3.org/2000/svg">
  <sodipodi:namedview
     id="namedview1"
     pagecolor="#ffffff"
     bordercolor="#000000"
     borderopacity="0.25"
     inkscape:showpageshadow="2"
     inkscape:pageopacity="0.0"
     inkscape:pagecheckerboard="0"
     inkscape:deskcolor="#d1d1d1"
     inkscape:document-units="mm"
     inkscape:zoom="0.80711279"
     inkscape:cx="400.81139"
     inkscape:cy="380.36815"
     inkscape:window-width="1920"
     inkscape:window-height="1129"
     inkscape:window-x="-8"
     inkscape:window-y="-8"
     inkscape:window-maximized="1"
     inkscape:current-layer="layer1" />
  <defs
     id="defs1" />
  <g
     inkscape:label="Ebene 1"
     inkscape:groupmode="layer"
     id="layer1"
     transform="translate(3.5125595,-181.32099)">
    <path
       id="path1"
       d="m 258.94769,408.86478 a 50.798351,74.33905 0 0 1 -50.79835,74.33905 50.798351,74.33905 0 0 1 -50.79835,-74.33905 50.798351,74.33905 0 0 1 50.79835,-74.33905 50.798351,74.33905 0 0 1 50.79835,74.33905 z" />
    <path
       id="path2"
       style="stroke-width:0.639492"
       d="m 380.36818,420.01566 a 32.83308,37.169525 0 0 1 -32.83308,37.16952 32.83308,37.169525 0 0 1 -32.83309,-37.16952 32.83308,37.169525 0 0 1 32.83309,-37.16953 32.83308,37.169525 0 0 1 32.83308,37.16953 z" />
    <path
       style="fill:none;stroke:#000000;stroke-width:16.8756;stroke-dasharray:none;stroke-opacity:1"
       d="m 141.2442,537.71915 c 0,0 64.42718,146.20015 166.02389,13.62883"
       id="path3"
       sodipodi:nodetypes="cc" />
    <path
       style="fill:none;stroke:#000000;stroke-width:16.8756;stroke-dasharray:none;stroke-opacity:1"
       d="m 427.26873,524.09032 c 0,0 -48.32039,158.58999 -110.2696,24.77969"
       id="path4"
       sodipodi:nodetypes="cc" />
    <path
       style="fill:none;stroke:#000000;stroke-width:16.2404;stroke-dasharray:none;stroke-opacity:1"
       d="m 148.67148,438.3099 c 0,0 -65.151522,-55.97189 -99.441799,-7.46292 -34.290277,48.50897 -38.862314,65.92244 -38.862314,65.92244 l 69.723563,-8.70674 -64.008517,65.92245 60.579489,-1.24382 -38.862313,58.45953 66.294531,-13.68202"
       id="path5" />
    <path
       style="fill:none;stroke:#000000;stroke-width:16.8756;stroke-dasharray:none;stroke-opacity:1"
       d="m 405.14784,432.4055 c 0,0 63.1882,-4.95594 78.05601,37.16952 14.86781,42.12546 13.62882,65.66616 13.62882,65.66616 l -48.32038,-27.25765 40.88648,64.42718 -43.36445,-8.67289 30.97461,48.32038 -47.0814,-11.15085"
       id="path6" />
    <path
       style="fill:none;stroke:#000000;stroke-width:16.8756;stroke-dasharray:none;stroke-opacity:1"
       d="m 277.53247,654.18368 c 0,0 19.82375,-49.55938 47.0814,-45.84243"
       id="path7" />
    <path
       style="fill:none;stroke:#000000;stroke-width:16.8756;stroke-dasharray:none;stroke-opacity:1"
       d="m 74.339054,609.58024 c 0,0 69.383116,73.10007 152.395066,64.42718"
       id="path8" />
    <path
       style="fill:none;stroke:#000000;stroke-width:16.8756;stroke-dasharray:none;stroke-opacity:1"
       d="m 444.79534,610.81922 c 0,0 -23.5407,47.08141 -64.42718,59.47125"
       id="path9" />
    <path
       style="fill:none;stroke:#000000;stroke-width:16.8756;stroke-dasharray:none;stroke-opacity:1"
       d="M 84.250928,402.66987 30.974606,198.23747 192.04255,287.44434 384.08511,343.19863 536.48017,291.1613 439.8394,428.68854"
       id="path10" />
    <path
       style="fill:none;stroke:#000000;stroke-width:6.00542;stroke-dasharray:none;stroke-opacity:1"
       d="M 86.985646,302.57562 70.757367,252.16027 129.69164,291.96186 99.797442,291.07738 111.75512,303.4601 94.672726,299.0377"
       id="path11"
       sodipodi:nodetypes="cccccc" />
    <path
       style="fill:none;stroke:#000000;stroke-width:6.87584;stroke-dasharray:none;stroke-opacity:1"
       d="m 432.22167,350.37644 49.56574,-21.39829 -34.0157,52.98624 0.97187,-23.43623 -7.77501,12.2276 v -17.32242"
       id="path12" />
    <path
       style="fill:#ffffff;fill-opacity:1;stroke:none;stroke-width:6.47055;stroke-dasharray:none;stroke-opacity:1"
       d="m 137.52725,282.48841 -1.23899,71.86108 78.05602,-23.5407 c 0,0 -8.6729,-66.90515 11.15085,-69.38311"
       id="path17" />
    <path
       style="fill:#ffffff;fill-opacity:1;stroke:none;stroke-width:3.09755;stroke-dasharray:none;stroke-opacity:1"
       d="m 308.50707,385.3241 27.25765,37.16953 -26.50049,-1.85848 z"
       id="path20" />
    <path
       id="path13"
       style="fill:#fafafa;fill-opacity:1;stroke:#000000;stroke-width:8.56063;stroke-dasharray:none;stroke-opacity:1"
       d="M 193.28125,296.11719 A 104.07468,102.21619 0 0 0 89.207033,398.33399 104.07468,102.21619 0 0 0 193.28125,500.54884 104.07468,102.21619 0 0 0 297.35548,398.33399 104.07468,102.21619 0 0 0 193.28125,296.11719 Z m 2.47852,11.42774 a 90.168793,90.168793 0 0 1 90.16797,90.16992 90.168793,90.168793 0 0 1 -90.16797,90.16797 90.168793,90.168793 0 0 1 -90.16992,-90.16797 90.168793,90.168793 0 0 1 90.16992,-90.16992 z" />
    <path
       id="rect3"
       d="m 268.85956,450.99023 h 76.81702 c 13.72795,0 24.51366,11.05174 24.18321,24.77969 l -1.13332,47.0814 c -0.33045,13.72795 -29.12839,28.68273 -42.84125,29.73562 l -16.13661,1.23898 c -13.71286,1.05288 -41.56042,-5.30178 -52.3816,-37.16952 L 243.4834,475.76992 c -4.38087,-12.90144 11.64822,-24.77969 25.37616,-24.77969 z"
       sodipodi:nodetypes="sssssssss" />
    <path
       id="rect14"
       style="fill:#fafafa;stroke:#000000;stroke-width:6.47055"
       d="M 53.276321,371.69525 H 91.68483 V 398.9529 H 53.276321 Z" />
    <path
       id="path14"
       style="fill:#fafafa;stroke:#000000;stroke-width:5.23706"
       d="m 52.654083,386.42154 a 8.0506516,11.148111 0 0 1 -8.050651,11.14811 8.0506516,11.148111 0 0 1 -8.050652,-11.14811 8.0506516,11.148111 0 0 1 8.050652,-11.14811 8.0506516,11.148111 0 0 1 8.050651,11.14811 z" />
    <path
       style="fill:#fafafa;fill-opacity:1;stroke:#000000;stroke-width:3.42389;stroke-dasharray:none;stroke-opacity:1"
       d="m 44.779685,399.80206 v 78.05601"
       id="path15" />
    <path
       style="fill:#000000;fill-opacity:1;stroke:#000000;stroke-width:6.47055;stroke-dasharray:none;stroke-opacity:1"
       d="m 142.48318,280.01044 c 0,0 32.21359,-54.51532 69.38313,-34.69157 37.16953,19.82376 -16.1068,32.2136 -16.1068,32.2136 0,0 1.23898,-22.30173 -53.27633,2.47797 z"
       id="path16" />
    <path
       style="fill:#000000;fill-opacity:1;stroke:none;stroke-width:10.6036;stroke-dasharray:none;stroke-opacity:1"
       d="m 384.93324,374.20069 c 0,0 -23.08918,-37.91246 -49.44246,-19.05159 -26.35328,18.86089 49.44246,19.05159 49.44246,19.05159 z"
       id="path18" />
    <path
       style="fill:#ffffff;fill-opacity:1;stroke:none;stroke-width:5.22786;stroke-dasharray:none;stroke-opacity:1"
       d="m 138.76623,367.97832 58.23226,49.55937 -56.6147,-2.47797 z"
       id="path19" />
    <path
       id="path21"
       style="fill:#ffffff;stroke-width:6.47055"
       d="m 355.58846,481.96484 a 9.2923813,8.6728897 0 0 1 -9.29238,8.67289 9.2923813,8.6728897 0 0 1 -9.29238,-8.67289 9.2923813,8.6728897 0 0 1 9.29238,-8.67289 9.2923813,8.6728897 0 0 1 9.29238,8.67289 z" />
    <path
       style="fill:#ffffff;fill-opacity:1;stroke:#000000;stroke-width:6.47055;stroke-dasharray:none;stroke-opacity:1"
       d="m 97.879754,629.40398 131.332336,-2.47796 29.73562,94.1628 -166.023893,-49.55936 z"
       id="path22" />
    <path
       style="fill:#ffffff;fill-opacity:1;stroke:#000000;stroke-width:6.15482;stroke-dasharray:none;stroke-opacity:1"
       d="m 360.42155,642.28482 -21.14891,81.50122 102.01238,-22.3291 -41.05376,-64.7544 z"
       id="path23" />
    <path
       style="fill:#ffffff;fill-opacity:1;stroke:#000000;stroke-width:6.47055;stroke-dasharray:none;stroke-opacity:1"
       d="m 301.07317,312.22403 -29.73562,-70.6221 94.1628,11.15086 -3.71695,-40.88649 58.23225,8.6729"
       id="path24" />
    <path
       id="path25"
       style="stroke:#000000;stroke-width:6.47055"
       d="m 483.20382,221.15868 a 33.452572,17.965271 0 0 1 -33.45257,17.96527 33.452572,17.965271 0 0 1 -33.45257,-17.96527 33.452572,17.965271 0 0 1 33.45257,-17.96527 33.452572,17.965271 0 0 1 33.45257,17.96527 z" />
    <path
       id="path26"
       style="fill:#ffffff;stroke:#000000;stroke-width:6.47055"
       d="m 477.00892,216.82224 a 12.389842,8.6728897 0 0 1 -12.38984,8.67288 12.389842,8.6728897 0 0 1 -12.38984,-8.67288 12.389842,8.6728897 0 0 1 12.38984,-8.67289 12.389842,8.6728897 0 0 1 12.38984,8.67289 z" />
  </g>
</svg>
