<svg width="27" height="24" viewBox="0 0 27 24" fill="none" xmlns="http://www.w3.org/2000/svg">
<path d="M19 3L22 8L12 21L2 8L5 3H19Z" fill="url(#paint0_linear_4_6908)"/>
<path d="M12 21L8 8H2L12 21Z" fill="#E4660C"/>
<path opacity="0.6" d="M12 21L16 8H22L12 21Z" fill="#EEA16A"/>
<path opacity="0.6" d="M8 8L5 3L2 8H8Z" fill="#F26C0D"/>
<path opacity="0.8" d="M21.9999 8L19 3L16 8H21.9999Z" fill="#FFA361"/>
<path opacity="0.8" d="M8 8L12.0001 21L16.0001 8H8Z" fill="#EB7C2D"/>
<path opacity="0.4" d="M7.99999 8L4.99982 3H11.9998L7.99999 8Z" fill="#F37419"/>
<path d="M12 3L16 8L19 3H12Z" fill="#FF8F3D"/>
<path d="M12 3L16 8H8L12 3Z" fill="url(#paint1_linear_4_6908)"/>
<path opacity="0.1" d="M12 21L16 8H22L12 21Z" fill="url(#paint2_linear_4_6908)"/>
<path opacity="0.1" d="M21.9999 8L19 3L16 8H21.9999Z" fill="url(#paint3_linear_4_6908)"/>
<path opacity="0.1" d="M8 8L12.0001 21L16.0001 8H8Z" fill="url(#paint4_linear_4_6908)"/>
<path opacity="0.1" d="M12 3L16 8L19 3H12Z" fill="url(#paint5_linear_4_6908)"/>
<path opacity="0.1" d="M12 3L16 8H8L12 3Z" fill="url(#paint6_linear_4_6908)"/>
<path d="M8.14285 6H9.28571V7.14286H8.14285V6Z" fill="#FFFF00"/>
<path d="M11.5714 10.5714H12.7143V12.8571H11.5714V10.5714Z" fill="#FFFF00"/>
<path d="M9.28571 10.5714H10.4286V12.8571H9.28571V10.5714Z" fill="#FFFF00"/>
<path d="M13.8571 10.5714H15V12.8571H13.8571V10.5714Z" fill="#FFFF00"/>
<path d="M12.7143 11.7143H13.8572V14H12.7143V11.7143Z" fill="#FFFF00"/>
<path d="M15 11.7143H16.1429V14H15V11.7143Z" fill="#FFFF00"/>
<path d="M10.4286 11.7143H11.5714V14H10.4286V11.7143Z" fill="#FFFF00"/>
<path d="M8.14285 11.7143H9.28571V14H8.14285V11.7143Z" fill="#FFFF00"/>
<path d="M15 6H16.1429V7.14286H15V6Z" fill="#FFFF00"/>
<path d="M11.5714 8.28572H12.7143V9.42858H11.5714V8.28572Z" fill="#FFFF00"/>
<path d="M16.1429 10.5714H17.2857V11.7143H16.1429V10.5714Z" fill="#FFFF00"/>
<path d="M7 10.5714H8.14286V11.7143H7V10.5714Z" fill="#FFFF00"/>
<path d="M7 7.14285H10.4286V8.28571H7V7.14285Z" fill="#FFFF00"/>
<path d="M7 7.14285H10.4286V8.28571H7V7.14285Z" fill="#FFFF00"/>
<path d="M7 7.14285H10.4286V8.28571H7V7.14285Z" fill="#FFFF00"/>
<path d="M7 7.14285H10.4286V8.28571H7V7.14285Z" fill="#FFFF00"/>
<path d="M13.8571 7.14285H17.2857V8.28571H13.8571V7.14285Z" fill="#FFFF00"/>
<path d="M13.8571 7.14285H17.2857V8.28571H13.8571V7.14285Z" fill="#FFFF00"/>
<path d="M13.8571 7.14285H17.2857V8.28571H13.8571V7.14285Z" fill="#FFFF00"/>
<path d="M13.8571 7.14285H17.2857V8.28571H13.8571V7.14285Z" fill="#FFFF00"/>
<g filter="url(#filter0_d_4_6908)">
<path fill-rule="evenodd" clip-rule="evenodd" d="M17 10C17.5523 10 18 10.4477 18 11V13H20C20.5523 13 21 13.4477 21 14C21 14.5523 20.5523 15 20 15H18V17C18 17.5523 17.5523 18 17 18C16.4477 18 16 17.5523 16 17V15H14C13.4477 15 13 14.5523 13 14C13 13.4477 13.4477 13 14 13H16V11C16 10.4477 16.4477 10 17 10Z" fill="white"/>
</g>
<defs>
<filter id="filter0_d_4_6908" x="12.5" y="9.5" width="10" height="10" filterUnits="userSpaceOnUse" color-interpolation-filters="sRGB">
<feFlood flood-opacity="0" result="BackgroundImageFix"/>
<feColorMatrix in="SourceAlpha" type="matrix" values="0 0 0 0 0 0 0 0 0 0 0 0 0 0 0 0 0 0 127 0" result="hardAlpha"/>
<feOffset dx="0.5" dy="0.5"/>
<feGaussianBlur stdDeviation="0.5"/>
<feComposite in2="hardAlpha" operator="out"/>
<feColorMatrix type="matrix" values="0 0 0 0 0 0 0 0 0 0 0 0 0 0 0 0 0 0 0.45 0"/>
<feBlend mode="normal" in2="BackgroundImageFix" result="effect1_dropShadow_4_6908"/>
<feBlend mode="normal" in="SourceGraphic" in2="effect1_dropShadow_4_6908" result="shape"/>
</filter>
<linearGradient id="paint0_linear_4_6908" x1="22" y1="3" x2="4.09945" y2="22.8895" gradientUnits="userSpaceOnUse">
<stop stop-color="#FF7663"/>
<stop offset="0.739583" stop-color="#F8BC76"/>
<stop offset="1" stop-color="#FFB35C"/>
</linearGradient>
<linearGradient id="paint1_linear_4_6908" x1="8" y1="3" x2="12.4944" y2="10.191" gradientUnits="userSpaceOnUse">
<stop stop-color="#FF7663"/>
<stop offset="0.739583" stop-color="#F8BC76"/>
<stop offset="1" stop-color="#FFB35C"/>
</linearGradient>
<linearGradient id="paint2_linear_4_6908" x1="14" y1="16.5" x2="19.3627" y2="9.40868" gradientUnits="userSpaceOnUse">
<stop stop-color="white" stop-opacity="0.01"/>
<stop offset="1" stop-color="white"/>
</linearGradient>
<linearGradient id="paint3_linear_4_6908" x1="18" y1="7.5" x2="20.4633" y2="4.94696" gradientUnits="userSpaceOnUse">
<stop offset="0.0928012" stop-color="white" stop-opacity="0.01"/>
<stop offset="1" stop-color="white"/>
</linearGradient>
<linearGradient id="paint4_linear_4_6908" x1="15" y1="16.5" x2="9.60114" y2="9.69756" gradientUnits="userSpaceOnUse">
<stop stop-color="white" stop-opacity="0.01"/>
<stop offset="1" stop-color="white"/>
</linearGradient>
<linearGradient id="paint5_linear_4_6908" x1="17" y1="2" x2="13.5474" y2="3.25511" gradientUnits="userSpaceOnUse">
<stop stop-color="white" stop-opacity="0.01"/>
<stop offset="1" stop-color="white"/>
</linearGradient>
<linearGradient id="paint6_linear_4_6908" x1="8" y1="8" x2="8.65795" y2="4.18252" gradientUnits="userSpaceOnUse">
<stop stop-color="white" stop-opacity="0.01"/>
<stop offset="1" stop-color="white"/>
</linearGradient>
</defs>
</svg>
